<svg width="640" height="360" viewBox="0 0 640 360" fill="none" xmlns="http://www.w3.org/2000/svg">
<g clip-path="url(#clip0)">
<rect width="640" height="360" fill="white"/>
<path opacity="0.4" d="M-33.3334 27.3333C-33.3334 24.3878 -30.9456 22 -28 22H672V374H-33.3334V27.3333Z" fill="#FFEBE6"/>
<rect opacity="0.4" x="-32" y="22" width="176" height="352" fill="#FFEBE6"/>
<line y1="-0.666667" x2="352.004" y2="-0.666667" transform="matrix(0.0040088 0.999992 -0.999997 0.00223609 495.106 22)" stroke="#FFEBE6" stroke-width="1.33333"/>
<line x1="672.667" y1="198" x2="-33.3333" y2="198" stroke="#FFEBE6" stroke-width="1.33333"/>
<line y1="-0.666667" x2="352.004" y2="-0.666667" transform="matrix(0.0040088 0.999992 -0.999997 0.00223609 317.983 22)" stroke="#FFEBE6" stroke-width="1.33333"/>
<line y1="-0.666667" x2="352.004" y2="-0.666667" transform="matrix(0.0040088 0.999992 -0.999997 0.00223609 142.325 22)" stroke="#FFEBE6" stroke-width="1.33333"/>
<path d="M43.6208 37.111C43.7041 38.4443 44.8239 39.2985 46.4906 39.2985C48.2719 39.2985 49.3864 38.4027 49.3864 36.9808C49.3864 35.8558 48.751 35.236 47.2094 34.8662L46.3812 34.6631C45.4021 34.4235 45.0062 34.111 45.0062 33.5641C45.0062 32.861 45.6208 32.4079 46.5427 32.4079C47.4177 32.4079 48.0219 32.8454 48.1312 33.5589H49.2666C49.1989 32.3037 48.0844 31.4183 46.5583 31.4183C44.9177 31.4183 43.8239 32.3037 43.8239 33.6266C43.8239 34.7204 44.4437 35.3662 45.8031 35.6943L46.7719 35.9287C47.7666 36.1683 48.2041 36.5329 48.2041 37.1214C48.2041 37.8089 47.5166 38.3037 46.5791 38.3037C45.5739 38.3037 44.876 37.8402 44.7771 37.111H43.6208ZM52.0791 31.6006H50.9125V36.5277C50.9125 38.1527 52.0739 39.2985 53.9541 39.2985C55.8448 39.2985 57.001 38.1527 57.001 36.5277V31.6006H55.8344V36.4339C55.8344 37.5068 55.1521 38.262 53.9541 38.262C52.7614 38.262 52.0791 37.5068 52.0791 36.4339V31.6006ZM60.0166 39.1162V33.6579H60.1L63.9594 39.1162H65.0114V31.6006H63.876V37.0693H63.7927L59.9333 31.6006H58.8812V39.1162H60.0166Z" fill="#FF8F73"/>
<path d="M400.895 39.1162V32.6058H403.255V31.6006H397.364V32.6058H399.729V39.1162H400.895ZM405.843 31.6006H404.677V36.5277C404.677 38.1527 405.838 39.2985 407.718 39.2985C409.609 39.2985 410.765 38.1527 410.765 36.5277V31.6006H409.598V36.4339C409.598 37.5068 408.916 38.262 407.718 38.262C406.526 38.262 405.843 37.5068 405.843 36.4339V31.6006ZM417.416 38.111H413.812V35.7725H417.223V34.8037H413.812V32.6058H417.416V31.6006H412.645V39.1162H417.416V38.111Z" fill="#FF8F73"/>
<path d="M577.308 33.4964H577.381L578.996 39.1162H580.095L582.126 31.6006H580.913L579.538 37.4443H579.465L577.887 31.6006H576.803L575.236 37.4443H575.163L573.782 31.6006H572.569L574.595 39.1162H575.699L577.308 33.4964ZM588.308 38.111H584.704V35.7725H588.116V34.8037H584.704V32.6058H588.308V31.6006H583.538V39.1162H588.308V38.111ZM589.996 31.6006V39.1162H592.709C594.949 39.1162 596.246 37.7308 596.246 35.3402C596.246 32.9756 594.939 31.6006 592.709 31.6006H589.996ZM591.163 32.6058H592.579C594.137 32.6058 595.058 33.6214 595.058 35.3558C595.058 37.1058 594.152 38.111 592.579 38.111H591.163V32.6058Z" fill="#FF8F73"/>
<path d="M406.448 51.3197H407.503C408.604 51.3197 409.284 51.8822 409.284 52.7845C409.284 53.6635 408.558 54.2494 407.52 54.2494C406.495 54.2494 405.786 53.7162 405.71 52.8842H404.45C404.52 54.3724 405.751 55.351 407.538 55.351C409.302 55.351 410.632 54.2963 410.632 52.8549C410.632 51.6947 409.905 50.9447 408.78 50.7748V50.6752C409.665 50.4291 410.304 49.7552 410.31 48.7357C410.315 47.5345 409.325 46.4857 407.579 46.4857C405.798 46.4857 404.696 47.5111 404.608 48.9467H405.851C405.927 48.0619 406.542 47.5638 407.503 47.5638C408.452 47.5638 409.015 48.1556 409.015 48.8998C409.015 49.7142 408.382 50.2885 407.468 50.2885H406.448V51.3197Z" fill="#FF8F73"/>
<path d="M585.34 55.1459H586.605V53.4642H587.771V52.351H586.605V46.6908H584.736C583.57 48.4427 582.328 50.4408 581.215 52.351V53.4642H585.34V55.1459ZM582.474 52.2924C583.342 50.8099 584.373 49.1635 585.281 47.7982H585.357V52.3744H582.474V52.2924Z" fill="#FF8F73"/>
<path d="M403.665 218H404.978V209.545H403.671L401.444 211.127V212.416L403.565 210.898H403.665V218ZM410.427 218.205C412.395 218.205 413.544 216.582 413.544 213.781C413.544 210.975 412.378 209.34 410.427 209.34C408.464 209.34 407.298 210.975 407.298 213.764C407.298 216.576 408.452 218.205 410.427 218.205ZM410.427 217.115C409.278 217.115 408.622 215.943 408.622 213.764C408.622 211.613 409.29 210.436 410.427 210.436C411.563 210.436 412.22 211.602 412.22 213.764C412.22 215.949 411.575 217.115 410.427 217.115Z" fill="#FF8F73"/>
<path d="M582.303 218H583.616V209.545H582.309L580.082 211.127V212.416L582.204 210.898H582.303V218ZM588.104 218H589.416V209.545H588.11L585.883 211.127V212.416L588.004 210.898H588.104V218Z" fill="#FF8F73"/>
<path d="M227.75 39.1162V31.6006H226.386L223.99 37.4808H223.901L221.511 31.6006H220.146V39.1162H221.229V33.611H221.302L223.505 38.9808H224.391L226.594 33.611H226.667V39.1162H227.75ZM232.839 31.4183C230.683 31.4183 229.328 32.9339 229.328 35.3558C229.328 37.7725 230.651 39.2985 232.839 39.2985C235.011 39.2985 236.344 37.7673 236.344 35.3558C236.344 32.9391 235 31.4183 232.839 31.4183ZM232.839 32.4495C234.261 32.4495 235.151 33.5745 235.151 35.3558C235.151 37.1214 234.266 38.2673 232.839 38.2673C231.391 38.2673 230.521 37.1214 230.521 35.3558C230.521 33.5745 231.417 32.4495 232.839 32.4495ZM239.063 39.1162V33.6579H239.146L243.005 39.1162H244.058V31.6006H242.922V37.0693H242.839L238.979 31.6006H237.927V39.1162H239.063Z" fill="#FF8F73"/>
<path d="M229.239 49.14H230.481C230.481 48.2025 231.108 47.5697 232.063 47.5697C233.001 47.5697 233.558 48.1967 233.558 49.017C233.558 49.7025 233.276 50.1244 232.204 51.2435L229.31 54.2552V55.1459H235.005V54.0267H231.103V53.9271L232.966 52.0521C234.448 50.5638 234.876 49.8666 234.876 48.8881C234.876 47.4994 233.733 46.4857 232.145 46.4857C230.44 46.4857 229.239 47.5873 229.239 49.14Z" fill="#FF8F73"/>
<path d="M54.5368 55.1459H55.8493V46.6908H54.5427L52.3161 48.2728V49.5619L54.4372 48.0443H54.5368V55.1459Z" fill="#FF8F73"/>
<path d="M231.935 218.199C234.05 218.199 235.286 216.523 235.286 213.652C235.286 210.816 233.927 209.34 231.987 209.34C230.194 209.34 228.923 210.564 228.923 212.281C228.923 213.91 230.095 215.1 231.706 215.1C232.708 215.1 233.517 214.631 233.921 213.822H234.02C233.985 215.92 233.241 217.092 231.946 217.092C231.173 217.092 230.569 216.67 230.37 215.973H229.046C229.298 217.332 230.435 218.199 231.935 218.199ZM231.993 214.039C230.95 214.039 230.229 213.307 230.229 212.24C230.229 211.221 230.991 210.436 232.005 210.436C233.013 210.436 233.774 211.232 233.774 212.275C233.774 213.301 233.03 214.039 231.993 214.039Z" fill="#FF8F73"/>
<path d="M58.49 218.205C60.3708 218.205 61.6716 217.191 61.6716 215.732C61.6716 214.643 60.9567 213.787 59.8728 213.582V213.482C60.7634 213.254 61.3259 212.533 61.3259 211.613C61.3259 210.283 60.1482 209.34 58.49 209.34C56.8317 209.34 55.654 210.283 55.654 211.613C55.654 212.527 56.2282 213.26 57.1071 213.482V213.582C56.0232 213.799 55.3142 214.654 55.3142 215.738C55.3142 217.197 56.6091 218.205 58.49 218.205ZM58.49 213.078C57.57 213.078 56.9489 212.539 56.9489 211.736C56.9489 210.922 57.5642 210.377 58.49 210.377C59.4157 210.377 60.0368 210.922 60.0368 211.736C60.0368 212.539 59.4099 213.078 58.49 213.078ZM58.49 217.162C57.406 217.162 56.656 216.535 56.656 215.633C56.656 214.73 57.406 214.109 58.49 214.109C59.5739 214.109 60.3239 214.73 60.3239 215.633C60.3239 216.535 59.5739 217.162 58.49 217.162Z" fill="#FF8F73"/>
<path d="M-33.3334 362.667V27.3333C-33.3334 24.3878 -30.9456 22 -28 22H672.667" stroke="#FFEBE6" stroke-width="1.33333"/>
<rect x="542" y="73.3334" width="122" height="8.66667" rx="0.666667" fill="#FFEBE6"/>
<rect x="516.667" y="94.6666" width="147.333" height="8.66667" rx="0.666667" fill="#FFEBE6"/>
<path fill-rule="evenodd" clip-rule="evenodd" d="M518.833 69.4445C517.698 69.4445 516.778 70.3648 516.778 71.5V83.8333C516.778 84.9686 517.698 85.8889 518.833 85.8889H531.167C532.302 85.8889 533.222 84.9686 533.222 83.8333V78.6944C533.222 78.1268 532.762 77.6667 532.194 77.6667C531.627 77.6667 531.167 78.1268 531.167 78.6944V83.8333H518.833V71.5L529.111 71.5C529.679 71.5 530.139 71.0399 530.139 70.4722C530.139 69.9046 529.679 69.4445 529.111 69.4445H518.833ZM521.645 75.9424C521.26 75.525 520.61 75.4984 520.192 75.8831C519.775 76.2678 519.748 76.918 520.133 77.3354L523.846 81.3635C524.398 81.9042 525.22 81.9042 525.731 81.3938L526.105 81.0257C526.408 80.7279 526.745 80.396 527.109 80.0383C528.146 79.0162 529.184 77.9924 530.153 77.0343L530.195 76.9934C531.916 75.2912 533.223 73.991 533.954 73.2495C534.353 72.8454 534.348 72.1947 533.944 71.7961C533.54 71.3975 532.889 71.4019 532.49 71.806C531.767 72.5394 530.465 73.8356 528.749 75.5318L528.708 75.5727C527.74 76.5296 526.703 77.5525 525.666 78.5736L524.828 79.3985L521.645 75.9424Z" fill="#FFEBE6"/>
<path d="M160.529 298.265H174.369C174.884 298.265 175.301 298.681 175.301 299.196V313.036C175.301 313.551 174.884 313.967 174.369 313.967H160.529C160.015 313.967 159.598 313.551 159.598 313.036V299.196C159.598 298.681 160.015 298.265 160.529 298.265Z" stroke="#FFEBE6" stroke-width="1.86234"/>
<rect x="184.667" y="302" width="107.333" height="8.66667" rx="0.666667" fill="#FFEBE6"/>
<rect x="158.667" y="323.333" width="140.667" height="8.66667" rx="0.666667" fill="#FFEBE6"/>
<rect x="158.667" y="343.333" width="118.667" height="8.66667" rx="0.666667" fill="#FFEBE6"/>
<g filter="url(#filter0_d)">
<rect x="152" y="112" width="336" height="64" rx="2.66667" fill="url(#paint0_linear)"/>
</g>
<path d="M183.892 118.667L163.247 118.667C161.822 118.667 160.667 119.822 160.667 121.247C160.667 122.673 161.822 123.828 163.247 123.828L183.892 123.828C185.318 123.828 186.473 122.673 186.473 121.247C186.473 119.822 185.318 118.667 183.892 118.667Z" fill="#FFC400"/>
<path d="M212.28 118.667L191.634 118.667C190.209 118.667 189.054 119.822 189.054 121.247C189.054 122.673 190.209 123.828 191.634 123.828L212.28 123.828C213.705 123.828 214.86 122.673 214.86 121.247C214.86 119.822 213.705 118.667 212.28 118.667Z" fill="#FFBEE5"/>
<mask id="mask0" mask-type="alpha" maskUnits="userSpaceOnUse" x="442" y="152" width="19" height="20">
<circle cx="451.333" cy="162" r="9.33333" fill="url(#paint1_linear)"/>
</mask>
<g mask="url(#mask0)">
<circle cx="451.333" cy="162" r="9.33333" fill="url(#paint2_linear)"/>
<path d="M449.495 163.568C449.495 163.568 446.843 164.239 445.829 165.475C444.814 166.711 444.598 171.03 444.598 171.03L445.477 175.977C445.477 175.977 448.842 177.934 455.263 176.329L458.23 169.387C458.23 169.387 459.109 164.992 453.351 163.29L449.495 163.568Z" fill="url(#paint3_linear)"/>
<mask id="mask1" mask-type="alpha" maskUnits="userSpaceOnUse" x="444" y="163" width="15" height="14">
<path d="M449.495 163.568C449.495 163.568 446.843 164.239 445.829 165.475C444.814 166.711 444.598 171.03 444.598 171.03L445.477 175.977C445.477 175.977 448.842 177.934 455.263 176.329L458.23 169.387C458.23 169.387 459.109 164.992 453.351 163.29L449.495 163.568Z" fill="url(#paint4_linear)"/>
</mask>
<g mask="url(#mask1)">
<path d="M453.648 165.344C451.961 165.344 451.965 162.727 453.648 162.727C455.33 162.727 455.332 165.344 453.648 165.344ZM449.829 164.234C449.809 164.164 449.771 164.1 449.72 164.048L449.641 163.981C449.576 163.944 449.502 163.925 449.428 163.925C449.371 163.921 449.315 163.933 449.264 163.96C449.213 163.978 449.166 164.008 449.129 164.048C449.053 164.129 449.009 164.235 449.006 164.347C449.006 164.384 449.006 164.421 449.02 164.459C449.04 164.53 449.078 164.594 449.129 164.646L449.215 164.711C449.279 164.749 449.353 164.769 449.428 164.769C449.485 164.771 449.541 164.758 449.591 164.732C449.643 164.715 449.69 164.685 449.727 164.646C449.767 164.608 449.797 164.561 449.815 164.509C449.841 164.459 449.853 164.403 449.85 164.347C449.838 164.31 449.834 164.271 449.829 164.234ZM448.492 167.972C448.473 167.901 448.436 167.837 448.383 167.786L448.299 167.719C448.234 167.682 448.16 167.662 448.085 167.661C448.028 167.659 447.973 167.672 447.923 167.698C447.871 167.714 447.824 167.745 447.787 167.786C447.747 167.823 447.716 167.869 447.7 167.921C447.673 167.972 447.661 168.028 447.663 168.085L447.678 168.196C447.697 168.267 447.735 168.332 447.787 168.384L447.872 168.449C447.936 168.487 448.01 168.507 448.085 168.507C448.141 168.509 448.198 168.496 448.248 168.47C448.3 168.453 448.346 168.423 448.383 168.384C448.459 168.302 448.503 168.196 448.508 168.085L448.492 167.972ZM454.405 166.105C454.386 166.034 454.348 165.97 454.296 165.919L454.212 165.854C454.147 165.815 454.073 165.795 453.998 165.796C453.941 165.792 453.885 165.805 453.836 165.832C453.784 165.851 453.737 165.88 453.699 165.919C453.66 165.957 453.631 166.004 453.612 166.056C453.586 166.105 453.573 166.161 453.576 166.218L453.591 166.33C453.61 166.4 453.647 166.465 453.699 166.516C453.729 166.538 453.757 166.56 453.785 166.583C453.85 166.62 453.923 166.64 453.998 166.639C454.054 166.643 454.111 166.631 454.161 166.604C454.213 166.587 454.259 166.557 454.296 166.516C454.337 166.479 454.367 166.433 454.384 166.381C454.411 166.331 454.423 166.274 454.421 166.218L454.405 166.105ZM455.329 169.196C455.31 169.124 455.272 169.058 455.219 169.004L455.133 168.938C455.067 168.901 454.991 168.883 454.915 168.885C454.859 168.883 454.802 168.895 454.752 168.922C454.7 168.939 454.653 168.969 454.616 169.01C454.576 169.047 454.546 169.093 454.529 169.145C454.502 169.195 454.49 169.252 454.493 169.308C454.493 169.345 454.502 169.382 454.507 169.419C454.527 169.49 454.564 169.554 454.616 169.606C454.645 169.628 454.673 169.651 454.703 169.672C454.767 169.711 454.84 169.731 454.915 169.73C455.026 169.725 455.132 169.681 455.214 169.606C455.255 169.569 455.285 169.522 455.3 169.47C455.327 169.421 455.34 169.365 455.337 169.308C455.337 169.27 455.332 169.233 455.329 169.196ZM455.765 167.965C455.745 167.895 455.707 167.831 455.656 167.779L455.569 167.712C455.505 167.674 455.431 167.654 455.357 167.654C455.246 167.66 455.14 167.704 455.058 167.779C455.018 167.816 454.988 167.862 454.972 167.914C454.945 167.965 454.933 168.021 454.935 168.078C454.935 168.115 454.945 168.152 454.949 168.188C454.968 168.259 455.006 168.324 455.058 168.377L455.144 168.442C455.208 168.48 455.282 168.5 455.357 168.5C455.413 168.502 455.47 168.489 455.52 168.463C455.571 168.444 455.618 168.414 455.656 168.376C455.695 168.337 455.725 168.291 455.743 168.239C455.77 168.19 455.782 168.134 455.779 168.078C455.773 168.046 455.77 168.009 455.765 167.972V167.965ZM447.988 164.785L447.882 164.644C447.794 164.56 447.686 164.499 447.568 164.468L447.374 164.433C447.251 164.434 447.129 164.467 447.023 164.53L446.878 164.64C446.794 164.728 446.733 164.837 446.703 164.955C446.673 165.047 446.668 165.144 446.69 165.238C446.694 165.332 446.723 165.423 446.775 165.502C446.836 165.608 446.924 165.695 447.03 165.757H447.049L447.211 165.825C447.326 165.856 447.447 165.856 447.562 165.825L447.722 165.759H447.731C447.791 165.734 447.844 165.695 447.884 165.644C448.01 165.506 448.083 165.328 448.092 165.141C448.09 165.015 448.054 164.892 447.988 164.785V164.785ZM447.262 167.218C447.261 167.116 447.233 167.015 447.179 166.928C447.152 166.832 447.101 166.744 447.031 166.673C446.981 166.588 446.911 166.517 446.827 166.465C446.756 166.395 446.669 166.345 446.572 166.318C446.435 166.245 446.28 166.211 446.124 166.218L445.818 166.26L445.542 166.376L445.308 166.552L445.132 166.784C445.094 166.877 445.053 166.959 445.015 167.06C444.967 167.209 444.961 167.368 444.995 167.52C444.993 167.624 445.018 167.727 445.069 167.818C445.115 167.96 445.197 168.087 445.307 168.188L445.329 168.211C445.427 168.319 445.552 168.399 445.69 168.443C445.823 168.513 445.972 168.547 446.122 168.54L446.421 168.5C446.609 168.448 446.78 168.349 446.917 168.211L446.938 168.188C446.998 168.109 447.06 168.032 447.114 167.955L447.23 167.679C447.281 167.53 447.292 167.372 447.262 167.218V167.218ZM449.816 165.173C448.132 165.173 448.13 167.791 449.816 167.791C451.503 167.791 451.508 165.173 449.816 165.173ZM452.93 166.775C451.248 166.775 451.244 169.393 452.93 169.393C454.616 169.393 454.623 166.775 452.936 166.775H452.93ZM447.278 173.351C445.593 173.351 445.591 175.967 447.278 175.967C448.964 175.967 448.969 173.351 447.283 173.351H447.278ZM446.485 168.734C444.8 168.734 444.797 171.35 446.485 171.35C448.172 171.35 448.171 168.734 446.485 168.734ZM449.474 168.422C447.791 168.422 447.787 171.039 449.474 171.039C451.16 171.039 451.153 168.422 449.465 168.422H449.474ZM452.099 174.019C450.414 174.019 450.411 176.637 452.099 176.637C453.787 176.637 453.776 174.019 452.09 174.019H452.099ZM450.541 171.557L450.523 171.524C450.491 171.471 450.446 171.426 450.393 171.394C450.34 171.363 450.279 171.346 450.217 171.345C450.156 171.346 450.095 171.363 450.041 171.394C449.988 171.426 449.944 171.471 449.911 171.524L449.894 171.557C449.86 171.616 449.843 171.683 449.843 171.751C449.839 171.803 449.846 171.855 449.864 171.904C449.882 171.954 449.909 171.999 449.945 172.037C449.98 172.075 450.024 172.106 450.071 172.127C450.119 172.147 450.171 172.158 450.223 172.158C450.276 172.158 450.327 172.147 450.375 172.127C450.423 172.106 450.467 172.075 450.502 172.037C450.538 171.999 450.565 171.954 450.583 171.904C450.6 171.855 450.608 171.803 450.604 171.751C450.597 171.683 450.572 171.618 450.532 171.563L450.541 171.557ZM450.15 175.221L450.133 175.188C450.102 175.134 450.057 175.089 450.003 175.058C449.949 175.027 449.889 175.01 449.827 175.009C449.765 175.01 449.705 175.027 449.651 175.058C449.598 175.089 449.553 175.134 449.523 175.188L449.505 175.221C449.47 175.28 449.452 175.347 449.452 175.415C449.452 175.482 449.471 175.549 449.505 175.606C449.537 175.661 449.582 175.707 449.637 175.74C449.691 175.773 449.753 175.792 449.816 175.795C449.917 175.795 450.014 175.755 450.086 175.683C450.157 175.612 450.198 175.516 450.198 175.415C450.199 175.347 450.183 175.281 450.15 175.221V175.221ZM449.141 175.786L449.124 175.752C449.092 175.699 449.047 175.654 448.994 175.622C448.94 175.591 448.88 175.574 448.818 175.573C448.756 175.575 448.695 175.591 448.642 175.622C448.589 175.655 448.545 175.699 448.514 175.752L448.496 175.786C448.461 175.844 448.443 175.911 448.443 175.979C448.443 176.047 448.461 176.113 448.496 176.171C448.53 176.228 448.578 176.276 448.635 176.309C448.693 176.342 448.758 176.359 448.825 176.359C448.891 176.359 448.956 176.342 449.014 176.309C449.072 176.276 449.12 176.228 449.154 176.171C449.188 176.113 449.207 176.047 449.206 175.979C449.203 175.91 449.18 175.843 449.141 175.786ZM454.092 170.914C453.857 170.91 453.626 170.971 453.423 171.09C453.542 170.365 453.129 169.537 452.18 169.537C450.495 169.537 450.493 172.153 452.18 172.153C452.415 172.157 452.646 172.097 452.849 171.977C452.73 172.702 453.143 173.53 454.092 173.53C455.777 173.53 455.78 170.914 454.092 170.914ZM456.185 163.928C454.5 163.928 454.499 166.545 456.185 166.545C457.871 166.545 457.871 163.928 456.185 163.928ZM457.449 166.69C455.765 166.69 455.761 169.308 457.449 169.308C459.137 169.308 459.135 166.69 457.449 166.69Z" fill="url(#paint5_linear)"/>
</g>
<path d="M447.599 157.841C447.599 157.841 446.796 155.262 450.05 154.502C450.806 154.318 451.602 154.41 452.296 154.763C453.486 155.385 454.915 156.95 454.026 160.867C454.026 160.867 453.653 161.824 452.665 161.783L452.751 160.201C452.751 160.201 449.817 156.827 447.599 157.841Z" fill="#253858"/>
<path d="M452.751 160.213C452.751 160.213 452.542 162.571 453.345 163.288C453.345 163.288 452.927 165.097 450.522 164.92C450.362 164.908 450.206 164.863 450.065 164.786C449.924 164.71 449.801 164.605 449.704 164.477C449.607 164.35 449.538 164.203 449.502 164.047C449.466 163.891 449.759 163.776 449.79 163.618C449.96 163.28 449.847 162.885 449.655 162.398C449.708 161.382 452.751 160.213 452.751 160.213Z" fill="#D99476"/>
<path d="M447.797 159.345C446.776 157.777 448.149 156.625 448.149 156.625C449.867 156.472 452.768 158.965 452.768 158.965C452.768 158.965 453.559 157.705 453.635 159.057C453.67 159.421 453.577 159.786 453.371 160.088C453.166 160.391 452.861 160.612 452.509 160.713C451.096 163.684 449.339 163.28 449 162.941C448.661 162.602 448.287 161.929 447.959 161.34C447.611 160.713 447.674 160.013 447.797 159.345Z" fill="#DD9C80"/>
<path d="M449.866 161.769C449.858 161.809 449.261 161.774 449.17 161.742C449.078 161.71 448.961 161.683 448.861 161.766C448.739 161.721 448.649 161.736 448.649 161.736C448.548 161.772 448.459 161.878 448.459 161.878C448.459 161.878 448.623 162.035 448.674 162.058C448.759 162.096 448.823 162.19 449.048 162.172C449.273 162.155 449.864 161.802 449.866 161.769Z" fill="#E28963"/>
<path d="M448.082 159.985C448.028 159.982 447.985 159.876 447.987 159.748C447.989 159.62 448.035 159.519 448.089 159.521C448.143 159.524 448.186 159.63 448.184 159.758C448.182 159.886 448.137 159.988 448.082 159.985Z" fill="#091E42"/>
<path d="M449.882 158.812C450.167 158.794 450.451 158.868 450.69 159.023" stroke="#091E42" stroke-width="0.217456" stroke-linecap="round" stroke-linejoin="round"/>
<path d="M447.648 159.165C447.784 159.075 447.94 159.028 448.094 159.032" stroke="#091E42" stroke-width="0.217456" stroke-linecap="round" stroke-linejoin="round"/>
<ellipse opacity="0.5" cx="450.75" cy="160.852" rx="1.1855" ry="1.1855" fill="url(#paint6_radial)"/>
<path d="M447.738 156.095C447.321 156.942 447.166 157.893 447.292 158.828L448.612 158.652C448.612 158.652 448.222 157.864 448.396 157.126L449.011 158.578C449.011 158.578 451.079 158.443 452.703 158.91L450.571 156.829L448.612 156.533L447.738 156.095Z" fill="#253858"/>
<path d="M448.827 159.6C448.827 159.6 448.487 159.503 448.396 159.622" stroke="white" stroke-width="0.129438" stroke-miterlimit="10" stroke-linecap="round"/>
<path d="M450.492 159.578L452.702 158.908" stroke="white" stroke-width="0.129438" stroke-miterlimit="10" stroke-linecap="round"/>
<path d="M449.676 160.512C450.118 160.512 450.476 160.154 450.476 159.712C450.476 159.27 450.118 158.912 449.676 158.912C449.234 158.912 448.876 159.27 448.876 159.712C448.876 160.154 449.234 160.512 449.676 160.512Z" stroke="white" stroke-width="0.129438" stroke-miterlimit="10" stroke-linecap="round"/>
<path d="M447.905 160.633C448.234 160.582 448.452 160.223 448.391 159.83C448.33 159.438 448.014 159.161 447.685 159.212C447.356 159.263 447.138 159.622 447.199 160.015C447.26 160.407 447.576 160.684 447.905 160.633Z" stroke="white" stroke-width="0.129438" stroke-miterlimit="10" stroke-linecap="round"/>
<path d="M449.964 159.797C449.91 159.794 449.867 159.688 449.869 159.56C449.871 159.432 449.916 159.33 449.971 159.333C450.025 159.335 450.067 159.441 450.066 159.569C450.064 159.697 450.018 159.799 449.964 159.797Z" fill="#091E42"/>
</g>
<mask id="mask2" mask-type="alpha" maskUnits="userSpaceOnUse" x="464" y="152" width="19" height="20">
<circle cx="473.333" cy="162" r="9.33333" fill="url(#paint7_linear)"/>
</mask>
<g mask="url(#mask2)">
<g filter="url(#filter1_dd)">
<circle cx="473.333" cy="162" r="9.33333" fill="url(#paint8_linear)"/>
</g>
<path d="M470.095 156.904C470.095 156.904 469.318 157.844 469.454 158.904C469.535 159.539 469.028 160.016 468.878 160.417C468.793 160.64 468.938 160.866 469.379 160.93C469.302 161.077 469.195 161.206 469.063 161.308C469.063 161.308 468.915 161.705 469.275 161.71C469.275 161.71 469.044 161.783 469.035 161.975C469.035 161.975 468.998 162.233 469.312 162.249C469.627 162.265 469.157 162.83 469.703 163.298C470.1 163.637 470.939 163.427 471.236 163.236C471.533 163.922 471.775 164.631 471.958 165.356C471.958 165.356 474.608 165.971 475.235 164.296C475.235 164.296 474.548 163.558 474.648 162.12C474.648 162.12 476.017 160.142 476.1 158.981C476.183 157.821 475.272 155.979 473.652 155.802C472.032 155.625 470.342 156.337 470.095 156.904Z" fill="#543E36"/>
<path d="M470.025 159.271C470.025 159.271 470.363 159.544 470.522 159.648" stroke="#091E42" stroke-width="0.108728" stroke-linecap="round" stroke-linejoin="round"/>
<path d="M470.195 159.852C470.141 159.85 470.098 159.744 470.1 159.616C470.102 159.488 470.148 159.386 470.202 159.388C470.256 159.391 470.299 159.497 470.297 159.625C470.295 159.753 470.25 159.855 470.195 159.852Z" fill="#091E42"/>
<path d="M470.21 158.602C470.495 158.62 470.767 158.728 470.985 158.912" stroke="#091E42" stroke-width="0.217456" stroke-linecap="round" stroke-linejoin="round"/>
<path d="M470.044 156.961C470.044 156.961 470.605 156.169 472.114 155.843C472.114 155.843 471.946 155.509 472.788 155.177C472.788 155.177 472.965 153.774 474.807 153.986C476.65 154.198 479.582 158.957 475.994 160.004C475.994 160.004 476.293 161.198 474.963 161.837C474.746 161.943 474.645 162.27 474.641 162.544C474.641 162.544 473.156 162.014 473.56 160.804C473.965 159.594 473.113 158.826 472.483 160.163C472.483 160.17 472.244 157.793 470.044 156.961Z" fill="#172B4D"/>
<path d="M466.854 173.258C466.854 173.258 466.854 170.336 467.546 169.545C468.901 167.4 470.256 166.271 471.541 164.909C471.086 164.609 469.81 164.082 470.063 163.606C470.316 163.129 472.416 162.546 474.097 162.122C475.779 161.698 475.413 162.009 475.323 162.878C475.233 163.747 477.785 165.704 478.149 165.944C479.758 166.965 484.916 172.631 484.881 173.804C484.845 174.977 484.156 176.818 477.849 178.156L476.907 176.92C476.582 177.199 476.309 177.406 476.212 177.637C475.858 178.481 476.348 182.512 476.348 182.512C471.932 184.948 466.81 183.328 465.75 182.512C464.69 181.696 466.854 173.258 466.854 173.258ZM478.511 173.082C478.533 173.576 478.493 174.072 478.393 174.557C478.721 174.278 479.076 173.979 479.453 173.673C479.125 173.5 478.809 173.305 478.506 173.091L478.511 173.082Z" fill="url(#paint9_linear)"/>
<mask id="mask3" mask-type="alpha" maskUnits="userSpaceOnUse" x="465" y="161" width="20" height="23">
<path d="M466.854 173.258C466.854 173.258 467.02 170.982 467.659 169.376C468.901 167.456 470.256 166.215 471.541 164.909C471.086 164.609 469.81 164.082 470.063 163.605C470.316 163.129 472.416 162.546 474.097 162.122C475.779 161.698 475.413 162.009 475.323 162.878C475.233 163.747 477.785 165.704 478.149 165.944C479.758 166.965 484.916 172.631 484.881 173.804C484.845 174.977 484.156 176.817 477.849 178.156L476.907 176.92C476.582 177.199 476.309 177.406 476.212 177.637C475.858 178.481 476.348 182.512 476.348 182.512C471.932 184.948 466.81 183.328 465.75 182.512C464.69 181.696 466.854 173.258 466.854 173.258ZM478.511 173.082C478.533 173.576 478.493 174.072 478.393 174.557C478.721 174.277 479.076 173.979 479.453 173.673C479.125 173.5 478.809 173.305 478.506 173.09L478.511 173.082Z" fill="url(#paint10_linear)"/>
</mask>
<g mask="url(#mask3)">
<path d="M479.754 176.732C480.004 177.215 480.286 177.681 480.596 178.129C481.004 178.719 481.939 178.198 481.571 177.558C481.165 176.852 480.617 176.195 480.335 175.428C480.191 175.07 480.145 174.679 480.204 174.298C480.358 173.558 480.844 173.658 481.356 173.944C482.642 174.651 483.652 175.769 484.359 177.03C484.745 177.712 485.772 177.104 485.406 176.417C485.038 175.737 484.583 175.107 484.051 174.545C483.069 173.187 481.538 171.895 480.031 172.621C479.038 173.097 478.881 174.017 479.088 175.001C479.197 175.615 479.423 176.203 479.754 176.732ZM481.156 175.061C481.174 175.002 481.208 174.95 481.255 174.911C481.302 174.872 481.359 174.847 481.419 174.839C481.48 174.831 481.541 174.841 481.597 174.867C481.652 174.893 481.698 174.935 481.73 174.986C481.868 175.186 481.993 175.389 482.106 175.594C482.253 175.815 482.407 176.029 482.58 176.248C482.898 176.65 483.267 177.154 483.004 177.661C482.969 177.72 482.921 177.77 482.863 177.808C482.806 177.846 482.741 177.87 482.673 177.879C482.604 177.888 482.535 177.881 482.47 177.858C482.405 177.836 482.346 177.799 482.297 177.751C482.094 177.574 482.068 177.325 481.956 177.088C481.835 176.857 481.7 176.634 481.552 176.419C481.296 176.023 481.024 175.555 481.149 175.061H481.156ZM475.681 175.463C475.744 175.213 475.899 174.996 476.115 174.856C476.774 174.472 477.705 175.14 478.152 175.61C478.777 176.269 479.035 177.106 479.102 177.977C479.192 178.407 479.231 178.846 479.217 179.286C479.196 179.96 478.187 179.962 478.168 179.286C478.155 178.529 477.967 177.785 477.618 177.113C477.486 176.871 477.265 176.468 477.05 176.302C476.753 176.071 476.536 176.115 476.401 176.281C476.401 176.313 476.401 176.347 476.401 176.382C476.471 177.154 476.704 177.903 477.087 178.577C477.318 179.017 477.632 179.432 477.816 179.893C478.058 180.215 478.289 180.529 478.477 180.833C478.851 181.441 477.934 181.947 477.534 181.384C476.64 180.133 474.216 177.06 475.674 175.463H475.681ZM477.367 168.296C479.101 168.171 480.831 168.577 482.329 169.458C482.65 169.647 482.437 170.232 482.064 170.083C480.708 169.543 479.272 169.184 477.802 169.285C477.509 169.304 476.781 169.295 476.643 169.592C476.345 170.24 477.3 170.2 477.564 170.221C478.373 170.283 479.183 170.329 479.992 170.398C482.135 170.555 485.507 170.864 486.351 173.298C486.554 173.888 485.763 174.259 485.355 173.877C484.682 173.243 484.17 172.644 483.286 172.298C482.343 171.931 481.322 171.828 480.323 171.744C479.323 171.659 478.309 171.623 477.32 171.487C476.691 171.401 476.046 171.214 475.665 170.666C474.766 169.378 476.212 168.388 477.367 168.296ZM465.533 164.979C466.671 164.684 467.708 164.927 468.789 165.318C469.87 165.708 471.072 166.287 472.219 165.736C473.303 165.215 474.102 164.231 475.161 163.668C476.37 163.047 477.702 162.705 479.06 162.666C479.752 162.636 479.775 163.574 479.212 163.795C477.86 164.325 476.398 164.594 475.188 165.436C474.285 166.067 473.512 166.886 472.45 167.255C471.426 167.609 470.368 167.432 469.368 167.079C468.601 166.814 467.778 166.39 466.953 166.289C468.418 168.222 470.986 169.023 473.294 167.768C474.455 167.137 475.161 166.031 476.557 165.86C477.086 165.799 477.622 165.858 478.125 166.034C478.628 166.21 479.085 166.498 479.461 166.876C479.824 167.229 479.284 167.759 478.906 167.43C478.592 167.153 478.218 166.953 477.813 166.847C477.408 166.741 476.984 166.731 476.574 166.819C475.737 166.996 475.232 167.64 474.61 168.169C473.641 169 472.44 169.516 471.17 169.647C468.52 169.924 466.03 168.285 465.028 165.869C464.88 165.51 465.191 165.067 465.533 164.979ZM467.667 162.264C468.995 162.599 470.09 163.343 471.512 163.403C472.803 163.458 474.087 162.99 474.928 161.99C475.131 161.75 475.499 162.078 475.343 162.331C473.697 165.017 469.421 164.963 467.213 162.997C466.847 162.677 467.271 162.163 467.667 162.264ZM462.93 178.146C463.85 179.015 464.856 179.789 465.932 180.455C466.409 180.75 466.9 181.024 467.404 181.271C467.603 181.37 468.091 181.645 468.147 181.555C468.186 181.494 467.932 181.002 467.888 180.909C467.308 179.69 464.853 177.661 466.664 176.299C468.204 175.14 470.396 177.32 471.396 178.311C473.153 180.054 474.919 181.64 477.108 182.831C477.473 183.034 477.152 183.564 476.785 183.387C474.724 182.404 472.83 181.102 471.175 179.529C470.336 178.735 469.495 177.887 468.437 177.387C468.114 177.233 467.451 176.903 467.264 177.532C467.199 177.751 467.478 178.081 467.595 178.229C467.916 178.632 468.301 178.98 468.598 179.399C469.099 180.089 469.695 181.105 469.564 181.993C469.423 182.954 468.494 183.205 467.678 182.93C465.544 182.204 463.536 180.693 461.893 179.188C461.195 178.546 462.241 177.498 462.93 178.146ZM470.656 181.14C470.729 181.125 470.803 181.119 470.878 181.123C471.017 181.105 471.157 181.112 471.293 181.146C471.97 181.294 472.604 182.214 473.111 182.645C473.914 183.33 474.806 183.901 475.584 184.611C476.057 185.04 475.455 185.662 474.948 185.436C473.844 184.943 472.906 184.109 472.03 183.292C471.809 183.085 471.592 182.873 471.381 182.658L471.351 182.626C471.602 183.127 471.676 184.051 471.798 184.602C471.975 185.367 470.814 185.692 470.62 184.927C470.412 184.078 469.043 181.472 470.656 181.14ZM462.209 173.369C464.104 172.92 466.192 172.819 468.105 173.234C469.01 173.438 469.874 173.797 470.657 174.294C471.472 174.797 473.233 176.029 473.86 174.635C474.487 173.241 472.591 172.869 471.659 172.676C470.537 172.447 469.405 172.258 468.303 171.92C466.595 171.39 465.037 170.449 464.117 168.882C463.892 168.501 464.458 168.025 464.749 168.393C466.392 170.454 469.046 170.945 471.493 171.41C472.535 171.609 473.778 171.719 474.538 172.551C474.847 172.89 475.051 173.311 475.125 173.763C475.199 174.215 475.141 174.68 474.956 175.099C474.767 175.516 474.458 175.868 474.07 176.111C473.682 176.354 473.231 176.478 472.773 176.467C471.625 176.458 470.717 175.76 469.771 175.22C467.437 173.891 464.892 174.483 462.364 174.529C461.707 174.536 461.561 173.519 462.209 173.363V173.369Z" fill="url(#paint11_linear)"/>
</g>
<ellipse opacity="0.5" cx="471.17" cy="160.908" rx="1.1855" ry="1.1855" fill="url(#paint12_radial)"/>
</g>
<rect opacity="0.6" x="160.667" y="129.333" width="256.667" height="8.66667" rx="0.666667" fill="#FFEBE6"/>
<rect opacity="0.6" x="160.667" y="142" width="158" height="8.66667" rx="0.666667" fill="#FFEBE6"/>
<g opacity="0.6">
<g filter="url(#filter2_d)">
<rect x="-205.333" y="231.333" width="336" height="30" rx="2.66667" fill="url(#paint13_linear)"/>
</g>
<mask id="mask4" mask-type="alpha" maskUnits="userSpaceOnUse" x="108" y="236" width="19" height="20">
<circle cx="117.333" cy="246" r="9.33333" fill="url(#paint14_linear)"/>
</mask>
<g mask="url(#mask4)">
<circle cx="117.333" cy="246" r="9.33333" fill="url(#paint15_linear)"/>
<path d="M115.975 248.221C115.975 248.221 113.66 249.124 112.588 250.705C112.588 250.705 111.894 251.845 111.854 252.455C111.124 263.52 110.472 269.817 111.101 270.113C111.463 270.283 116.897 271.089 120.903 268.223C120.903 268.223 121.141 265.231 120.993 262.721C120.846 260.211 124.455 253.988 122.394 250.366C121.528 248.835 120.615 248.062 118.872 247.882L115.975 248.221Z" fill="url(#paint16_linear)"/>
<path d="M113.123 254.216C114.334 254.216 114.337 256.099 113.123 256.099C111.909 256.099 111.909 254.216 113.123 254.216Z" fill="url(#paint17_linear)"/>
<path d="M111.885 254.31C111.831 254.309 111.776 254.305 111.722 254.296C111.764 253.689 111.806 253.066 111.847 252.429H111.885C113.096 252.427 113.096 254.31 111.885 254.31Z" fill="url(#paint18_linear)"/>
<path d="M121.415 253.678C120.203 253.678 120.201 251.794 121.415 251.794C122.628 251.794 122.628 253.678 121.415 253.678Z" fill="url(#paint19_linear)"/>
<path d="M114.07 253.336C112.859 253.336 112.856 251.452 114.07 251.452C115.284 251.452 115.284 253.336 114.07 253.336Z" fill="url(#paint20_linear)"/>
<path d="M119.993 251.335C118.782 251.335 118.779 249.452 119.993 249.452C121.207 249.452 121.207 251.335 119.993 251.335Z" fill="url(#paint21_linear)"/>
<path d="M122.937 254.452C122.854 255.06 122.739 255.663 122.592 256.259H122.547C121.336 256.259 121.333 254.375 122.547 254.375C122.681 254.374 122.813 254.4 122.937 254.452V254.452Z" fill="url(#paint22_linear)"/>
<path d="M118.467 254.573C117.255 254.573 117.253 252.69 118.467 252.69C119.68 252.69 119.68 254.573 118.467 254.573Z" fill="url(#paint23_linear)"/>
<path d="M117.361 250.4C118.573 250.4 118.575 252.283 117.361 252.283C116.148 252.283 116.144 250.4 117.361 250.4Z" fill="url(#paint24_linear)"/>
<path d="M115.966 255.363C114.754 255.363 114.752 253.48 115.966 253.48C117.18 253.48 117.18 255.363 115.966 255.363Z" fill="url(#paint25_linear)"/>
<path d="M119.948 248.108C119.948 248.108 119.321 246.796 119.096 246.355C118.87 245.913 119.013 244.964 119.956 243.758C120.899 242.552 120.822 239.996 118.854 239.032C116.886 238.067 114.067 239.596 113.991 241.485C113.991 241.485 114.177 242.131 113.915 242.694C113.654 243.258 113.341 243.597 113.494 243.783C113.648 243.968 113.833 243.963 113.816 244.121C113.799 244.279 113.609 244.433 113.752 244.582L113.865 244.685C113.865 244.685 113.617 244.852 113.739 245.023C113.739 245.023 113.937 245.066 113.918 245.214C113.899 245.362 113.736 245.737 113.991 246.012C114.246 246.288 114.688 246.195 114.969 246.202C115.25 246.209 115.512 246.302 115.551 246.622C115.534 246.745 115.547 246.87 115.589 246.986C115.632 247.103 115.703 247.207 115.795 247.289C116.118 247.59 116.171 249.271 116.171 249.271C116.171 249.271 118.837 248.096 119.948 248.108Z" fill="#F0D0B4"/>
<path d="M114.733 239.545C115.015 239.093 115.782 238.788 116.162 238.651C118.741 237.659 121.405 239.963 120.867 242.676C120.803 243.049 120.644 243.398 120.406 243.692C119.92 244.268 119.345 245.012 119.232 245.428C119.232 245.428 118.185 244.768 118.295 243.282C118.406 241.797 117.179 241.749 116.532 243.077L115.946 243.098C115.946 243.098 116.302 241.54 115.946 241.255C115.589 240.969 114.239 240.335 114.733 239.545Z" fill="#172B4D"/>
<path d="M114.293 242.086C114.293 242.086 114.589 242.404 114.733 242.528" stroke="#091E42" stroke-width="0.108728" stroke-linecap="round" stroke-linejoin="round"/>
<path d="M114.421 242.667C114.367 242.665 114.324 242.559 114.326 242.431C114.328 242.303 114.373 242.201 114.428 242.204C114.482 242.206 114.525 242.312 114.523 242.44C114.521 242.568 114.476 242.67 114.421 242.667Z" fill="#091E42"/>
<path d="M114.341 241.513C114.624 241.552 114.887 241.68 115.091 241.88" stroke="#091E42" stroke-width="0.217456" stroke-linecap="round" stroke-linejoin="round"/>
<path d="M119.959 247.703C119.379 247.549 118.655 247.944 118.076 248.125C117.858 248.193 117.632 248.268 117.407 248.351C116.991 248.515 116.588 248.71 116.202 248.934L116.045 248.057C116.045 248.057 115.319 250.012 115.742 250.14C115.795 250.148 115.849 250.143 115.899 250.125C115.949 250.108 115.995 250.079 116.031 250.04C117.227 249.043 120.298 248.394 120.351 248.258C120.348 248.257 120.125 247.747 119.959 247.703Z" fill="url(#paint26_linear)"/>
<path d="M113.722 244.026C113.722 244.026 114.312 243.897 114.618 244.332C114.77 244.55 114.894 244.603 114.974 244.615C114.977 244.615 114.981 244.617 114.984 244.62C114.987 244.623 114.988 244.626 114.989 244.63C114.99 244.634 114.989 244.638 114.987 244.642C114.986 244.645 114.983 244.648 114.98 244.65C114.821 244.741 114.426 244.927 114.155 244.69C113.808 244.386 113.728 244.543 113.728 244.543C113.728 244.543 113.381 244.21 113.722 244.026Z" fill="#172B4D"/>
<path d="M120.351 240.092C120.351 240.092 121.894 239.017 122.287 240.512C122.591 241.672 122.198 242.754 120.629 242.036L120.351 240.092Z" fill="#172B4D"/>
</g>
<mask id="mask5" mask-type="alpha" maskUnits="userSpaceOnUse" x="82" y="236" width="20" height="20">
<circle cx="92" cy="246" r="9.33333" fill="url(#paint27_linear)"/>
</mask>
<g mask="url(#mask5)">
<g filter="url(#filter3_dd)">
<circle cx="92" cy="246" r="9.33333" fill="url(#paint28_linear)"/>
</g>
<path d="M88.7614 240.904C88.7614 240.904 87.9843 241.844 88.1203 242.904C88.2015 243.539 87.6946 244.016 87.5445 244.417C87.4597 244.64 87.6045 244.866 88.0461 244.93C87.969 245.077 87.8612 245.206 87.7299 245.308C87.7299 245.308 87.5816 245.705 87.9419 245.71C87.9419 245.71 87.7105 245.783 87.7017 245.975C87.7017 245.975 87.6646 246.233 87.979 246.249C88.2934 246.265 87.8235 246.83 88.3693 247.298C88.7667 247.637 89.6057 247.427 89.9025 247.236C90.2 247.922 90.4416 248.631 90.6249 249.356C90.6249 249.356 93.2743 249.971 93.9014 248.296C93.9014 248.296 93.2143 247.558 93.315 246.12C93.315 246.12 94.6839 244.142 94.7669 242.981C94.8499 241.821 93.9385 239.979 92.3188 239.802C90.6991 239.625 89.0087 240.337 88.7614 240.904Z" fill="#543E36"/>
<path d="M88.6915 243.271C88.6915 243.271 89.0296 243.544 89.1889 243.648" stroke="#091E42" stroke-width="0.108728" stroke-linecap="round" stroke-linejoin="round"/>
<path d="M88.862 243.852C88.8076 243.85 88.765 243.744 88.7669 243.616C88.7687 243.488 88.8143 243.386 88.8686 243.388C88.923 243.391 88.9655 243.497 88.9637 243.625C88.9619 243.753 88.9163 243.855 88.862 243.852Z" fill="#091E42"/>
<path d="M88.8764 242.602C89.1616 242.62 89.4335 242.728 89.6521 242.912" stroke="#091E42" stroke-width="0.217456" stroke-linecap="round" stroke-linejoin="round"/>
<path d="M88.7103 240.961C88.7103 240.961 89.2719 240.169 90.7804 239.843C90.7804 239.843 90.6126 239.509 91.4551 239.177C91.4551 239.177 91.6317 237.774 93.474 237.986C95.3162 238.198 98.2483 242.957 94.6609 244.004C94.6609 244.004 94.9594 245.198 93.6294 245.837C93.4122 245.943 93.3115 246.27 93.3079 246.544C93.3079 246.544 91.8225 246.014 92.227 244.804C92.6315 243.594 91.7801 242.826 91.1495 244.163C91.1495 244.17 90.9111 241.793 88.7103 240.961Z" fill="#172B4D"/>
<path d="M85.5203 257.258C85.5203 257.258 85.5203 254.336 86.2127 253.545C87.5676 251.4 88.9224 250.271 90.2081 248.909C89.7524 248.609 88.4771 248.082 88.7297 247.606C88.9822 247.129 91.0824 246.546 92.7639 246.122C94.4454 245.698 94.0798 246.009 93.9897 246.878C93.8996 247.747 96.4519 249.704 96.8158 249.944C98.4249 250.965 103.583 256.631 103.547 257.804C103.512 258.977 102.823 260.818 96.5155 262.156L95.5741 260.92C95.2491 261.199 94.9753 261.406 94.8782 261.637C94.5249 262.481 95.0142 266.512 95.0142 266.512C90.5984 268.948 85.4761 267.328 84.4164 266.512C83.3566 265.696 85.5203 257.258 85.5203 257.258ZM97.1779 257.082C97.1993 257.576 97.1596 258.072 97.0596 258.557C97.3881 258.278 97.7431 257.979 98.1193 257.673C97.7915 257.5 97.4753 257.305 97.1726 257.091L97.1779 257.082Z" fill="url(#paint29_linear)"/>
<mask id="mask6" mask-type="alpha" maskUnits="userSpaceOnUse" x="84" y="245" width="20" height="23">
<path d="M85.5203 257.258C85.5203 257.258 85.6866 254.982 86.3256 253.376C87.5676 251.456 88.9224 250.215 90.2081 248.909C89.7524 248.609 88.4771 248.082 88.7297 247.605C88.9822 247.129 91.0824 246.546 92.7639 246.122C94.4454 245.698 94.0798 246.009 93.9897 246.878C93.8996 247.747 96.4519 249.704 96.8158 249.944C98.4249 250.965 103.583 256.631 103.547 257.804C103.512 258.977 102.823 260.817 96.5155 262.156L95.5741 260.92C95.2491 261.199 94.9753 261.406 94.8782 261.637C94.5249 262.481 95.0142 266.512 95.0142 266.512C90.5984 268.948 85.4761 267.328 84.4164 266.512C83.3566 265.696 85.5203 257.258 85.5203 257.258ZM97.1779 257.082C97.1993 257.576 97.1596 258.072 97.0596 258.557C97.3881 258.277 97.7431 257.979 98.1193 257.673C97.7915 257.5 97.4753 257.305 97.1726 257.09L97.1779 257.082Z" fill="url(#paint30_linear)"/>
</mask>
<g mask="url(#mask6)">
<path d="M98.4205 260.732C98.6712 261.215 98.9526 261.681 99.263 262.129C99.671 262.719 100.605 262.198 100.238 261.558C99.8318 260.852 99.2842 260.195 99.0016 259.428C98.8574 259.07 98.8122 258.679 98.8709 258.298C99.0246 257.558 99.5103 257.658 100.023 257.944C101.308 258.651 102.319 259.769 103.025 261.03C103.412 261.712 104.438 261.104 104.073 260.417C103.705 259.737 103.249 259.107 102.718 258.545C101.736 257.187 100.204 255.895 98.6978 256.621C97.7052 257.097 97.5479 258.017 97.7546 259.001C97.8633 259.615 98.0893 260.203 98.4205 260.732ZM99.8229 259.061C99.8409 259.002 99.8752 258.95 99.9219 258.911C99.9686 258.872 100.026 258.847 100.086 258.839C100.147 258.831 100.208 258.841 100.263 258.867C100.318 258.893 100.365 258.935 100.397 258.986C100.535 259.186 100.66 259.389 100.773 259.594C100.92 259.815 101.073 260.029 101.247 260.248C101.565 260.65 101.934 261.154 101.671 261.661C101.636 261.72 101.588 261.77 101.53 261.808C101.473 261.846 101.408 261.87 101.339 261.879C101.271 261.888 101.202 261.881 101.137 261.858C101.072 261.836 101.013 261.799 100.964 261.751C100.761 261.574 100.734 261.325 100.623 261.088C100.502 260.857 100.367 260.634 100.219 260.419C99.9625 260.023 99.6905 259.555 99.8159 259.061H99.8229ZM94.3474 259.463C94.4103 259.213 94.5655 258.996 94.7819 258.856C95.4407 258.472 96.3716 259.14 96.8185 259.61C97.4437 260.269 97.7016 261.106 97.7687 261.977C97.8588 262.407 97.8973 262.846 97.8835 263.286C97.8624 263.96 96.8538 263.962 96.8344 263.286C96.8215 262.529 96.6335 261.785 96.285 261.113C96.1526 260.871 95.9318 260.468 95.7163 260.302C95.4196 260.071 95.2023 260.115 95.0681 260.281C95.0681 260.313 95.0681 260.347 95.0681 260.382C95.1373 261.154 95.371 261.903 95.7534 262.577C95.9848 263.017 96.2992 263.432 96.4829 263.893C96.7249 264.215 96.9562 264.529 97.1435 264.833C97.5179 265.441 96.6012 265.947 96.2003 265.384C95.3065 264.133 92.8831 261.06 94.3403 259.463H94.3474ZM96.0342 252.296C97.7676 252.171 99.4979 252.577 100.996 253.458C101.317 253.647 101.104 254.232 100.731 254.083C99.3743 253.543 97.9383 253.184 96.4687 253.285C96.1755 253.304 95.4478 253.295 95.31 253.592C95.0115 254.24 95.9671 254.2 96.2303 254.221C97.0393 254.283 97.85 254.329 98.659 254.398C100.801 254.555 104.173 254.864 105.018 257.298C105.221 257.888 104.429 258.259 104.021 257.877C103.348 257.243 102.836 256.644 101.953 256.298C101.01 255.931 99.989 255.828 98.9893 255.744C97.9895 255.659 96.9757 255.623 95.9865 255.487C95.3577 255.401 94.713 255.214 94.3315 254.666C93.4325 253.378 94.8791 252.388 96.0342 252.296ZM84.2 248.979C85.3375 248.684 86.3743 248.927 87.4553 249.318C88.5363 249.708 89.7391 250.287 90.8855 249.736C91.97 249.215 92.7683 248.231 93.8281 247.668C95.0364 247.047 96.3685 246.705 97.7263 246.666C98.4187 246.636 98.4417 247.574 97.8782 247.795C96.527 248.325 95.0645 248.594 93.8546 249.436C92.952 250.067 92.1784 250.886 91.1168 251.255C90.0924 251.609 89.0344 251.432 88.0346 251.079C87.2681 250.814 86.445 250.39 85.6201 250.289C87.0844 252.222 89.6526 253.023 91.9611 251.768C93.1216 251.137 93.8281 250.031 95.2235 249.86C95.7528 249.799 96.2892 249.858 96.7921 250.034C97.2951 250.21 97.7516 250.498 98.1273 250.876C98.4912 251.229 97.9507 251.759 97.5727 251.43C97.2591 251.153 96.8847 250.953 96.4797 250.847C96.0747 250.741 95.6505 250.731 95.2412 250.819C94.4039 250.996 93.8988 251.64 93.277 252.169C92.3075 253 91.107 253.516 89.8363 253.647C87.1868 253.924 84.6963 252.285 83.6948 249.869C83.5465 249.51 83.8573 249.067 84.2 248.979ZM86.3337 246.264C87.6619 246.599 88.7571 247.343 90.1789 247.403C91.4701 247.458 92.7542 246.99 93.595 245.99C93.7981 245.75 94.1655 246.078 94.01 246.331C92.3638 249.017 88.0876 248.963 85.8798 246.997C85.5141 246.677 85.938 246.163 86.3337 246.264ZM81.5965 262.146C82.5168 263.015 83.5228 263.789 84.5992 264.455C85.0761 264.75 85.5671 265.024 86.0705 265.271C86.2701 265.37 86.7576 265.645 86.8141 265.555C86.853 265.494 86.5986 265.002 86.5545 264.909C85.9751 263.69 83.52 261.661 85.3304 260.299C86.8706 259.14 89.0626 261.32 90.0624 262.311C91.8198 264.054 93.5861 265.64 95.7746 266.831C96.1402 267.034 95.8187 267.564 95.4513 267.387C93.3903 266.404 91.4971 265.102 89.8416 263.529C89.0026 262.735 88.1618 261.887 87.1038 261.387C86.7806 261.233 86.1182 260.903 85.931 261.532C85.8656 261.751 86.1447 262.081 86.2613 262.229C86.5827 262.632 86.9678 262.98 87.2645 263.399C87.7662 264.089 88.3614 265.105 88.2307 265.993C88.0894 266.954 87.1603 267.205 86.3443 266.93C84.2106 266.204 82.2023 264.693 80.5596 263.188C79.862 262.546 80.9076 261.498 81.5965 262.146ZM89.3223 265.14C89.3954 265.125 89.4702 265.119 89.5448 265.123C89.6834 265.105 89.8241 265.112 89.9599 265.146C90.6364 265.294 91.2705 266.214 91.7774 266.645C92.5811 267.33 93.4731 267.901 94.2503 268.611C94.7236 269.04 94.1213 269.662 93.6144 269.436C92.5105 268.943 91.5725 268.109 90.6965 267.292C90.4757 267.085 90.2584 266.873 90.0482 266.658L90.0182 266.626C90.269 267.127 90.3432 268.051 90.4651 268.602C90.6417 269.367 89.4812 269.692 89.2869 268.927C89.0785 268.078 87.7096 265.472 89.3223 265.14ZM80.8758 257.369C82.7711 256.92 84.8588 256.819 86.7717 257.234C87.6771 257.438 88.5405 257.797 89.324 258.294C90.1383 258.797 91.8993 260.029 92.5263 258.635C93.1534 257.241 91.2581 256.869 90.3255 256.676C89.2039 256.447 88.0717 256.258 86.9696 255.92C85.2615 255.39 83.7037 254.449 82.7834 252.882C82.5591 252.501 83.1243 252.025 83.4158 252.393C85.0584 254.454 87.7132 254.945 90.1595 255.41C91.2016 255.609 92.4451 255.719 93.2046 256.551C93.5134 256.89 93.7173 257.311 93.7916 257.763C93.8659 258.215 93.8074 258.68 93.6232 259.099C93.4333 259.516 93.1252 259.868 92.737 260.111C92.3489 260.354 91.8979 260.478 91.4401 260.467C90.292 260.458 89.3841 259.76 88.4374 259.22C86.1041 257.891 83.5588 258.483 81.0312 258.529C80.3742 258.536 80.2276 257.519 80.8758 257.363V257.369Z" fill="url(#paint31_linear)"/>
</g>
<ellipse opacity="0.5" cx="89.8361" cy="244.908" rx="1.1855" ry="1.1855" fill="url(#paint32_radial)"/>
</g>
</g>
<g opacity="0.4">
<g filter="url(#filter4_d)">
<rect x="151.333" y="68.6666" width="161.333" height="30" rx="2.66667" fill="url(#paint33_linear)"/>
</g>
<mask id="mask7" mask-type="alpha" maskUnits="userSpaceOnUse" x="290" y="74" width="19" height="19">
<circle cx="299.333" cy="83.3333" r="9.33333" fill="url(#paint34_linear)"/>
</mask>
<g mask="url(#mask7)">
<circle cx="299.333" cy="83.3333" r="9.33333" fill="url(#paint35_linear)"/>
<path d="M297.495 84.9011C297.495 84.9011 294.843 85.5727 293.829 86.8088C292.814 88.0448 292.598 92.363 292.598 92.363L293.477 97.3107C293.477 97.3107 296.842 99.2676 303.263 97.6624L306.23 90.7208C306.23 90.7208 307.109 86.3253 301.351 84.6233L297.495 84.9011Z" fill="url(#paint36_linear)"/>
<mask id="mask8" mask-type="alpha" maskUnits="userSpaceOnUse" x="292" y="84" width="15" height="15">
<path d="M297.495 84.901C297.495 84.901 294.843 85.5726 293.829 86.8087C292.814 88.0447 292.598 92.3629 292.598 92.3629L293.477 97.3106C293.477 97.3106 296.842 99.2675 303.263 97.6622L306.23 90.7207C306.23 90.7207 307.109 86.3251 301.351 84.6232L297.495 84.901Z" fill="url(#paint37_linear)"/>
</mask>
<g mask="url(#mask8)">
<path d="M301.648 86.6769C299.961 86.6769 299.965 84.0607 301.648 84.0607C303.33 84.0607 303.332 86.6769 301.648 86.6769ZM297.829 85.5675C297.809 85.497 297.771 85.4328 297.72 85.3811L297.641 85.3143C297.576 85.2773 297.502 85.2579 297.428 85.258C297.371 85.2545 297.315 85.2667 297.264 85.2932C297.213 85.3112 297.166 85.3414 297.129 85.3811C297.053 85.4622 297.009 85.5686 297.006 85.68C297.006 85.7169 297.006 85.7538 297.02 85.7925C297.04 85.8628 297.078 85.9269 297.129 85.9789L297.215 86.044C297.279 86.0823 297.353 86.1024 297.428 86.102C297.485 86.104 297.541 86.0913 297.591 86.0651C297.643 86.0484 297.69 86.0187 297.727 85.9789C297.767 85.9411 297.797 85.894 297.815 85.8418C297.841 85.7919 297.853 85.7361 297.85 85.68C297.838 85.6431 297.834 85.6044 297.829 85.5675ZM296.492 89.3055C296.473 89.2347 296.436 89.1704 296.383 89.1191L296.299 89.0523C296.234 89.0148 296.16 88.9948 296.085 88.9943C296.028 88.9921 295.973 89.0048 295.923 89.0312C295.871 89.0477 295.824 89.0781 295.787 89.1191C295.747 89.1558 295.716 89.2025 295.7 89.2545C295.673 89.3049 295.661 89.3612 295.663 89.418L295.678 89.5288C295.697 89.6001 295.735 89.665 295.787 89.7169L295.872 89.782C295.936 89.8201 296.01 89.8401 296.085 89.84C296.141 89.842 296.198 89.8293 296.248 89.8031C296.3 89.7861 296.346 89.7565 296.383 89.7169C296.459 89.6348 296.503 89.5291 296.508 89.418L296.492 89.3055ZM302.405 87.4382C302.386 87.3676 302.348 87.3034 302.296 87.2519L302.212 87.1868C302.147 87.1485 302.073 87.1284 301.998 87.1288C301.941 87.1257 301.885 87.1385 301.836 87.1657C301.784 87.1838 301.737 87.2132 301.699 87.2519C301.66 87.2905 301.631 87.3374 301.612 87.389C301.586 87.4387 301.573 87.4945 301.576 87.5508L301.591 87.6633C301.61 87.7336 301.647 87.7978 301.699 87.8497C301.729 87.8708 301.757 87.8936 301.785 87.9165C301.85 87.9535 301.923 87.9729 301.998 87.9727C302.054 87.9763 302.111 87.9641 302.161 87.9376C302.213 87.92 302.259 87.8898 302.296 87.8497C302.337 87.8127 302.367 87.7661 302.384 87.7143C302.411 87.6639 302.423 87.6075 302.421 87.5508L302.405 87.4382ZM303.329 90.5292C303.31 90.4569 303.272 90.3908 303.219 90.3376L303.133 90.2708C303.067 90.2341 302.991 90.2159 302.915 90.218C302.859 90.216 302.802 90.2287 302.752 90.2549C302.7 90.2723 302.653 90.3026 302.616 90.3428C302.576 90.38 302.546 90.4265 302.529 90.4782C302.502 90.5285 302.49 90.585 302.493 90.6417C302.493 90.6787 302.502 90.7156 302.507 90.7525C302.527 90.8231 302.564 90.8874 302.616 90.9389C302.645 90.9617 302.673 90.9846 302.703 91.0057C302.767 91.044 302.84 91.0641 302.915 91.0637C303.026 91.0581 303.132 91.014 303.214 90.9389C303.255 90.9025 303.285 90.8556 303.3 90.8035C303.327 90.7538 303.34 90.698 303.337 90.6417C303.337 90.6031 303.332 90.5661 303.329 90.5292ZM303.765 89.2984C303.745 89.228 303.707 89.1638 303.656 89.1121L303.569 89.0453C303.505 89.0077 303.431 88.9877 303.357 88.9872C303.246 88.9928 303.14 89.037 303.058 89.1121C303.018 89.1488 302.988 89.1955 302.972 89.2475C302.945 89.2979 302.933 89.3542 302.935 89.411C302.935 89.4479 302.945 89.4848 302.949 89.5217C302.968 89.5927 303.006 89.6575 303.058 89.7099L303.144 89.7749C303.208 89.8133 303.282 89.8333 303.357 89.833C303.413 89.835 303.47 89.8223 303.52 89.796C303.571 89.7772 303.618 89.7475 303.656 89.7089C303.695 89.6704 303.725 89.6239 303.743 89.5727C303.77 89.5232 303.782 89.4671 303.779 89.411C303.773 89.3793 303.77 89.3424 303.765 89.3055V89.2984ZM295.988 86.1178L295.882 85.9771C295.794 85.8931 295.686 85.8327 295.568 85.8013L295.374 85.7662C295.251 85.7673 295.129 85.8006 295.023 85.8629L294.878 85.9736C294.794 86.0617 294.733 86.1701 294.703 86.2884C294.673 86.3798 294.668 86.4777 294.69 86.5714C294.694 86.6654 294.723 86.7567 294.775 86.8352C294.836 86.9409 294.924 87.0287 295.03 87.0901H295.049L295.211 87.1587C295.326 87.1897 295.447 87.1897 295.562 87.1587L295.722 87.0919H295.731C295.791 87.0673 295.844 87.028 295.884 86.9776C296.01 86.8394 296.083 86.6615 296.092 86.4747C296.09 86.3486 296.054 86.2253 295.988 86.1178V86.1178ZM295.262 88.5512C295.261 88.4488 295.233 88.3485 295.179 88.2611C295.152 88.165 295.101 88.0773 295.031 88.0061C294.981 87.9217 294.911 87.8506 294.827 87.7987C294.756 87.7287 294.669 87.6779 294.572 87.651C294.435 87.5784 294.28 87.5438 294.124 87.5508L293.818 87.593L293.542 87.709L293.308 87.8848L293.132 88.1169C293.094 88.2101 293.053 88.2927 293.015 88.393C292.967 88.5421 292.961 88.7011 292.995 88.8536C292.993 88.9575 293.018 89.0602 293.069 89.1508C293.115 89.2929 293.197 89.4207 293.307 89.5217L293.329 89.5446C293.427 89.6518 293.552 89.7318 293.69 89.7767C293.823 89.8466 293.972 89.88 294.122 89.8734L294.421 89.833C294.609 89.7814 294.78 89.682 294.917 89.5446L294.938 89.5217C294.998 89.4426 295.06 89.3653 295.114 89.2879L295.23 89.0119C295.281 88.8637 295.292 88.7049 295.262 88.5512V88.5512ZM297.816 86.5064C296.132 86.5064 296.13 89.1244 297.816 89.1244C299.503 89.1244 299.508 86.5064 297.816 86.5064ZM300.93 88.1081C299.248 88.1081 299.244 90.7261 300.93 90.7261C302.616 90.7261 302.623 88.1081 300.936 88.1081H300.93ZM295.278 94.6839C293.593 94.6839 293.591 97.3002 295.278 97.3002C296.964 97.3002 296.969 94.6839 295.283 94.6839H295.278ZM294.485 90.0668C292.8 90.0668 292.797 92.683 294.485 92.683C296.172 92.683 296.171 90.0668 294.485 90.0668ZM297.474 89.7556C295.791 89.7556 295.787 92.3718 297.474 92.3718C299.16 92.3718 299.153 89.7556 297.465 89.7556H297.474ZM300.099 95.3521C298.414 95.3521 298.411 97.9701 300.099 97.9701C301.787 97.9701 301.776 95.3521 300.09 95.3521H300.099ZM298.541 92.8905L298.523 92.8571C298.491 92.8038 298.446 92.7592 298.393 92.727C298.34 92.6959 298.279 92.679 298.217 92.6778C298.156 92.6792 298.095 92.6961 298.041 92.727C297.988 92.7592 297.944 92.8038 297.911 92.8571L297.894 92.8905C297.86 92.9495 297.843 93.0161 297.843 93.0839C297.839 93.1361 297.846 93.1884 297.864 93.2377C297.882 93.2869 297.909 93.3321 297.945 93.3703C297.98 93.4085 298.024 93.439 298.071 93.4598C298.119 93.4806 298.171 93.4914 298.223 93.4914C298.276 93.4914 298.327 93.4806 298.375 93.4598C298.423 93.439 298.467 93.4085 298.502 93.3703C298.538 93.3321 298.565 93.2869 298.583 93.2377C298.6 93.1884 298.608 93.1361 298.604 93.0839C298.597 93.016 298.572 92.9512 298.532 92.8958L298.541 92.8905ZM298.15 96.5547L298.133 96.5213C298.102 96.4671 298.057 96.4222 298.003 96.3912C297.949 96.3601 297.889 96.3431 297.827 96.3419C297.765 96.3434 297.705 96.3603 297.651 96.3912C297.598 96.4225 297.553 96.4674 297.523 96.5213L297.505 96.5547C297.47 96.6132 297.452 96.68 297.452 96.7481C297.452 96.8156 297.471 96.8818 297.505 96.9397C297.537 96.9946 297.582 97.0406 297.637 97.0735C297.691 97.1063 297.753 97.125 297.816 97.1279C297.917 97.1279 298.014 97.0879 298.086 97.0167C298.157 96.9456 298.198 96.849 298.198 96.7481C298.199 96.6806 298.183 96.614 298.15 96.5547V96.5547ZM297.141 97.1191L297.124 97.0857C297.092 97.032 297.047 96.9873 296.994 96.9556C296.94 96.9245 296.88 96.9075 296.818 96.9063C296.756 96.9078 296.695 96.9247 296.642 96.9556C296.589 96.9878 296.545 97.0325 296.514 97.0857L296.496 97.1191C296.461 97.1776 296.443 97.2444 296.443 97.3125C296.443 97.38 296.461 97.4462 296.496 97.5041C296.53 97.5614 296.578 97.6088 296.635 97.6418C296.693 97.6748 296.758 97.6921 296.825 97.6921C296.891 97.6921 296.956 97.6748 297.014 97.6418C297.072 97.6088 297.12 97.5614 297.154 97.5041C297.188 97.4462 297.207 97.38 297.206 97.3125C297.203 97.2433 297.18 97.1763 297.141 97.1191ZM302.092 92.247C301.857 92.2434 301.626 92.3042 301.423 92.4228C301.542 91.6984 301.129 90.8703 300.18 90.8703C298.495 90.8703 298.493 93.4866 300.18 93.4866C300.415 93.4906 300.646 93.4298 300.849 93.3107C300.73 94.0351 301.143 94.8633 302.092 94.8633C303.777 94.8633 303.78 92.247 302.092 92.247ZM304.185 85.2615C302.5 85.2615 302.499 87.8778 304.185 87.8778C305.871 87.8778 305.871 85.2615 304.185 85.2615ZM305.449 88.0237C303.765 88.0237 303.761 90.6417 305.449 90.6417C307.137 90.6417 307.135 88.0237 305.449 88.0237Z" fill="url(#paint38_linear)"/>
</g>
<path d="M295.599 79.1746C295.599 79.1746 294.796 76.5953 298.05 75.8357C298.806 75.6511 299.602 75.7434 300.296 76.0959C301.486 76.7184 302.915 78.2832 302.026 82.2005C302.026 82.2005 301.653 83.157 300.665 83.1166L300.751 81.5342C300.751 81.5342 297.817 78.1601 295.599 79.1746Z" fill="#253858"/>
<path d="M300.751 81.5464C300.751 81.5464 300.542 83.9042 301.345 84.6215C301.345 84.6215 300.927 86.4308 298.522 86.2532C298.362 86.2416 298.206 86.1961 298.065 86.1198C297.924 86.0434 297.801 85.938 297.704 85.8105C297.607 85.683 297.538 85.5362 297.502 85.3801C297.466 85.2239 297.759 85.109 297.79 84.9518C297.96 84.6131 297.847 84.2179 297.655 83.7319C297.708 82.7156 300.751 81.5464 300.751 81.5464Z" fill="#D99476"/>
<path d="M295.797 80.6784C294.776 79.1101 296.149 77.9584 296.149 77.9584C297.867 77.8055 300.768 80.2986 300.768 80.2986C300.768 80.2986 301.559 79.038 301.635 80.3901C301.67 80.7541 301.577 81.1189 301.371 81.4214C301.166 81.7239 300.861 81.945 300.509 82.0463C299.096 85.0177 297.339 84.6131 297 84.2743C296.661 83.9356 296.287 83.2627 295.959 82.6734C295.611 82.0463 295.674 81.346 295.797 80.6784Z" fill="#DD9C80"/>
<path d="M297.866 83.1026C297.858 83.1426 297.261 83.1071 297.17 83.075C297.078 83.0429 296.961 83.0165 296.861 83.099C296.739 83.0543 296.649 83.0695 296.649 83.0695C296.548 83.1058 296.459 83.2118 296.459 83.2118C296.459 83.2118 296.623 83.3687 296.674 83.3913C296.759 83.4289 296.823 83.5233 297.048 83.5058C297.273 83.4884 297.864 83.1353 297.866 83.1026Z" fill="#E28963"/>
<path d="M296.082 81.3184C296.028 81.3158 295.985 81.2098 295.987 81.0818C295.989 80.9537 296.035 80.852 296.089 80.8546C296.143 80.8571 296.186 80.9631 296.184 81.0912C296.182 81.2192 296.137 81.321 296.082 81.3184Z" fill="#091E42"/>
<path d="M297.882 80.1451C298.167 80.127 298.451 80.2009 298.69 80.3561" stroke="#091E42" stroke-width="0.217456" stroke-linecap="round" stroke-linejoin="round"/>
<path d="M295.648 80.4978C295.784 80.408 295.94 80.3614 296.094 80.3651" stroke="#091E42" stroke-width="0.217456" stroke-linecap="round" stroke-linejoin="round"/>
<ellipse opacity="0.5" cx="298.75" cy="82.1856" rx="1.1855" ry="1.1855" fill="url(#paint39_radial)"/>
<path d="M295.738 77.4286C295.321 78.2748 295.166 79.226 295.292 80.1609L296.612 79.9851C296.612 79.9851 296.222 79.1974 296.396 78.4589L297.011 79.9112C297.011 79.9112 299.079 79.7758 300.703 80.2435L298.571 78.1618L296.612 77.8664L295.738 77.4286Z" fill="#253858"/>
<path d="M296.827 80.9328C296.827 80.9328 296.487 80.8361 296.396 80.9557" stroke="white" stroke-width="0.129438" stroke-miterlimit="10" stroke-linecap="round"/>
<path d="M298.492 80.9117L300.702 80.2418" stroke="white" stroke-width="0.129438" stroke-miterlimit="10" stroke-linecap="round"/>
<path d="M297.676 81.8452C298.118 81.8452 298.476 81.4871 298.476 81.0452C298.476 80.6034 298.118 80.2452 297.676 80.2452C297.234 80.2452 296.876 80.6034 296.876 81.0452C296.876 81.4871 297.234 81.8452 297.676 81.8452Z" stroke="white" stroke-width="0.129438" stroke-miterlimit="10" stroke-linecap="round"/>
<path d="M295.905 81.9663C296.234 81.9154 296.452 81.5559 296.391 81.1634C296.33 80.7709 296.014 80.494 295.685 80.5449C295.356 80.5958 295.138 80.9553 295.199 81.3478C295.26 81.7403 295.576 82.0172 295.905 81.9663Z" stroke="white" stroke-width="0.129438" stroke-miterlimit="10" stroke-linecap="round"/>
<path d="M297.964 81.1299C297.91 81.1273 297.867 81.0214 297.869 80.8933C297.871 80.7652 297.916 80.6635 297.971 80.6661C298.025 80.6687 298.067 80.7746 298.066 80.9027C298.064 81.0308 298.018 81.1325 297.964 81.1299Z" fill="#091E42"/>
</g>
<rect opacity="0.6" x="160.667" y="79.3334" width="79.3333" height="8.66667" rx="0.666667" fill="#EAE6FF"/>
</g>
<rect x="642" y="361.333" width="644" height="69.3333" transform="rotate(-180 642 361.333)" fill="url(#paint40_linear)"/>
<rect x="648" y="-8" width="370.667" height="102" transform="rotate(90 648 -8)" fill="url(#paint41_linear)"/>
<rect x="-6" y="362.667" width="367.333" height="100" transform="rotate(-90 -6 362.667)" fill="url(#paint42_linear)"/>
<rect x="184" y="233.333" width="122" height="8.66667" rx="0.666667" fill="#FFEBE6"/>
<rect x="158.667" y="254.667" width="147.333" height="8.66667" rx="0.666667" fill="#FFEBE6"/>
<path fill-rule="evenodd" clip-rule="evenodd" d="M160.833 229.444C159.698 229.444 158.778 230.365 158.778 231.5V243.833C158.778 244.969 159.698 245.889 160.833 245.889H173.167C174.302 245.889 175.222 244.969 175.222 243.833V238.694C175.222 238.127 174.762 237.667 174.194 237.667C173.627 237.667 173.167 238.127 173.167 238.694V243.833H160.833V231.5L171.111 231.5C171.679 231.5 172.139 231.04 172.139 230.472C172.139 229.905 171.679 229.444 171.111 229.444H160.833ZM163.645 235.942C163.26 235.525 162.61 235.498 162.192 235.883C161.775 236.268 161.748 236.918 162.133 237.335L165.846 241.364C166.398 241.904 167.22 241.904 167.731 241.394L168.105 241.026C168.408 240.728 168.745 240.396 169.109 240.038C170.146 239.016 171.184 237.992 172.153 237.034L172.195 236.993C173.916 235.291 175.223 233.991 175.954 233.25C176.353 232.845 176.348 232.195 175.944 231.796C175.54 231.397 174.889 231.402 174.49 231.806C173.767 232.539 172.465 233.836 170.749 235.532L170.708 235.573C169.74 236.53 168.703 237.552 167.666 238.574L166.828 239.399L163.645 235.942Z" fill="#FFEBE6"/>
<rect x="158.667" y="274.667" width="118.667" height="8.66667" rx="0.666667" fill="#FFEBE6"/>
<rect x="327.333" y="231.333" width="160" height="52.6667" rx="2.66667" fill="url(#paint43_linear)"/>
<path d="M359.226 238H338.581C337.155 238 336 239.155 336 240.581C336 242.006 337.155 243.161 338.581 243.161H359.226C360.651 243.161 361.806 242.006 361.806 240.581C361.806 239.155 360.651 238 359.226 238Z" fill="#00C7E6"/>
<path d="M387.613 238H366.968C365.542 238 364.387 239.155 364.387 240.581C364.387 242.006 365.542 243.161 366.968 243.161H387.613C389.038 243.161 390.194 242.006 390.194 240.581C390.194 239.155 389.038 238 387.613 238Z" fill="#FFB0E1"/>
<mask id="mask9" mask-type="alpha" maskUnits="userSpaceOnUse" x="463" y="260" width="19" height="19">
<circle cx="472.667" cy="269.333" r="9.33333" fill="url(#paint44_linear)"/>
</mask>
<g mask="url(#mask9)">
<circle cx="472.667" cy="269.333" r="9.33333" fill="url(#paint45_linear)"/>
<path d="M473.73 275.647C473.588 275.647 473.474 275.532 473.474 275.39C473.474 275.249 473.588 275.134 473.73 275.134C473.871 275.134 473.986 275.249 473.986 275.39C473.986 275.532 473.871 275.647 473.73 275.647Z" fill="#B2D4FF"/>
<path d="M469.883 266.18C469.883 266.18 469.4 265.941 469.614 265.222C469.829 264.502 469.98 264.14 469.98 264.14C469.98 264.14 470.198 261.944 472.791 262.404C475.384 262.863 476.608 263.867 476.219 265.5C475.829 267.132 474.965 268.541 475.853 270.413C475.853 270.413 474.013 273.82 472.163 273.824C470.837 273.824 471.432 271.262 471.432 271.262C471.432 271.262 470.301 271.445 470.165 270.913C470.03 270.38 470.059 269.202 470.059 269.202L469.81 267.835C469.794 267.851 469.281 267.732 469.261 267.478C469.241 267.223 469.898 266.186 469.898 266.186" fill="#72594B"/>
<path d="M470.771 266.389C470.716 266.386 470.674 266.28 470.675 266.152C470.677 266.024 470.723 265.922 470.777 265.925C470.832 265.927 470.874 266.033 470.872 266.161C470.87 266.29 470.825 266.391 470.771 266.389Z" fill="#091E42"/>
<path d="M472.992 273.35C472.992 273.35 471.783 273.82 471.3 272.735L469.935 274.631L469.422 276.481L469.997 278.062L471.538 276.565L472.72 274.139L472.992 273.35Z" fill="url(#paint46_linear)"/>
<path d="M471.216 271.467C471.216 271.467 468.268 273.533 467.486 275.389C466.705 277.244 465.177 288.05 465.016 289.446C465.016 289.446 464.924 290.824 466.258 290.899C466.258 290.899 469.389 277.875 469.796 277.343C469.796 277.343 470.829 273.383 471.386 272.863L471.216 271.467Z" fill="url(#paint47_linear)"/>
<path d="M462.871 285.23L467.605 284.655L468.154 282.071L468.2 281.855C468.2 281.855 468.286 280.488 468.409 280.488C468.531 280.488 472.561 275.504 472.561 275.504L473.384 275.165L473.102 274.918L473.311 273.549L474.202 272.775L477.525 271.61C477.525 271.61 480.806 272.988 480.896 274.713C480.951 275.769 480.969 279.422 479.573 282.873C478.198 287.619 478.435 292.965 478.435 292.965C472.579 295.398 465.667 290.732 465.667 290.732L466.255 289.085L462.95 289.418C462.676 289.217 462.45 288.957 462.288 288.657C462.127 288.357 462.034 288.025 462.017 287.685C461.995 286.565 462.871 285.23 462.871 285.23Z" fill="url(#paint48_linear)"/>
<path d="M475.558 269.507C475.558 269.507 477.188 270.265 477.525 271.61C477.525 271.61 477.069 273.22 476.206 273.35L473.585 273.553C473.585 273.553 473.349 274.369 474.478 275.425C474.478 275.425 468.806 279.575 468.191 281.855C468.191 281.855 467.201 281.231 468.979 278.496C470.758 275.76 475.56 270.691 475.558 269.507Z" fill="url(#paint49_linear)"/>
<path d="M469.585 266.665L469.669 266.515C469.574 266.367 469.531 266.191 469.549 266.016C469.549 265.675 469.649 265.494 469.686 265.492C469.686 265.492 469.728 265.511 469.768 265.615C469.828 265.74 469.869 265.874 469.889 266.012H470.004C470.005 265.856 469.979 265.702 469.927 265.555C469.849 265.353 469.744 265.324 469.684 265.326C469.466 265.326 469.375 265.692 469.378 266.019C469.363 266.253 469.437 266.484 469.585 266.665Z" fill="#FFC400"/>
<path d="M469.985 266.127C469.981 265.718 470.117 265.385 470.289 265.383C470.461 265.382 470.603 265.712 470.607 266.122C470.611 266.531 470.475 266.864 470.303 266.866C470.131 266.867 469.989 266.537 469.985 266.127Z" stroke="#FFC400" stroke-width="0.226568" stroke-miterlimit="10"/>
<path d="M469.801 267.829C469.801 267.829 470.754 267.955 471.296 268.415C471.296 268.415 472.698 267.683 472.932 267.037C473.166 266.391 473.045 265.586 472.52 265.319C471.995 265.051 472.235 264.887 472.337 264.442C472.44 263.997 471.829 263.406 470.015 264.043C470.015 264.043 469.389 262.519 470.796 261.93C472.204 261.34 476.778 262.127 476.619 264.543C476.619 264.543 476.782 265.965 475.466 268.536C475.466 268.536 475.128 267.747 475.181 267.32C475.181 267.32 475.863 266.382 474.85 265.99C474.85 265.99 473.752 265.692 473.666 267.152C473.666 267.152 474.764 269.44 474.152 270.171C473.541 270.903 470.667 272.779 469.77 272.173C468.873 271.568 468.945 268.654 469.801 267.829Z" fill="#172B4D"/>
<path d="M474.143 266.1L470.57 265.893V265.725L474.509 265.972C474.38 265.99 474.256 266.034 474.143 266.1Z" fill="#FFC400"/>
<path d="M470.559 265.225C470.844 265.207 471.128 265.281 471.367 265.436" stroke="#091E42" stroke-width="0.217456" stroke-linecap="round" stroke-linejoin="round"/>
</g>
<rect opacity="0.6" x="336" y="248.667" width="92.6667" height="8.66667" rx="0.666667" fill="#DEEBFF"/>
</g>
<defs>
<filter id="filter0_d" x="144" y="106.667" width="352" height="80" filterUnits="userSpaceOnUse" color-interpolation-filters="sRGB">
<feFlood flood-opacity="0" result="BackgroundImageFix"/>
<feColorMatrix in="SourceAlpha" type="matrix" values="0 0 0 0 0 0 0 0 0 0 0 0 0 0 0 0 0 0 127 0"/>
<feOffset dy="2.66667"/>
<feGaussianBlur stdDeviation="4"/>
<feColorMatrix type="matrix" values="0 0 0 0 0.992157 0 0 0 0 0.607843 0 0 0 0 0.639216 0 0 0 1 0"/>
<feBlend mode="normal" in2="BackgroundImageFix" result="effect1_dropShadow"/>
<feBlend mode="normal" in="SourceGraphic" in2="effect1_dropShadow" result="shape"/>
</filter>
<filter id="filter1_dd" x="459.898" y="151.202" width="26.8698" height="26.8698" filterUnits="userSpaceOnUse" color-interpolation-filters="sRGB">
<feFlood flood-opacity="0" result="BackgroundImageFix"/>
<feColorMatrix in="SourceAlpha" type="matrix" values="0 0 0 0 0 0 0 0 0 0 0 0 0 0 0 0 0 0 127 0"/>
<feOffset/>
<feGaussianBlur stdDeviation="0.0732424"/>
<feColorMatrix type="matrix" values="0 0 0 0 0.0352941 0 0 0 0 0.117647 0 0 0 0 0.258824 0 0 0 0.31 0"/>
<feBlend mode="normal" in2="BackgroundImageFix" result="effect1_dropShadow"/>
<feColorMatrix in="SourceAlpha" type="matrix" values="0 0 0 0 0 0 0 0 0 0 0 0 0 0 0 0 0 0 127 0"/>
<feOffset dy="2.63672"/>
<feGaussianBlur stdDeviation="2.05079"/>
<feColorMatrix type="matrix" values="0 0 0 0 0.0352941 0 0 0 0 0.117647 0 0 0 0 0.258824 0 0 0 0.15 0"/>
<feBlend mode="normal" in2="effect1_dropShadow" result="effect2_dropShadow"/>
<feBlend mode="normal" in="SourceGraphic" in2="effect2_dropShadow" result="shape"/>
</filter>
<filter id="filter2_d" x="-205.333" y="231.333" width="336" height="31.3333" filterUnits="userSpaceOnUse" color-interpolation-filters="sRGB">
<feFlood flood-opacity="0" result="BackgroundImageFix"/>
<feColorMatrix in="SourceAlpha" type="matrix" values="0 0 0 0 0 0 0 0 0 0 0 0 0 0 0 0 0 0 127 0"/>
<feOffset dy="1.33333"/>
<feColorMatrix type="matrix" values="0 0 0 0 0.0352941 0 0 0 0 0.117647 0 0 0 0 0.258824 0 0 0 0.1 0"/>
<feBlend mode="normal" in2="BackgroundImageFix" result="effect1_dropShadow"/>
<feBlend mode="normal" in="SourceGraphic" in2="effect1_dropShadow" result="shape"/>
</filter>
<filter id="filter3_dd" x="78.5651" y="235.202" width="26.8698" height="26.8698" filterUnits="userSpaceOnUse" color-interpolation-filters="sRGB">
<feFlood flood-opacity="0" result="BackgroundImageFix"/>
<feColorMatrix in="SourceAlpha" type="matrix" values="0 0 0 0 0 0 0 0 0 0 0 0 0 0 0 0 0 0 127 0"/>
<feOffset/>
<feGaussianBlur stdDeviation="0.0732424"/>
<feColorMatrix type="matrix" values="0 0 0 0 0.0352941 0 0 0 0 0.117647 0 0 0 0 0.258824 0 0 0 0.31 0"/>
<feBlend mode="normal" in2="BackgroundImageFix" result="effect1_dropShadow"/>
<feColorMatrix in="SourceAlpha" type="matrix" values="0 0 0 0 0 0 0 0 0 0 0 0 0 0 0 0 0 0 127 0"/>
<feOffset dy="2.63672"/>
<feGaussianBlur stdDeviation="2.05079"/>
<feColorMatrix type="matrix" values="0 0 0 0 0.0352941 0 0 0 0 0.117647 0 0 0 0 0.258824 0 0 0 0.15 0"/>
<feBlend mode="normal" in2="effect1_dropShadow" result="effect2_dropShadow"/>
<feBlend mode="normal" in="SourceGraphic" in2="effect2_dropShadow" result="shape"/>
</filter>
<filter id="filter4_d" x="151.333" y="68.6666" width="161.333" height="31.3333" filterUnits="userSpaceOnUse" color-interpolation-filters="sRGB">
<feFlood flood-opacity="0" result="BackgroundImageFix"/>
<feColorMatrix in="SourceAlpha" type="matrix" values="0 0 0 0 0 0 0 0 0 0 0 0 0 0 0 0 0 0 127 0"/>
<feOffset dy="1.33333"/>
<feColorMatrix type="matrix" values="0 0 0 0 0.0352941 0 0 0 0 0.117647 0 0 0 0 0.258824 0 0 0 0.1 0"/>
<feBlend mode="normal" in2="BackgroundImageFix" result="effect1_dropShadow"/>
<feBlend mode="normal" in="SourceGraphic" in2="effect1_dropShadow" result="shape"/>
</filter>
<linearGradient id="paint0_linear" x1="426.4" y1="112" x2="417.184" y2="196.151" gradientUnits="userSpaceOnUse">
<stop stop-color="#FFE380"/>
<stop offset="1" stop-color="#ED50B4"/>
</linearGradient>
<linearGradient id="paint1_linear" x1="451.333" y1="171.333" x2="451.333" y2="152.667" gradientUnits="userSpaceOnUse">
<stop stop-color="#C0B6F2"/>
<stop offset="1" stop-color="#DEEBFF"/>
</linearGradient>
<linearGradient id="paint2_linear" x1="451.333" y1="171.333" x2="451.333" y2="152.667" gradientUnits="userSpaceOnUse">
<stop stop-color="#C0B6F2"/>
<stop offset="1" stop-color="#DEEBFF"/>
</linearGradient>
<linearGradient id="paint3_linear" x1="499.14" y1="164.436" x2="418.65" y2="174.077" gradientUnits="userSpaceOnUse">
<stop offset="0.35" stop-color="#FFC400"/>
<stop offset="0.9" stop-color="#FFF0B2"/>
</linearGradient>
<linearGradient id="paint4_linear" x1="499.14" y1="164.436" x2="418.65" y2="174.077" gradientUnits="userSpaceOnUse">
<stop offset="0.35" stop-color="#FFC400"/>
<stop offset="0.9" stop-color="#FFF0B2"/>
</linearGradient>
<linearGradient id="paint5_linear" x1="-1258.87" y1="-305.185" x2="3099.48" y2="2322.57" gradientUnits="userSpaceOnUse">
<stop offset="0.35" stop-color="#FFC400"/>
<stop offset="0.9" stop-color="#FFF0B2"/>
</linearGradient>
<radialGradient id="paint6_radial" cx="0" cy="0" r="1" gradientUnits="userSpaceOnUse" gradientTransform="translate(450.75 160.852) rotate(90) scale(1.1855)">
<stop stop-color="#FF7452"/>
<stop offset="1" stop-color="#FF7452" stop-opacity="0"/>
</radialGradient>
<linearGradient id="paint7_linear" x1="479.244" y1="152.667" x2="468.511" y2="171.333" gradientUnits="userSpaceOnUse">
<stop stop-color="#ED50B4"/>
<stop offset="1" stop-color="#5243AA"/>
</linearGradient>
<linearGradient id="paint8_linear" x1="473.333" y1="171.333" x2="473.333" y2="152.667" gradientUnits="userSpaceOnUse">
<stop stop-color="#C0B6F2"/>
<stop offset="1" stop-color="#FCC6EB"/>
</linearGradient>
<linearGradient id="paint9_linear" x1="412.473" y1="158.317" x2="493.906" y2="178.096" gradientUnits="userSpaceOnUse">
<stop stop-color="#36B37E"/>
<stop offset="0.42" stop-color="#1CB5AA"/>
<stop offset="0.79" stop-color="#08B7CC"/>
<stop offset="1" stop-color="#00B8D9"/>
</linearGradient>
<linearGradient id="paint10_linear" x1="412.473" y1="158.317" x2="493.906" y2="178.096" gradientUnits="userSpaceOnUse">
<stop stop-color="#36B37E"/>
<stop offset="0.42" stop-color="#1CB5AA"/>
<stop offset="0.79" stop-color="#08B7CC"/>
<stop offset="1" stop-color="#00B8D9"/>
</linearGradient>
<linearGradient id="paint11_linear" x1="519.466" y1="156.7" x2="434.146" y2="187.162" gradientUnits="userSpaceOnUse">
<stop stop-color="#008DA6"/>
<stop offset="1" stop-color="#79F2C0" stop-opacity="0.6"/>
</linearGradient>
<radialGradient id="paint12_radial" cx="0" cy="0" r="1" gradientUnits="userSpaceOnUse" gradientTransform="translate(471.17 160.908) rotate(90) scale(1.1855)">
<stop stop-color="#6C1962" stop-opacity="0.76"/>
<stop offset="1" stop-color="#870D77" stop-opacity="0"/>
</radialGradient>
<linearGradient id="paint13_linear" x1="-205.333" y1="246.333" x2="130.667" y2="246.333" gradientUnits="userSpaceOnUse">
<stop stop-color="#403294"/>
<stop offset="1" stop-color="#4C9AFF"/>
</linearGradient>
<linearGradient id="paint14_linear" x1="126.667" y1="246" x2="108" y2="246" gradientUnits="userSpaceOnUse">
<stop stop-color="white"/>
<stop offset="1" stop-color="#DFE1E6"/>
</linearGradient>
<linearGradient id="paint15_linear" x1="126.667" y1="246" x2="108" y2="246" gradientUnits="userSpaceOnUse">
<stop stop-color="white"/>
<stop offset="1" stop-color="#DFE1E6"/>
</linearGradient>
<linearGradient id="paint16_linear" x1="136.206" y1="261.96" x2="106.34" y2="257.328" gradientUnits="userSpaceOnUse">
<stop stop-color="#5243AA"/>
<stop offset="0.14" stop-color="#6044AB"/>
<stop offset="0.4" stop-color="#8547AD"/>
<stop offset="0.76" stop-color="#C04CB1"/>
<stop offset="1" stop-color="#ED50B4"/>
</linearGradient>
<linearGradient id="paint17_linear" x1="397.913" y1="726.574" x2="-83.7244" y2="542.562" gradientUnits="userSpaceOnUse">
<stop stop-color="#5243AA"/>
<stop offset="0.14" stop-color="#6044AB"/>
<stop offset="0.4" stop-color="#8547AD"/>
<stop offset="0.76" stop-color="#C04CB1"/>
<stop offset="1" stop-color="#ED50B4"/>
</linearGradient>
<linearGradient id="paint18_linear" x1="284.207" y1="705.279" x2="-25.0814" y2="635.626" gradientUnits="userSpaceOnUse">
<stop stop-color="#5243AA"/>
<stop offset="0.14" stop-color="#6044AB"/>
<stop offset="0.4" stop-color="#8547AD"/>
<stop offset="0.76" stop-color="#C04CB1"/>
<stop offset="1" stop-color="#ED50B4"/>
</linearGradient>
<linearGradient id="paint19_linear" x1="437.615" y1="641.91" x2="-44.0222" y2="457.917" gradientUnits="userSpaceOnUse">
<stop stop-color="#5243AA"/>
<stop offset="0.14" stop-color="#6044AB"/>
<stop offset="0.4" stop-color="#8547AD"/>
<stop offset="0.76" stop-color="#C04CB1"/>
<stop offset="1" stop-color="#ED50B4"/>
</linearGradient>
<linearGradient id="paint20_linear" x1="416.167" y1="678.518" x2="-65.4879" y2="494.525" gradientUnits="userSpaceOnUse">
<stop stop-color="#5243AA"/>
<stop offset="0.14" stop-color="#6044AB"/>
<stop offset="0.4" stop-color="#8547AD"/>
<stop offset="0.76" stop-color="#C04CB1"/>
<stop offset="1" stop-color="#ED50B4"/>
</linearGradient>
<linearGradient id="paint21_linear" x1="446.02" y1="613.88" x2="-35.6352" y2="429.887" gradientUnits="userSpaceOnUse">
<stop stop-color="#5243AA"/>
<stop offset="0.14" stop-color="#6044AB"/>
<stop offset="0.4" stop-color="#8547AD"/>
<stop offset="0.76" stop-color="#C04CB1"/>
<stop offset="1" stop-color="#ED50B4"/>
</linearGradient>
<linearGradient id="paint22_linear" x1="339.618" y1="675.278" x2="-27.1024" y2="575.284" gradientUnits="userSpaceOnUse">
<stop stop-color="#5243AA"/>
<stop offset="0.14" stop-color="#6044AB"/>
<stop offset="0.4" stop-color="#8547AD"/>
<stop offset="0.76" stop-color="#C04CB1"/>
<stop offset="1" stop-color="#ED50B4"/>
</linearGradient>
<linearGradient id="paint23_linear" x1="423.311" y1="672.543" x2="-58.3255" y2="488.549" gradientUnits="userSpaceOnUse">
<stop stop-color="#5243AA"/>
<stop offset="0.14" stop-color="#6044AB"/>
<stop offset="0.4" stop-color="#8547AD"/>
<stop offset="0.76" stop-color="#C04CB1"/>
<stop offset="1" stop-color="#ED50B4"/>
</linearGradient>
<linearGradient id="paint24_linear" x1="432.652" y1="643.51" x2="-49.2539" y2="459.293" gradientUnits="userSpaceOnUse">
<stop stop-color="#5243AA"/>
<stop offset="0.14" stop-color="#6044AB"/>
<stop offset="0.4" stop-color="#8547AD"/>
<stop offset="0.76" stop-color="#C04CB1"/>
<stop offset="1" stop-color="#ED50B4"/>
</linearGradient>
<linearGradient id="paint25_linear" x1="411.02" y1="698.982" x2="-70.6346" y2="514.989" gradientUnits="userSpaceOnUse">
<stop stop-color="#5243AA"/>
<stop offset="0.14" stop-color="#6044AB"/>
<stop offset="0.4" stop-color="#8547AD"/>
<stop offset="0.76" stop-color="#C04CB1"/>
<stop offset="1" stop-color="#ED50B4"/>
</linearGradient>
<linearGradient id="paint26_linear" x1="588.373" y1="624.963" x2="-63.5255" y2="165.806" gradientUnits="userSpaceOnUse">
<stop stop-color="#5243AA"/>
<stop offset="0.14" stop-color="#6044AB"/>
<stop offset="0.4" stop-color="#8547AD"/>
<stop offset="0.76" stop-color="#C04CB1"/>
<stop offset="1" stop-color="#ED50B4"/>
</linearGradient>
<linearGradient id="paint27_linear" x1="97.9111" y1="236.667" x2="87.1777" y2="255.333" gradientUnits="userSpaceOnUse">
<stop stop-color="#ED50B4"/>
<stop offset="1" stop-color="#5243AA"/>
</linearGradient>
<linearGradient id="paint28_linear" x1="92" y1="255.333" x2="92" y2="236.667" gradientUnits="userSpaceOnUse">
<stop stop-color="#C0B6F2"/>
<stop offset="1" stop-color="#FCC6EB"/>
</linearGradient>
<linearGradient id="paint29_linear" x1="31.1393" y1="242.317" x2="112.573" y2="262.096" gradientUnits="userSpaceOnUse">
<stop stop-color="#36B37E"/>
<stop offset="0.42" stop-color="#1CB5AA"/>
<stop offset="0.79" stop-color="#08B7CC"/>
<stop offset="1" stop-color="#00B8D9"/>
</linearGradient>
<linearGradient id="paint30_linear" x1="31.1393" y1="242.317" x2="112.573" y2="262.096" gradientUnits="userSpaceOnUse">
<stop stop-color="#36B37E"/>
<stop offset="0.42" stop-color="#1CB5AA"/>
<stop offset="0.79" stop-color="#08B7CC"/>
<stop offset="1" stop-color="#00B8D9"/>
</linearGradient>
<linearGradient id="paint31_linear" x1="138.132" y1="240.7" x2="52.8128" y2="271.162" gradientUnits="userSpaceOnUse">
<stop stop-color="#008DA6"/>
<stop offset="1" stop-color="#79F2C0" stop-opacity="0.6"/>
</linearGradient>
<radialGradient id="paint32_radial" cx="0" cy="0" r="1" gradientUnits="userSpaceOnUse" gradientTransform="translate(89.8361 244.908) rotate(90) scale(1.1855)">
<stop stop-color="#6C1962" stop-opacity="0.76"/>
<stop offset="1" stop-color="#870D77" stop-opacity="0"/>
</radialGradient>
<linearGradient id="paint33_linear" x1="151.333" y1="83.6666" x2="312.667" y2="83.6666" gradientUnits="userSpaceOnUse">
<stop stop-color="#C0B6F2"/>
<stop offset="1" stop-color="#FCC6EB"/>
</linearGradient>
<linearGradient id="paint34_linear" x1="299.333" y1="92.6667" x2="299.333" y2="74" gradientUnits="userSpaceOnUse">
<stop stop-color="#C0B6F2"/>
<stop offset="1" stop-color="#DEEBFF"/>
</linearGradient>
<linearGradient id="paint35_linear" x1="299.333" y1="92.6667" x2="299.333" y2="74" gradientUnits="userSpaceOnUse">
<stop stop-color="#C0B6F2"/>
<stop offset="1" stop-color="#DEEBFF"/>
</linearGradient>
<linearGradient id="paint36_linear" x1="347.14" y1="85.7697" x2="266.65" y2="95.4101" gradientUnits="userSpaceOnUse">
<stop offset="0.35" stop-color="#FFC400"/>
<stop offset="0.9" stop-color="#FFF0B2"/>
</linearGradient>
<linearGradient id="paint37_linear" x1="347.14" y1="85.7695" x2="266.65" y2="95.41" gradientUnits="userSpaceOnUse">
<stop offset="0.35" stop-color="#FFC400"/>
<stop offset="0.9" stop-color="#FFF0B2"/>
</linearGradient>
<linearGradient id="paint38_linear" x1="-1410.87" y1="-383.851" x2="2947.48" y2="2243.9" gradientUnits="userSpaceOnUse">
<stop offset="0.35" stop-color="#FFC400"/>
<stop offset="0.9" stop-color="#FFF0B2"/>
</linearGradient>
<radialGradient id="paint39_radial" cx="0" cy="0" r="1" gradientUnits="userSpaceOnUse" gradientTransform="translate(298.75 82.1856) rotate(90) scale(1.1855)">
<stop stop-color="#FF7452"/>
<stop offset="1" stop-color="#FF7452" stop-opacity="0"/>
</radialGradient>
<linearGradient id="paint40_linear" x1="964" y1="361.333" x2="964" y2="430.667" gradientUnits="userSpaceOnUse">
<stop offset="0.234375" stop-color="white"/>
<stop offset="1" stop-color="white" stop-opacity="0"/>
</linearGradient>
<linearGradient id="paint41_linear" x1="833.333" y1="-8" x2="833.333" y2="94" gradientUnits="userSpaceOnUse">
<stop offset="0.234375" stop-color="white"/>
<stop offset="1" stop-color="white" stop-opacity="0"/>
</linearGradient>
<linearGradient id="paint42_linear" x1="177.667" y1="362.667" x2="177.667" y2="462.667" gradientUnits="userSpaceOnUse">
<stop offset="0.234375" stop-color="white"/>
<stop offset="1" stop-color="white" stop-opacity="0"/>
</linearGradient>
<linearGradient id="paint43_linear" x1="407.333" y1="231.333" x2="407.333" y2="284" gradientUnits="userSpaceOnUse">
<stop stop-color="white"/>
<stop offset="1" stop-color="#DEEBFF"/>
</linearGradient>
<linearGradient id="paint44_linear" x1="478.578" y1="260" x2="467.844" y2="278.667" gradientUnits="userSpaceOnUse">
<stop stop-color="#FFE380"/>
<stop offset="1" stop-color="#ED50B4"/>
</linearGradient>
<linearGradient id="paint45_linear" x1="478.578" y1="260" x2="467.844" y2="278.667" gradientUnits="userSpaceOnUse">
<stop stop-color="#FFE380"/>
<stop offset="1" stop-color="#ED50B4"/>
</linearGradient>
<linearGradient id="paint46_linear" x1="248.789" y1="670.276" x2="318.442" y2="670.276" gradientUnits="userSpaceOnUse">
<stop offset="0.38" stop-color="#0065FF"/>
<stop offset="1" stop-color="#2684FF"/>
</linearGradient>
<linearGradient id="paint47_linear" x1="218.449" y1="3185.44" x2="-1183.15" y2="2484.46" gradientUnits="userSpaceOnUse">
<stop offset="0.08" stop-color="#FFC400"/>
<stop offset="0.13" stop-color="#FFC000"/>
<stop offset="0.7" stop-color="#FF9A00"/>
<stop offset="1" stop-color="#FF8B00"/>
</linearGradient>
<linearGradient id="paint48_linear" x1="-1937.21" y1="3860.87" x2="1479.06" y2="2516.48" gradientUnits="userSpaceOnUse">
<stop offset="0.08" stop-color="#FFC400"/>
<stop offset="0.13" stop-color="#FFC000"/>
<stop offset="0.7" stop-color="#FF9A00"/>
<stop offset="1" stop-color="#FF8B00"/>
</linearGradient>
<linearGradient id="paint49_linear" x1="299.566" y1="1210.06" x2="-205.003" y2="1210.06" gradientUnits="userSpaceOnUse">
<stop offset="0.08" stop-color="#FFC400"/>
<stop offset="0.16" stop-color="#FFC70D"/>
<stop offset="0.56" stop-color="#FFD64B"/>
<stop offset="0.85" stop-color="#FFDF71"/>
<stop offset="1" stop-color="#FFE380"/>
</linearGradient>
<clipPath id="clip0">
<rect width="640" height="360" fill="white"/>
</clipPath>
</defs>
</svg>
