<svg width="541" height="305" viewBox="0 0 541 305" fill="none" xmlns="http://www.w3.org/2000/svg">
<g clip-path="url(#clip0)">
<rect width="540.111" height="303.812" transform="translate(0.888916 0.25)" fill="white"/>
<g clip-path="url(#clip1)">
<rect width="540.111" height="303.812" transform="translate(0.888916 0.25)" fill="white"/>
<path d="M818.369 47.6096H113.811V493.213H818.369V47.6096Z" fill="url(#paint0_linear)"/>
<path opacity="0.2" d="M289.692 47.6096H232.511V494.336H289.692V47.6096Z" fill="url(#paint1_linear)"/>
<g opacity="0.4" filter="url(#filter0_d)">
<g opacity="0.9" filter="url(#filter1_d)">
<rect x="-84.0662" y="215.169" width="275.682" height="61.7545" rx="3.64762" fill="url(#paint2_linear)"/>
</g>
<rect opacity="0.3" x="-69.6184" y="228.966" width="167.786" height="8.23669" rx="2.02645" fill="#C0B6F2"/>
<mask id="mask0" mask-type="alpha" maskUnits="userSpaceOnUse" x="150" y="234" width="35" height="35">
<ellipse cx="167.29" cy="251.959" rx="17.0222" ry="17.0222" fill="url(#paint3_linear)"/>
</mask>
<g mask="url(#mask0)">
<ellipse cx="167.29" cy="251.959" rx="17.0222" ry="17.0222" fill="url(#paint4_linear)"/>
<path d="M169.229 263.474C168.971 263.474 168.762 263.264 168.762 263.006C168.762 262.748 168.971 262.539 169.229 262.539C169.487 262.539 169.697 262.748 169.697 263.006C169.697 263.264 169.487 263.474 169.229 263.474Z" fill="#B2D4FF"/>
<path d="M162.214 246.209C162.214 246.209 161.333 245.772 161.724 244.46C162.114 243.149 162.391 242.488 162.391 242.488C162.391 242.488 162.788 238.483 167.517 239.321C172.246 240.158 174.479 241.991 173.768 244.968C173.057 247.945 171.482 250.514 173.101 253.928C173.101 253.928 169.747 260.143 166.373 260.149C163.953 260.149 165.038 255.477 165.038 255.477C165.038 255.477 162.975 255.811 162.728 254.84C162.481 253.868 162.535 251.719 162.535 251.719L162.081 249.226C162.051 249.256 161.116 249.039 161.079 248.575C161.043 248.111 162.241 246.219 162.241 246.219" fill="#72594B"/>
<path d="M163.832 246.589C163.733 246.584 163.655 246.391 163.659 246.158C163.662 245.924 163.745 245.738 163.844 245.743C163.943 245.748 164.021 245.941 164.018 246.175C164.014 246.408 163.931 246.594 163.832 246.589Z" fill="#091E42"/>
<path d="M167.885 259.285C167.885 259.285 165.679 260.143 164.797 258.164L162.308 261.621L161.373 264.995L162.421 267.879L165.231 265.149L167.387 260.723L167.885 259.285Z" fill="url(#paint5_linear)"/>
<path d="M164.644 255.851C164.644 255.851 159.267 259.619 157.842 263.003C156.417 266.387 153.63 286.094 153.337 288.641C153.337 288.641 153.17 291.154 155.603 291.29C155.603 291.29 161.313 267.538 162.054 266.567C162.054 266.567 163.94 259.345 164.954 258.397L164.644 255.851Z" fill="url(#paint6_linear)"/>
<path d="M149.425 280.951L158.059 279.903L159.06 275.191L159.144 274.797C159.144 274.797 159.3 272.304 159.524 272.304C159.748 272.304 167.097 263.213 167.097 263.213L168.598 262.596L168.084 262.145L168.465 259.649L170.09 258.237L176.151 256.111C176.151 256.111 182.135 258.624 182.298 261.771C182.398 263.697 182.432 270.358 179.885 276.653C177.379 285.31 177.81 295.058 177.81 295.058C167.13 299.497 154.525 290.987 154.525 290.987L155.596 287.983L149.569 288.591C149.068 288.223 148.656 287.748 148.362 287.202C148.068 286.655 147.898 286.05 147.867 285.43C147.827 283.388 149.425 280.951 149.425 280.951Z" fill="url(#paint7_linear)"/>
<path d="M172.563 252.277C172.563 252.277 175.537 253.658 176.151 256.111C176.151 256.111 175.32 259.048 173.745 259.285L168.966 259.656C168.966 259.656 168.535 261.144 170.594 263.07C170.594 263.07 160.248 270.639 159.127 274.797C159.127 274.797 157.321 273.659 160.565 268.67C163.809 263.68 172.567 254.436 172.563 252.277Z" fill="url(#paint8_linear)"/>
<path d="M161.67 247.094L161.824 246.82C161.65 246.55 161.572 246.229 161.604 245.909C161.604 245.288 161.787 244.958 161.854 244.954C161.854 244.954 161.931 244.988 162.004 245.178C162.114 245.407 162.188 245.651 162.224 245.902H162.435C162.436 245.618 162.388 245.336 162.294 245.068C162.151 244.701 161.961 244.647 161.851 244.651C161.453 244.651 161.286 245.318 161.293 245.916C161.265 246.342 161.4 246.763 161.67 247.094Z" fill="#FFC400"/>
<path d="M162.399 246.112C162.392 245.366 162.64 244.758 162.954 244.755C163.267 244.753 163.527 245.355 163.534 246.102C163.541 246.848 163.292 247.456 162.979 247.459C162.665 247.462 162.406 246.859 162.399 246.112Z" stroke="#FFC400" stroke-width="0.360437" stroke-miterlimit="10"/>
<path d="M162.064 249.216C162.064 249.216 163.803 249.446 164.791 250.284C164.791 250.284 167.347 248.949 167.774 247.771C168.201 246.593 167.981 245.125 167.023 244.637C166.065 244.15 166.503 243.85 166.69 243.039C166.876 242.228 165.762 241.15 162.454 242.311C162.454 242.311 161.313 239.531 163.88 238.456C166.446 237.382 174.789 238.817 174.499 243.222C174.499 243.222 174.796 245.815 172.396 250.504C172.396 250.504 171.779 249.066 171.876 248.288C171.876 248.288 173.121 246.576 171.272 245.862C171.272 245.862 169.269 245.318 169.113 247.981C169.113 247.981 171.115 252.153 170 253.488C168.886 254.823 163.643 258.244 162.007 257.139C160.372 256.034 160.502 250.721 162.064 249.216Z" fill="#172B4D"/>
<path d="M169.984 246.062L163.466 245.685V245.378L170.651 245.829C170.416 245.862 170.189 245.942 169.984 246.062Z" fill="#FFC400"/>
<path d="M163.447 244.467C163.967 244.434 164.483 244.568 164.921 244.851" stroke="#091E42" stroke-width="0.345941" stroke-linecap="round" stroke-linejoin="round"/>
</g>
</g>
</g>
<path d="M242.292 36.6956C242.292 36.493 242.455 36.329 242.659 36.329C242.861 36.329 243.025 36.493 243.025 36.6956V48.0626H242.292V36.6956Z" fill="#C1C7D0"/>
<path d="M183.626 36.6958C183.626 36.4933 183.789 36.3292 183.991 36.3292C184.195 36.3292 184.359 36.4933 184.359 36.6958V48.0628H183.626V36.6958Z" fill="#C1C7D0"/>
<path d="M124.956 36.6958C124.956 36.4933 125.119 36.3292 125.321 36.3292C125.525 36.3292 125.689 36.4933 125.689 36.6958V48.0628H124.956V36.6958Z" fill="#F4F5F7"/>
<path d="M66.2888 36.6964C66.2888 36.4941 66.4529 36.3298 66.6554 36.3298C66.858 36.3298 67.0222 36.4941 67.0222 36.6964V48.0636H66.2888V36.6964Z" fill="#F4F5F7"/>
<path d="M7.61987 47.946C7.61987 47.7435 7.78413 47.5792 7.98666 47.5792C8.1892 47.5792 8.35327 47.7435 8.35327 47.946V59.313H7.61987V47.946Z" fill="#F4F5F7"/>
<path d="M300.963 36.6932C300.963 36.4907 301.129 36.3264 301.331 36.3264C301.533 36.3264 301.698 36.4907 301.698 36.6932V48.0602H300.963V36.6932Z" fill="#C1C7D0"/>
<path d="M359.632 36.6932C359.632 36.4907 359.797 36.3264 359.999 36.3264C360.201 36.3264 360.366 36.4907 360.366 36.6932V48.0602H359.632V36.6932Z" fill="#C1C7D0"/>
<path d="M418.3 36.6932C418.3 36.4907 418.463 36.3264 418.667 36.3264C418.869 36.3264 419.032 36.4907 419.032 36.6932V48.0602H418.3V36.6932Z" fill="#C1C7D0"/>
<path d="M476.968 36.6932C476.968 36.4907 477.131 36.3264 477.335 36.3264C477.537 36.3264 477.701 36.4907 477.701 36.6932V48.0602H476.968V36.6932Z" fill="#C1C7D0"/>
<path d="M535.635 36.6932C535.635 36.4907 535.799 36.3264 536.001 36.3264C536.205 36.3264 536.368 36.4907 536.368 36.6932V48.0602H535.635V36.6932Z" fill="#C1C7D0"/>
<path d="M266.029 28.2654H266.085L267.306 32.5154H268.137L269.672 26.8317H268.755L267.716 31.2511H267.66L266.466 26.8317H265.646L264.462 31.2511H264.406L263.363 26.8317H262.446L263.977 32.5154H264.812L266.029 28.2654ZM274.348 31.7552H271.622V29.9866H274.202V29.254H271.622V27.5918H274.348V26.8317H270.74V32.5154H274.348V31.7552ZM275.625 26.8317V32.5154H277.677C279.37 32.5154 280.351 31.4677 280.351 29.6597C280.351 27.8715 279.362 26.8317 277.677 26.8317H275.625ZM276.508 27.5918H277.579C278.756 27.5918 279.453 28.3598 279.453 29.6716C279.453 30.9951 278.768 31.7552 277.579 31.7552H276.508V27.5918Z" fill="#0065FF"/>
<path d="M271.589 42.4343H272.697V36.2338H271.593L269.974 37.3724V38.4166L271.516 37.3251H271.589V42.4343Z" fill="#0065FF"/>
<path d="M208.313 32.5154V27.5918H210.098V26.8317H205.641V27.5918H207.43V32.5154H208.313ZM212.054 26.8317H211.173V30.5577C211.173 31.7868 212.05 32.6533 213.473 32.6533C214.903 32.6533 215.778 31.7868 215.778 30.5577V26.8317H214.895V30.4869C214.895 31.2984 214.379 31.8695 213.473 31.8695C212.571 31.8695 212.054 31.2984 212.054 30.4869V26.8317ZM220.807 31.7552H218.082V29.9866H220.661V29.254H218.082V27.5918H220.807V26.8317H217.199V32.5154H220.807V31.7552Z" fill="#A5ADBA"/>
<path d="M210.336 39.667H211.113C211.879 39.667 212.342 40.0494 212.342 40.6726C212.342 41.2741 211.84 41.678 211.127 41.678C210.409 41.678 209.925 41.3085 209.877 40.7326H208.815C208.867 41.8542 209.79 42.5891 211.14 42.5891C212.481 42.5891 213.477 41.8155 213.477 40.7499C213.477 39.9034 212.948 39.3576 212.108 39.2287V39.1556C212.764 38.9796 213.233 38.4853 213.237 37.7377C213.241 36.8483 212.498 36.0791 211.179 36.0791C209.834 36.0791 208.992 36.8396 208.936 37.9267H209.975C210.023 37.308 210.444 36.9643 211.119 36.9643C211.775 36.9643 212.167 37.3682 212.167 37.8794C212.167 38.4424 211.729 38.8377 211.092 38.8377H210.336V39.667ZM216.162 42.4343H217.272V36.2337H216.168L214.547 37.3724V38.4166L216.089 37.3251H216.162V42.4343Z" fill="#A5ADBA"/>
<path d="M151.363 32.5148V26.8309H150.332L148.52 31.278H148.452L146.644 26.8309H145.612V32.5148H146.431V28.3514H146.487L148.152 32.4125H148.822L150.489 28.3514H150.543V32.5148H151.363ZM155.211 26.693C153.58 26.693 152.557 27.8393 152.557 29.6708C152.557 31.4986 153.557 32.6527 155.211 32.6527C156.854 32.6527 157.862 31.4946 157.862 29.6708C157.862 27.8432 156.846 26.693 155.211 26.693ZM155.211 27.4729C156.287 27.4729 156.96 28.3239 156.96 29.6708C156.96 31.0062 156.29 31.8727 155.211 31.8727C154.117 31.8727 153.459 31.0062 153.459 29.6708C153.459 28.3239 154.136 27.4729 155.211 27.4729ZM159.918 32.5148V28.3868H159.981L162.901 32.5148H163.696V26.8309H162.838V30.9668H162.774L159.856 26.8309H159.06V32.5148H159.918Z" fill="#A5ADBA"/>
<path d="M87.8413 30.9989C87.9048 32.0073 88.7511 32.6532 90.0128 32.6532C91.3592 32.6532 92.2017 31.9758 92.2017 30.9004C92.2017 30.0497 91.7228 29.581 90.5552 29.3013L89.9301 29.1476C89.1896 28.9664 88.8896 28.73 88.8896 28.3165C88.8896 27.7847 89.355 27.4421 90.0513 27.4421C90.713 27.4421 91.1707 27.773 91.2534 28.3127H92.1113C92.0613 27.3633 91.2169 26.6937 90.0628 26.6937C88.8222 26.6937 87.9952 27.3633 87.9952 28.3638C87.9952 29.1909 88.4645 29.6794 89.4916 29.9276L90.2244 30.1047C90.9765 30.2859 91.3073 30.5617 91.3073 31.0068C91.3073 31.5267 90.788 31.901 90.0802 31.901C89.3185 31.901 88.7915 31.5503 88.7165 30.9989H87.8413ZM94.2386 26.8316H93.3557V30.5577C93.3557 31.7867 94.2347 32.6532 95.6561 32.6532C97.0872 32.6532 97.9604 31.7867 97.9604 30.5577V26.8316H97.0795V30.4869C97.0795 31.2984 96.5621 31.8694 95.6561 31.8694C94.7541 31.8694 94.2386 31.2984 94.2386 30.4869V26.8316ZM100.242 32.5153V28.3875H100.305L103.223 32.5153H104.019V26.8316H103.161V30.9674H103.098L100.178 26.8316H99.3837V32.5153H100.242Z" fill="#A5ADBA"/>
<path d="M92.35 39.6675H93.1271C93.8926 39.6675 94.3561 40.0501 94.3561 40.6731C94.3561 41.2747 93.8541 41.6787 93.1405 41.6787C92.4231 41.6787 91.9365 41.3092 91.8903 40.7333H90.8286C90.8805 41.8548 91.8038 42.5896 93.154 42.5896C94.4946 42.5896 95.491 41.8162 95.491 40.7504C95.491 39.9039 94.962 39.3582 94.1196 39.2294V39.1563C94.7774 38.9801 95.2467 38.486 95.2505 37.7383C95.2544 36.8488 94.51 36.0796 93.1925 36.0796C91.8461 36.0796 91.0056 36.8401 90.9479 37.9274H91.9884C92.0365 37.3085 92.4577 36.9647 93.1309 36.9647C93.7887 36.9647 94.1792 37.3687 94.1792 37.8801C94.1792 38.4429 93.7426 38.8383 93.1059 38.8383H92.35V39.6675ZM98.932 42.5896C100.415 42.5896 101.296 41.3907 101.296 39.3367C101.296 37.2785 100.401 36.0796 98.932 36.0796C97.4586 36.0796 96.5642 37.2785 96.5642 39.3282C96.5642 41.3865 97.4452 42.5896 98.932 42.5896ZM98.932 41.6915C98.1472 41.6915 97.6856 40.875 97.6856 39.3282C97.6856 37.7941 98.1549 36.9821 98.932 36.9821C99.7109 36.9821 100.174 37.7899 100.174 39.3282C100.174 40.8793 99.7186 41.6915 98.932 41.6915Z" fill="#A5ADBA"/>
<path d="M30.1448 30.9995C30.2079 32.008 31.0547 32.6538 32.3152 32.6538C33.6623 32.6538 34.5052 31.9764 34.5052 30.901C34.5052 30.0503 34.0247 29.5816 32.8587 29.3019L32.2324 29.1482C31.4919 28.967 31.1927 28.7307 31.1927 28.3171C31.1927 27.7853 31.6574 27.4427 32.3546 27.4427C33.0162 27.4427 33.4732 27.7736 33.5559 28.3133H34.4146C34.3634 27.3639 33.5206 26.6943 32.3663 26.6943C31.1255 26.6943 30.2985 27.3639 30.2985 28.3644C30.2985 29.1915 30.7672 29.68 31.7953 29.9282L32.5279 30.1053C33.2801 30.2865 33.6112 30.5623 33.6112 31.0074C33.6112 31.5273 33.0911 31.9016 32.3821 31.9016C31.622 31.9016 31.0942 31.551 31.0194 30.9995H30.1448ZM39.3462 32.5159H40.2837L38.2314 26.8322H37.2822L35.2299 32.5159H36.136L36.6598 30.9799H38.8263L39.3462 32.5159ZM37.7115 27.8367H37.7784L38.6016 30.2709H36.8844L37.7115 27.8367ZM42.9463 32.5159V27.5924H44.7306V26.8322H40.2758V27.5924H42.064V32.5159H42.9463Z" fill="#A5ADBA"/>
<path d="M32.2817 38.0662H33.3215C33.3215 37.413 33.7512 36.9662 34.426 36.9662C35.0747 36.9662 35.4615 37.4002 35.4615 37.9631C35.4615 38.4357 35.2724 38.7323 34.4904 39.523L32.3418 41.6844V42.432H36.6475V41.5124H33.8459V41.4393L35.1778 40.1289C36.2436 39.0847 36.5573 38.5819 36.5573 37.8601C36.5573 36.8287 35.7193 36.0767 34.486 36.0767C33.1927 36.0767 32.2817 36.8931 32.2817 38.0662ZM40.0506 42.5824C41.6276 42.5824 42.5645 41.3491 42.5645 39.2565C42.5645 37.2026 41.5676 36.0767 40.085 36.0767C38.7358 36.0767 37.7819 36.9834 37.7819 38.2511C37.7819 39.4413 38.6413 40.3093 39.8229 40.3093C40.5491 40.3093 41.1379 39.9741 41.4301 39.3855H41.503C41.4901 40.8421 40.9702 41.6757 40.0635 41.6757C39.5307 41.6757 39.1052 41.3836 38.9721 40.911H37.8677C38.0483 41.9208 38.9162 42.5824 40.0506 42.5824ZM40.0893 39.4542C39.3674 39.4542 38.869 38.9472 38.869 38.2167C38.869 37.5163 39.3932 36.9791 40.0937 36.9791C40.794 36.9791 41.3183 37.5248 41.3183 38.2382C41.3183 38.9429 40.8069 39.4542 40.0893 39.4542Z" fill="#A5ADBA"/>
<path d="M151.668 39.667H152.447C153.211 39.667 153.676 40.0494 153.676 40.6726C153.676 41.2741 153.173 41.678 152.459 41.678C151.741 41.678 151.257 41.3085 151.209 40.7326H150.147C150.199 41.8542 151.124 42.5891 152.472 42.5891C153.813 42.5891 154.809 41.8155 154.809 40.7499C154.809 39.9034 154.282 39.3576 153.44 39.2287V39.1556C154.096 38.9796 154.565 38.4853 154.569 37.7377C154.573 36.8483 153.83 36.0791 152.511 36.0791C151.166 36.0791 150.324 36.8396 150.268 37.9267H151.309C151.355 37.308 151.776 36.9643 152.451 36.9643C153.109 36.9643 153.499 37.3682 153.499 37.8794C153.499 38.4424 153.061 38.8377 152.424 38.8377H151.668V39.667ZM157.496 42.4343H158.604V36.2337H157.5L155.881 37.3724V38.4166L157.423 37.3251H157.496V42.4343Z" fill="#A5ADBA"/>
<path d="M325.041 32.5154V27.5918H326.824V26.8317H322.37V27.5918H324.159V32.5154H325.041ZM332.587 32.5154V26.8317H331.71V29.2344H328.79V26.8317H327.907V32.5154H328.79V29.9984H331.71V32.5154H332.587ZM334.887 26.8317H334.005V30.5577C334.005 31.7868 334.884 32.6533 336.305 32.6533C337.736 32.6533 338.609 31.7868 338.609 30.5577V26.8317H337.728V30.4869C337.728 31.2984 337.211 31.8695 336.305 31.8695C335.403 31.8695 334.887 31.2984 334.887 30.4869V26.8317Z" fill="#A5ADBA"/>
<path d="M328.479 38.0685H329.519C329.519 37.4155 329.948 36.9685 330.623 36.9685C331.271 36.9685 331.658 37.4026 331.658 37.9654C331.658 38.4382 331.469 38.7346 330.687 39.5253L328.538 41.6866V42.4343H332.845V41.5147H330.042V41.4418L331.375 40.1312C332.441 39.0869 332.754 38.5842 332.754 37.8623C332.754 36.831 331.916 36.0791 330.683 36.0791C329.39 36.0791 328.479 36.8954 328.479 38.0685Z" fill="#A5ADBA"/>
<path d="M384.73 32.5154V30.1363H387.173V29.3919H384.73V27.5918H387.398V26.8317H383.847V32.5154H384.73ZM389.425 30.3294H390.67L391.828 32.5154H392.849L391.572 30.1915C392.266 29.9591 392.676 29.3367 392.676 28.5687C392.676 27.5091 391.939 26.8317 390.793 26.8317H388.542V32.5154H389.425V30.3294ZM389.425 27.5722H390.67C391.353 27.5722 391.77 27.9542 391.77 28.5883C391.77 29.2382 391.376 29.6047 390.695 29.6047H389.425V27.5722ZM394.815 32.5154V26.8317H393.932V32.5154H394.815Z" fill="#A5ADBA"/>
<path d="M388.527 39.667H389.306C390.07 39.667 390.535 40.0494 390.535 40.6726C390.535 41.2741 390.031 41.678 389.318 41.678C388.6 41.678 388.116 41.3085 388.068 40.7326H387.006C387.058 41.8542 387.983 42.5891 389.331 42.5891C390.672 42.5891 391.668 41.8155 391.668 40.7499C391.668 39.9034 391.141 39.3576 390.299 39.2287V39.1556C390.957 38.9796 391.424 38.4853 391.428 37.7377C391.434 36.8483 390.689 36.0791 389.37 36.0791C388.025 36.0791 387.183 36.8396 387.127 37.9267H388.168C388.214 37.308 388.635 36.9643 389.31 36.9643C389.968 36.9643 390.358 37.3682 390.358 37.8794C390.358 38.4424 389.92 38.8377 389.283 38.8377H388.527V39.667Z" fill="#A5ADBA"/>
<path d="M440.744 30.9989C440.805 32.0073 441.654 32.6532 442.914 32.6532C444.26 32.6532 445.104 31.9758 445.104 30.9004C445.104 30.0497 444.623 29.581 443.458 29.3013L442.831 29.1476C442.09 28.9664 441.79 28.73 441.79 28.3165C441.79 27.7847 442.256 27.4421 442.954 27.4421C443.616 27.4421 444.071 27.773 444.154 28.3127H445.014C444.962 27.3633 444.119 26.6937 442.965 26.6937C441.725 26.6937 440.898 27.3633 440.898 28.3638C440.898 29.1909 441.365 29.6794 442.394 29.9276L443.127 30.1047C443.879 30.2859 444.21 30.5617 444.21 31.0068C444.21 31.5267 443.691 31.901 442.981 31.901C442.221 31.901 441.692 31.5503 441.617 30.9989H440.744ZM449.946 32.5153H450.882L448.83 26.8316H447.88L445.829 32.5153H446.735L447.259 30.9793H449.424L449.946 32.5153ZM448.311 27.836H448.378L449.201 30.2703H447.484L448.311 27.836ZM453.544 32.5153V27.5918H455.329V26.8316H450.875V27.5918H452.663V32.5153H453.544Z" fill="#A5ADBA"/>
<path d="M448.563 42.4343H449.622V41.2441H450.461V40.3287H449.622V36.2338H448.059C447.216 37.5142 446.335 38.9408 445.533 40.3374V41.2441H448.563V42.4343ZM446.56 40.2901C447.166 39.2374 447.884 38.09 448.518 37.1189H448.58V40.3545H446.56V40.2901Z" fill="#A5ADBA"/>
<path d="M498.443 30.9989C498.506 32.0073 499.353 32.6532 500.612 32.6532C501.961 32.6532 502.803 31.9758 502.803 30.9004C502.803 30.0497 502.322 29.581 501.157 29.3013L500.53 29.1476C499.789 28.9664 499.491 28.73 499.491 28.3165C499.491 27.7847 499.955 27.4421 500.653 27.4421C501.315 27.4421 501.77 27.773 501.853 28.3127H502.713C502.661 27.3633 501.818 26.6937 500.664 26.6937C499.424 26.6937 498.597 27.3633 498.597 28.3638C498.597 29.1909 499.064 29.6794 500.093 29.9276L500.826 30.1047C501.578 30.2859 501.909 30.5617 501.909 31.0068C501.909 31.5267 501.39 31.901 500.68 31.901C499.92 31.901 499.391 31.5503 499.316 30.9989H498.443ZM504.84 26.8316H503.957V30.5577C503.957 31.7867 504.834 32.6532 506.258 32.6532C507.687 32.6532 508.562 31.7867 508.562 30.5577V26.8316H507.679V30.4869C507.679 31.2984 507.164 31.8694 506.258 31.8694C505.356 31.8694 504.84 31.2984 504.84 30.4869V26.8316ZM510.843 32.5153V28.3875H510.905L513.824 32.5153H514.619V26.8316H513.761V30.9674H513.697L510.78 26.8316H509.983V32.5153H510.843Z" fill="#A5ADBA"/>
<path d="M506.719 42.5891C508.071 42.5891 508.979 41.6995 508.979 40.4018C508.979 39.1556 508.119 38.3607 507.058 38.3607C506.427 38.3607 505.971 38.5757 505.696 38.9581H505.623L505.794 37.1447H508.648V36.2338H504.93L504.592 39.839H505.596C505.807 39.4307 506.215 39.1858 506.744 39.1858C507.427 39.1858 507.908 39.6799 507.908 40.4191C507.908 41.1796 507.427 41.6866 506.713 41.6866C506.083 41.6866 505.606 41.3043 505.536 40.7242H504.501C504.548 41.8113 505.438 42.5891 506.719 42.5891Z" fill="#A5ADBA"/>
<path d="M-8.11304 16.0033H179.801V59.3247H-8.11304V16.0033Z" fill="url(#paint9_linear)"/>
<path d="M647.728 47.3313H-15.8477V48.0647H647.728V47.3313Z" fill="url(#paint10_linear)"/>
<g opacity="0.8" filter="url(#filter2_d)">
<g opacity="0.9" filter="url(#filter3_d)">
<rect x="337.896" y="62.1377" width="273.765" height="61.3251" rx="4.50093" fill="url(#paint11_linear)"/>
</g>
<rect opacity="0.3" x="352.243" y="77.1797" width="141.62" height="8.17941" rx="1.12523" fill="#998DD9"/>
<rect opacity="0.3" x="352.243" y="91.9027" width="87.9379" height="8.17941" rx="1.12523" fill="#998DD9"/>
</g>
<g opacity="0.8" filter="url(#filter4_d)">
<g opacity="0.9" filter="url(#filter5_d)">
<rect x="267.006" y="215.169" width="567.66" height="61.3995" rx="3.57272" fill="url(#paint12_linear)"/>
</g>
<rect opacity="0.3" x="280.701" y="224.071" width="297.639" height="8.06756" rx="1.98484" fill="#C0B6F2"/>
<rect opacity="0.3" x="280.473" y="238.593" width="198.578" height="8.06756" rx="1.98484" fill="#C0B6F2"/>
<path fill-rule="evenodd" clip-rule="evenodd" d="M285.281 256.156C284.388 256.156 283.664 256.88 283.664 257.773V267.473C283.664 268.366 284.388 269.09 285.281 269.09H294.982C295.874 269.09 296.598 268.366 296.598 267.473V263.431C296.598 262.985 296.236 262.623 295.79 262.623C295.343 262.623 294.982 262.985 294.982 263.431V267.473H285.281V257.773L293.365 257.773C293.811 257.773 294.173 257.411 294.173 256.964C294.173 256.518 293.811 256.156 293.365 256.156H285.281ZM287.492 261.267C287.19 260.938 286.678 260.918 286.35 261.22C286.022 261.523 286.001 262.034 286.303 262.362L289.223 265.531C289.658 265.956 290.305 265.956 290.706 265.554L291.001 265.265C291.239 265.031 291.504 264.77 291.79 264.488C292.606 263.684 293.422 262.879 294.185 262.126L294.217 262.093C295.571 260.755 296.599 259.732 297.174 259.149C297.487 258.831 297.484 258.319 297.166 258.005C296.848 257.692 296.336 257.695 296.023 258.013C295.454 258.59 294.429 259.61 293.08 260.944L293.048 260.976C292.287 261.729 291.471 262.533 290.655 263.336L289.996 263.985L287.492 261.267Z" fill="#5E6C84"/>
<path d="M304.594 267.949C306.393 267.949 307.669 266.691 307.669 264.929C307.669 263.228 306.459 261.994 304.788 261.994C303.743 261.994 302.887 262.492 302.455 263.343H302.358C302.394 260.961 303.245 259.746 304.703 259.746C305.591 259.746 306.235 260.202 306.417 261.016H307.541C307.316 259.655 306.265 258.774 304.667 258.774C302.595 258.774 301.295 260.499 301.295 263.513C301.295 266.466 302.686 267.949 304.594 267.949ZM304.582 266.989C303.458 266.989 302.601 266.102 302.601 264.929C302.601 263.768 303.433 262.942 304.594 262.942C305.755 262.942 306.563 263.768 306.563 264.965C306.563 266.114 305.706 266.989 304.582 266.989ZM309.388 269.614L312.548 258.597H311.661L308.501 269.614H309.388ZM315.671 267.748H316.765V258.98H315.677L313.344 260.657V261.812L315.574 260.196H315.671V267.748ZM322.3 267.955C324.093 267.955 325.314 266.715 325.314 264.911C325.314 263.173 324.099 262.018 322.629 262.018C321.754 262.018 321.103 262.286 320.678 262.814H320.581L320.854 259.959H324.865V258.98H319.998L319.493 263.993H320.52C320.866 263.343 321.523 262.96 322.355 262.96C323.461 262.96 324.221 263.756 324.221 264.941C324.221 266.169 323.461 266.995 322.313 266.995C321.28 266.995 320.526 266.369 320.429 265.433H319.353C319.451 266.934 320.642 267.955 322.3 267.955Z" fill="#5E6C84"/>
</g>
<rect x="0.888916" y="0.25" width="164.846" height="303.812" fill="url(#paint13_linear)"/>
<g filter="url(#filter6_d)">
<g opacity="0.8" filter="url(#filter7_d)">
<rect x="85.2812" y="137.528" width="352.192" height="61.0043" rx="3.37196" fill="url(#paint14_linear)"/>
</g>
<rect opacity="0.4" x="99.4958" y="152.307" width="213.811" height="8.29185" rx="1.12523" fill="#EAE6FF"/>
<path fill-rule="evenodd" clip-rule="evenodd" d="M103.954 172.609C103.067 172.609 102.347 173.328 102.347 174.215V183.853C102.347 184.741 103.067 185.46 103.954 185.46H113.592C114.479 185.46 115.198 184.741 115.198 183.853V179.837C115.198 179.394 114.839 179.034 114.395 179.034C113.952 179.034 113.592 179.394 113.592 179.837V183.853H103.954V174.215L111.986 174.215C112.429 174.215 112.789 173.856 112.789 173.412C112.789 172.968 112.429 172.609 111.986 172.609H103.954ZM106.151 177.687C105.85 177.361 105.342 177.34 105.016 177.641C104.69 177.941 104.669 178.449 104.97 178.775L107.871 181.923C108.303 182.346 108.945 182.346 109.344 181.947L109.637 181.659C109.873 181.427 110.137 181.167 110.421 180.888C111.232 180.089 112.043 179.289 112.8 178.54L112.833 178.508C114.178 177.178 115.199 176.162 115.77 175.582C116.082 175.267 116.078 174.758 115.762 174.447C115.447 174.135 114.938 174.139 114.627 174.454C114.061 175.027 113.043 176.04 111.703 177.366L111.671 177.398C110.914 178.146 110.104 178.945 109.294 179.743L108.639 180.388L106.151 177.687Z" fill="white"/>
<path d="M123.794 183.21H124.803V181.496H125.979V180.572H124.803V174.935H123.307C122.148 176.661 120.881 178.68 119.763 180.555V181.496H123.794V183.21ZM120.818 180.509C121.718 178.989 122.802 177.28 123.731 175.893H123.8V180.578H120.818V180.509ZM127.533 184.971L130.515 174.574H129.678L126.696 184.971H127.533ZM134.312 183.405C136.067 183.405 137.294 182.413 137.294 180.997C137.294 179.919 136.612 179.081 135.574 178.886V178.794C136.428 178.559 136.956 177.854 136.956 176.948C136.956 175.657 135.86 174.74 134.312 174.74C132.764 174.74 131.668 175.657 131.668 176.948C131.668 177.848 132.207 178.565 133.05 178.794V178.886C132.012 179.081 131.33 179.919 131.33 180.997C131.33 182.413 132.557 183.405 134.312 183.405ZM134.312 178.45C133.337 178.45 132.683 177.888 132.683 177.045C132.683 176.191 133.331 175.623 134.312 175.623C135.293 175.623 135.941 176.191 135.941 177.045C135.941 177.888 135.287 178.45 134.312 178.45ZM134.312 182.522C133.165 182.522 132.374 181.868 132.374 180.922C132.374 179.976 133.165 179.322 134.312 179.322C135.459 179.322 136.25 179.976 136.25 180.922C136.25 181.868 135.459 182.522 134.312 182.522Z" fill="white"/>
<mask id="mask1" mask-type="alpha" maskUnits="userSpaceOnUse" x="357" y="159" width="34" height="35">
<ellipse cx="373.576" cy="176.537" rx="16.5654" ry="16.5654" fill="url(#paint15_linear)"/>
</mask>
<g mask="url(#mask1)">
</g>
<mask id="mask2" mask-type="alpha" maskUnits="userSpaceOnUse" x="357" y="159" width="34" height="35">
<ellipse cx="373.576" cy="176.537" rx="16.5654" ry="16.5654" fill="url(#paint16_linear)"/>
</mask>
<g mask="url(#mask2)">
<mask id="mask3" mask-type="alpha" maskUnits="userSpaceOnUse" x="357" y="159" width="34" height="35">
<ellipse cx="373.576" cy="176.537" rx="16.5654" ry="16.5654" fill="url(#paint17_linear)"/>
</mask>
<g mask="url(#mask3)">
<ellipse cx="373.576" cy="176.537" rx="16.5654" ry="16.5654" fill="url(#paint18_linear)"/>
<path d="M370.313 179.32C370.313 179.32 365.607 180.512 363.807 182.706C362.006 184.9 361.622 192.564 361.622 192.564L363.183 201.345C363.183 201.345 369.155 204.819 380.552 201.969L385.816 189.649C385.816 189.649 387.377 181.848 377.157 178.827L370.313 179.32Z" fill="url(#paint19_linear)"/>
<mask id="mask4" mask-type="alpha" maskUnits="userSpaceOnUse" x="361" y="178" width="25" height="26">
<path d="M370.313 179.32C370.313 179.32 365.607 180.512 363.807 182.706C362.006 184.9 361.622 192.564 361.622 192.564L363.183 201.345C363.183 201.345 369.155 204.819 380.552 201.969L385.816 189.649C385.816 189.649 387.377 181.848 377.157 178.827L370.313 179.32Z" fill="url(#paint20_linear)"/>
</mask>
<g mask="url(#mask4)">
<path d="M377.684 182.472C374.691 182.472 374.698 177.828 377.684 177.828C380.671 177.828 380.674 182.472 377.684 182.472ZM370.906 180.503C370.871 180.378 370.805 180.264 370.713 180.172L370.572 180.053C370.457 179.988 370.327 179.953 370.195 179.954C370.094 179.947 369.994 179.969 369.904 180.016C369.813 180.048 369.731 180.101 369.664 180.172C369.529 180.316 369.451 180.505 369.446 180.702C369.446 180.768 369.446 180.834 369.471 180.902C369.506 181.027 369.573 181.141 369.664 181.233L369.817 181.348C369.931 181.416 370.062 181.452 370.195 181.451C370.295 181.455 370.395 181.432 370.485 181.386C370.577 181.356 370.659 181.304 370.725 181.233C370.796 181.166 370.85 181.082 370.881 180.99C370.927 180.901 370.949 180.802 370.944 180.702C370.922 180.637 370.916 180.568 370.906 180.503ZM368.535 187.137C368.501 187.012 368.434 186.897 368.341 186.806L368.191 186.688C368.075 186.621 367.944 186.586 367.811 186.585C367.711 186.581 367.612 186.604 367.523 186.65C367.431 186.68 367.348 186.734 367.283 186.806C367.211 186.871 367.157 186.954 367.127 187.047C367.081 187.136 367.058 187.236 367.062 187.337L367.09 187.534C367.123 187.66 367.19 187.775 367.283 187.867L367.433 187.983C367.547 188.05 367.678 188.086 367.811 188.086C367.911 188.089 368.011 188.067 368.101 188.02C368.192 187.99 368.275 187.938 368.341 187.867C368.474 187.722 368.553 187.534 368.563 187.337L368.535 187.137ZM379.029 183.823C378.995 183.698 378.928 183.584 378.836 183.492L378.686 183.377C378.571 183.309 378.439 183.273 378.305 183.274C378.205 183.268 378.106 183.291 378.018 183.339C377.926 183.371 377.843 183.424 377.775 183.492C377.706 183.561 377.654 183.644 377.622 183.736C377.575 183.824 377.552 183.923 377.556 184.023L377.584 184.223C377.618 184.347 377.684 184.461 377.775 184.553C377.828 184.591 377.878 184.631 377.928 184.672C378.043 184.738 378.173 184.772 378.305 184.772C378.406 184.778 378.506 184.756 378.595 184.709C378.687 184.678 378.77 184.624 378.836 184.553C378.907 184.488 378.961 184.405 378.992 184.313C379.038 184.224 379.061 184.124 379.057 184.023L379.029 183.823ZM380.667 189.309C380.634 189.181 380.567 189.063 380.474 188.969L380.321 188.85C380.203 188.785 380.069 188.753 379.934 188.757C379.833 188.753 379.733 188.776 379.644 188.822C379.552 188.853 379.469 188.907 379.404 188.978C379.332 189.044 379.279 189.127 379.248 189.219C379.201 189.308 379.179 189.408 379.185 189.509C379.185 189.574 379.201 189.64 379.21 189.705C379.244 189.831 379.311 189.945 379.404 190.036C379.454 190.077 379.503 190.117 379.557 190.155C379.671 190.223 379.801 190.258 379.934 190.258C380.131 190.248 380.319 190.17 380.465 190.036C380.537 189.972 380.589 189.888 380.618 189.796C380.664 189.708 380.687 189.609 380.683 189.509C380.683 189.44 380.674 189.375 380.667 189.309ZM381.441 187.125C381.406 187 381.34 186.886 381.248 186.794L381.095 186.675C380.98 186.609 380.85 186.573 380.717 186.572C380.52 186.582 380.333 186.661 380.187 186.794C380.116 186.859 380.063 186.942 380.034 187.034C379.987 187.124 379.965 187.224 379.968 187.324C379.968 187.39 379.987 187.455 379.993 187.521C380.028 187.647 380.095 187.762 380.187 187.855L380.34 187.97C380.454 188.038 380.585 188.074 380.717 188.073C380.818 188.077 380.918 188.054 381.008 188.008C381.098 187.974 381.181 187.922 381.249 187.853C381.318 187.785 381.371 187.702 381.404 187.612C381.451 187.524 381.473 187.424 381.466 187.324C381.457 187.268 381.451 187.203 381.441 187.137V187.125ZM367.639 181.479L367.452 181.23C367.294 181.081 367.102 180.973 366.893 180.918L366.55 180.855C366.33 180.857 366.115 180.917 365.926 181.027L365.67 181.224C365.52 181.38 365.412 181.572 365.358 181.782C365.305 181.945 365.297 182.118 365.336 182.285C365.342 182.451 365.393 182.613 365.486 182.753C365.595 182.94 365.751 183.096 365.938 183.205H365.972L366.26 183.327C366.464 183.382 366.679 183.382 366.884 183.327L367.168 183.208H367.183C367.289 183.165 367.383 183.095 367.455 183.005C367.678 182.76 367.809 182.444 367.823 182.113C367.82 181.889 367.756 181.67 367.639 181.479ZM366.35 185.798C366.349 185.617 366.298 185.439 366.203 185.284C366.156 185.113 366.065 184.957 365.941 184.831C365.852 184.681 365.728 184.555 365.579 184.463C365.453 184.339 365.297 184.248 365.127 184.201C364.882 184.072 364.607 184.011 364.331 184.023L363.788 184.098L363.298 184.304L362.883 184.616L362.571 185.028C362.502 185.193 362.431 185.34 362.362 185.518C362.278 185.782 362.266 186.064 362.328 186.335C362.323 186.52 362.368 186.702 362.459 186.863C362.54 187.115 362.685 187.342 362.88 187.521L362.921 187.562C363.095 187.752 363.315 187.894 363.56 187.974C363.796 188.098 364.061 188.157 364.328 188.145L364.858 188.073C365.191 187.982 365.494 187.805 365.738 187.562L365.776 187.521C365.882 187.381 365.991 187.243 366.088 187.106L366.294 186.616C366.384 186.353 366.403 186.071 366.35 185.798ZM370.884 182.169C367.895 182.169 367.892 186.816 370.884 186.816C373.877 186.816 373.886 182.169 370.884 182.169ZM376.411 185.012C373.425 185.012 373.418 189.659 376.411 189.659C379.404 189.659 379.416 185.012 376.42 185.012H376.411ZM366.378 196.683C363.389 196.683 363.385 201.327 366.378 201.327C369.371 201.327 369.38 196.683 366.388 196.683H366.378ZM364.971 188.488C361.981 188.488 361.975 193.132 364.971 193.132C367.967 193.132 367.963 188.488 364.971 188.488ZM370.276 187.936C367.289 187.936 367.283 192.58 370.276 192.58C373.268 192.58 373.256 187.936 370.26 187.936H370.276ZM374.935 197.869C371.945 197.869 371.939 202.516 374.935 202.516C377.931 202.516 377.912 197.869 374.919 197.869H374.935ZM372.17 193.5L372.139 193.441C372.082 193.346 372.002 193.267 371.908 193.21C371.813 193.155 371.706 193.125 371.596 193.123C371.486 193.125 371.379 193.155 371.284 193.21C371.189 193.267 371.11 193.346 371.053 193.441L371.022 193.5C370.962 193.605 370.931 193.723 370.931 193.843C370.925 193.936 370.938 194.029 370.969 194.116C371 194.204 371.049 194.284 371.112 194.352C371.175 194.419 371.252 194.474 371.337 194.51C371.422 194.547 371.514 194.567 371.607 194.567C371.7 194.567 371.791 194.547 371.876 194.51C371.962 194.474 372.038 194.419 372.102 194.352C372.165 194.284 372.214 194.204 372.245 194.116C372.276 194.029 372.289 193.936 372.282 193.843C372.27 193.723 372.225 193.608 372.154 193.509L372.17 193.5ZM371.477 200.004L371.446 199.944C371.391 199.848 371.311 199.768 371.215 199.713C371.12 199.658 371.013 199.628 370.903 199.626C370.793 199.628 370.686 199.659 370.591 199.713C370.496 199.769 370.417 199.849 370.363 199.944L370.332 200.004C370.27 200.107 370.238 200.226 370.238 200.347C370.238 200.467 370.27 200.584 370.332 200.687C370.389 200.784 370.469 200.866 370.566 200.924C370.662 200.983 370.772 201.016 370.884 201.021C371.063 201.021 371.235 200.95 371.362 200.824C371.489 200.697 371.561 200.526 371.562 200.347C371.563 200.227 371.534 200.109 371.477 200.004ZM369.686 201.005L369.655 200.946C369.599 200.851 369.519 200.771 369.424 200.715C369.329 200.66 369.222 200.63 369.112 200.628C369.002 200.63 368.895 200.66 368.8 200.715C368.706 200.772 368.628 200.851 368.572 200.946L368.541 201.005C368.479 201.109 368.447 201.228 368.447 201.348C368.447 201.468 368.479 201.586 368.541 201.689C368.601 201.79 368.686 201.874 368.788 201.933C368.891 201.991 369.006 202.022 369.124 202.022C369.242 202.022 369.358 201.991 369.46 201.933C369.563 201.874 369.648 201.79 369.708 201.689C369.769 201.586 369.802 201.468 369.801 201.348C369.795 201.226 369.755 201.107 369.686 201.005ZM378.474 192.358C378.056 192.352 377.645 192.459 377.285 192.67C377.497 191.384 376.764 189.915 375.078 189.915C372.089 189.915 372.086 194.558 375.078 194.558C375.496 194.565 375.907 194.457 376.267 194.246C376.055 195.532 376.789 197.001 378.474 197.001C381.463 197.001 381.469 192.358 378.474 192.358ZM382.187 179.96C379.198 179.96 379.195 184.603 382.187 184.603C385.18 184.603 385.18 179.96 382.187 179.96ZM384.431 184.862C381.441 184.862 381.435 189.509 384.431 189.509C387.427 189.509 387.424 184.862 384.431 184.862Z" fill="url(#paint21_linear)"/>
</g>
<path d="M366.949 169.156C366.949 169.156 365.523 164.578 371.299 163.23C372.64 162.902 374.054 163.066 375.284 163.692C377.397 164.797 379.934 167.574 378.355 174.527C378.355 174.527 377.694 176.224 375.94 176.153L376.093 173.344C376.093 173.344 370.884 167.356 366.949 169.156Z" fill="#253858"/>
<path d="M376.093 173.366C376.093 173.366 375.721 177.551 377.147 178.824C377.147 178.824 376.405 182.035 372.136 181.72C371.852 181.699 371.576 181.618 371.326 181.483C371.075 181.347 370.857 181.16 370.685 180.934C370.512 180.708 370.39 180.447 370.326 180.17C370.262 179.893 370.782 179.689 370.838 179.41C371.139 178.809 370.938 178.107 370.597 177.245C370.691 175.441 376.093 173.366 376.093 173.366Z" fill="#D99476"/>
<path d="M367.301 171.825C365.487 169.042 367.925 166.998 367.925 166.998C370.974 166.726 376.123 171.151 376.123 171.151C376.123 171.151 377.527 168.914 377.661 171.314C377.724 171.96 377.558 172.607 377.193 173.144C376.829 173.681 376.288 174.073 375.664 174.253C373.155 179.527 370.037 178.809 369.435 178.208C368.834 177.606 368.169 176.412 367.588 175.366C366.97 174.253 367.081 173.01 367.301 171.825Z" fill="#DD9C80"/>
<path d="M370.973 176.128C370.958 176.199 369.899 176.136 369.736 176.079C369.574 176.022 369.366 175.975 369.188 176.121C368.971 176.042 368.812 176.069 368.812 176.069C368.633 176.134 368.475 176.322 368.475 176.322C368.475 176.322 368.765 176.6 368.856 176.64C369.008 176.707 369.121 176.875 369.521 176.843C369.92 176.812 370.968 176.186 370.973 176.128Z" fill="#E28963"/>
<path d="M367.806 172.961C367.71 172.956 367.634 172.768 367.638 172.541C367.641 172.314 367.722 172.133 367.818 172.138C367.915 172.142 367.99 172.33 367.987 172.558C367.984 172.785 367.903 172.966 367.806 172.961Z" fill="#091E42"/>
<path d="M371 170.879C371.506 170.847 372.009 170.978 372.435 171.253" stroke="#091E42" stroke-width="0.319798" stroke-linecap="round" stroke-linejoin="round"/>
<path d="M367.035 171.505C367.276 171.345 367.554 171.263 367.828 171.269" stroke="#091E42" stroke-width="0.319798" stroke-linecap="round" stroke-linejoin="round"/>
<ellipse opacity="0.5" cx="372.541" cy="174.5" rx="2.1041" ry="2.1041" fill="url(#paint22_radial)"/>
<path d="M367.196 166.057C366.456 167.559 366.18 169.247 366.403 170.907L368.747 170.595C368.747 170.595 368.054 169.197 368.363 167.886L369.455 170.464C369.455 170.464 373.125 170.223 376.008 171.053L372.223 167.359L368.747 166.834L367.196 166.057Z" fill="#253858"/>
<path d="M369.127 172.277C369.127 172.277 368.525 172.105 368.363 172.317" stroke="white" stroke-width="0.190356" stroke-miterlimit="10" stroke-linecap="round"/>
<path d="M372.083 172.239L376.005 171.05" stroke="white" stroke-width="0.190356" stroke-miterlimit="10" stroke-linecap="round"/>
<path d="M370.634 173.896C371.419 173.896 372.054 173.261 372.054 172.476C372.054 171.692 371.419 171.057 370.634 171.057C369.85 171.057 369.215 171.692 369.215 172.476C369.215 173.261 369.85 173.896 370.634 173.896Z" stroke="white" stroke-width="0.190356" stroke-miterlimit="10" stroke-linecap="round"/>
<path d="M367.491 174.111C368.076 174.021 368.462 173.383 368.354 172.686C368.246 171.99 367.685 171.498 367.101 171.588C366.517 171.679 366.131 172.317 366.238 173.013C366.346 173.71 366.907 174.201 367.491 174.111Z" stroke="white" stroke-width="0.190356" stroke-miterlimit="10" stroke-linecap="round"/>
<path d="M371.146 172.627C371.049 172.622 370.974 172.434 370.977 172.207C370.98 171.979 371.061 171.799 371.158 171.803C371.254 171.808 371.33 171.996 371.326 172.223C371.323 172.451 371.242 172.631 371.146 172.627Z" fill="#091E42"/>
</g>
</g>
</g>
<mask id="mask5" mask-type="alpha" maskUnits="userSpaceOnUse" x="396" y="160" width="34" height="34">
<ellipse cx="413.254" cy="176.825" rx="16.5654" ry="16.5654" fill="url(#paint23_linear)"/>
</mask>
<g mask="url(#mask5)">
<mask id="mask6" mask-type="alpha" maskUnits="userSpaceOnUse" x="396" y="160" width="34" height="34">
<ellipse cx="413.254" cy="176.825" rx="16.5654" ry="16.5654" fill="url(#paint24_linear)"/>
</mask>
<g mask="url(#mask6)">
<ellipse cx="413.254" cy="176.825" rx="16.5654" ry="16.5654" fill="url(#paint25_linear)"/>
<path d="M410.843 180.767C410.843 180.767 406.735 182.37 404.831 185.175C404.831 185.175 403.601 187.199 403.529 188.281C402.234 207.92 401.076 219.097 402.192 219.622C402.835 219.923 412.48 221.354 419.59 216.268C419.59 216.268 420.013 210.958 419.75 206.503C419.488 202.048 425.894 191.003 422.235 184.574C420.698 181.857 419.079 180.484 415.985 180.166L410.843 180.767Z" fill="url(#paint26_linear)"/>
<path d="M405.781 191.407C407.931 191.407 407.935 194.75 405.781 194.75C403.627 194.75 403.627 191.407 405.781 191.407Z" fill="url(#paint27_linear)"/>
<path d="M403.585 191.574C403.487 191.573 403.39 191.565 403.294 191.55C403.369 190.472 403.443 189.367 403.517 188.235H403.585C405.733 188.231 405.733 191.574 403.585 191.574Z" fill="url(#paint28_linear)"/>
<path d="M420.498 190.452C418.347 190.452 418.343 187.109 420.498 187.109C422.652 187.109 422.652 190.452 420.498 190.452Z" fill="url(#paint29_linear)"/>
<path d="M407.462 189.844C405.312 189.844 405.308 186.502 407.462 186.502C409.616 186.502 409.616 189.844 407.462 189.844Z" fill="url(#paint30_linear)"/>
<path d="M417.975 186.293C415.824 186.293 415.82 182.951 417.975 182.951C420.129 182.951 420.129 186.293 417.975 186.293Z" fill="url(#paint31_linear)"/>
<path d="M423.199 191.826C423.052 192.905 422.848 193.975 422.588 195.032H422.508C420.357 195.032 420.353 191.69 422.508 191.69C422.745 191.687 422.98 191.734 423.199 191.826Z" fill="url(#paint32_linear)"/>
<path d="M415.265 192.041C413.115 192.041 413.111 188.698 415.265 188.698C417.42 188.698 417.42 192.041 415.265 192.041Z" fill="url(#paint33_linear)"/>
<path d="M413.304 184.634C415.454 184.634 415.458 187.977 413.304 187.977C411.149 187.977 411.143 184.634 413.304 184.634Z" fill="url(#paint34_linear)"/>
<path d="M410.827 193.443C408.677 193.443 408.673 190.101 410.827 190.101C412.981 190.101 412.981 193.443 410.827 193.443Z" fill="url(#paint35_linear)"/>
<path d="M417.894 180.566C417.894 180.566 416.782 178.238 416.382 177.454C415.981 176.671 416.235 174.985 417.908 172.845C419.582 170.705 419.445 166.168 415.953 164.457C412.46 162.746 407.456 165.459 407.322 168.811C407.322 168.811 407.652 169.958 407.188 170.958C406.723 171.957 406.168 172.561 406.44 172.889C406.713 173.218 407.041 173.21 407.011 173.49C406.981 173.771 406.645 174.044 406.897 174.308L407.097 174.49C407.097 174.49 406.659 174.787 406.875 175.092C406.875 175.092 407.226 175.168 407.192 175.43C407.158 175.693 406.869 176.358 407.322 176.847C407.775 177.336 408.558 177.172 409.057 177.184C409.556 177.196 410.021 177.36 410.091 177.929C410.06 178.147 410.083 178.369 410.159 178.576C410.234 178.782 410.36 178.967 410.524 179.113C411.097 179.646 411.191 182.63 411.191 182.63C411.191 182.63 415.923 180.544 417.894 180.566Z" fill="#F0D0B4"/>
<path d="M408.638 165.368C409.139 164.567 410.5 164.025 411.176 163.782C415.752 162.02 420.48 166.11 419.526 170.925C419.412 171.587 419.13 172.207 418.708 172.729C417.845 173.751 416.825 175.072 416.624 175.809C416.624 175.809 414.765 174.639 414.961 172.002C415.157 169.364 412.979 169.28 411.831 171.637L410.791 171.675C410.791 171.675 411.424 168.91 410.791 168.403C410.158 167.896 407.762 166.771 408.638 165.368Z" fill="#172B4D"/>
<path d="M407.857 169.878C407.857 169.878 408.384 170.442 408.638 170.663" stroke="#091E42" stroke-width="0.159899" stroke-linecap="round" stroke-linejoin="round"/>
<path d="M408.085 170.91C407.988 170.906 407.913 170.718 407.916 170.49C407.919 170.263 408 170.083 408.097 170.087C408.193 170.092 408.269 170.28 408.266 170.507C408.262 170.734 408.181 170.915 408.085 170.91Z" fill="#091E42"/>
<path d="M407.942 168.861C408.444 168.93 408.911 169.158 409.274 169.512" stroke="#091E42" stroke-width="0.319798" stroke-linecap="round" stroke-linejoin="round"/>
<path d="M417.915 179.847C416.884 179.574 415.6 180.276 414.572 180.596C414.185 180.717 413.784 180.851 413.384 180.997C412.646 181.289 411.931 181.635 411.246 182.033L410.967 180.476C410.967 180.476 409.678 183.945 410.43 184.173C410.523 184.187 410.619 184.178 410.708 184.147C410.798 184.116 410.878 184.064 410.943 183.995C413.065 182.226 418.516 181.073 418.61 180.833C418.604 180.831 418.209 179.925 417.915 179.847Z" fill="url(#paint36_linear)"/>
<path d="M406.845 173.321C406.845 173.321 407.892 173.092 408.435 173.864C408.705 174.251 408.924 174.346 409.066 174.366C409.073 174.367 409.079 174.371 409.084 174.376C409.089 174.381 409.092 174.387 409.093 174.394C409.095 174.401 409.094 174.408 409.091 174.414C409.088 174.421 409.083 174.426 409.076 174.429C408.795 174.591 408.095 174.92 407.613 174.5C406.996 173.96 406.855 174.238 406.855 174.238C406.855 174.238 406.24 173.648 406.845 173.321Z" fill="#172B4D"/>
<path d="M418.61 166.339C418.61 166.339 421.349 164.431 422.047 167.084C422.586 169.144 421.888 171.064 419.103 169.789L418.61 166.339Z" fill="#172B4D"/>
</g>
</g>
<rect x="551.69" y="304.062" width="164.846" height="303.812" transform="rotate(-180 551.69 304.062)" fill="url(#paint37_linear)"/>
</g>
<defs>
<filter id="filter0_d" x="-101.798" y="205.037" width="306.079" height="92.1514" filterUnits="userSpaceOnUse" color-interpolation-filters="sRGB">
<feFlood flood-opacity="0" result="BackgroundImageFix"/>
<feColorMatrix in="SourceAlpha" type="matrix" values="0 0 0 0 0 0 0 0 0 0 0 0 0 0 0 0 0 0 127 0"/>
<feOffset dx="-2.53307" dy="5.06613"/>
<feGaussianBlur stdDeviation="7.5992"/>
<feColorMatrix type="matrix" values="0 0 0 0 0.701961 0 0 0 0 0.831373 0 0 0 0 1 0 0 0 1 0"/>
<feBlend mode="normal" in2="BackgroundImageFix" result="effect1_dropShadow"/>
<feBlend mode="normal" in="SourceGraphic" in2="effect1_dropShadow" result="shape"/>
</filter>
<filter id="filter1_d" x="-84.0662" y="215.169" width="275.682" height="62.9704" filterUnits="userSpaceOnUse" color-interpolation-filters="sRGB">
<feFlood flood-opacity="0" result="BackgroundImageFix"/>
<feColorMatrix in="SourceAlpha" type="matrix" values="0 0 0 0 0 0 0 0 0 0 0 0 0 0 0 0 0 0 127 0"/>
<feOffset dy="1.21587"/>
<feColorMatrix type="matrix" values="0 0 0 0 0.0352941 0 0 0 0 0.117647 0 0 0 0 0.258824 0 0 0 0.25098 0"/>
<feBlend mode="normal" in2="BackgroundImageFix" result="effect1_dropShadow"/>
<feBlend mode="normal" in="SourceGraphic" in2="effect1_dropShadow" result="shape"/>
</filter>
<filter id="filter2_d" x="289.449" y="34.4539" width="356.816" height="144.377" filterUnits="userSpaceOnUse" color-interpolation-filters="sRGB">
<feFlood flood-opacity="0" result="BackgroundImageFix"/>
<feColorMatrix in="SourceAlpha" type="matrix" values="0 0 0 0 0 0 0 0 0 0 0 0 0 0 0 0 0 0 127 0"/>
<feOffset dx="-6.92095" dy="13.8419"/>
<feGaussianBlur stdDeviation="20.7629"/>
<feColorMatrix type="matrix" values="0 0 0 0 0.701961 0 0 0 0 0.831373 0 0 0 0 1 0 0 0 1 0"/>
<feBlend mode="normal" in2="BackgroundImageFix" result="effect1_dropShadow"/>
<feBlend mode="normal" in="SourceGraphic" in2="effect1_dropShadow" result="shape"/>
</filter>
<filter id="filter3_d" x="337.896" y="62.1377" width="273.765" height="64.6472" filterUnits="userSpaceOnUse" color-interpolation-filters="sRGB">
<feFlood flood-opacity="0" result="BackgroundImageFix"/>
<feColorMatrix in="SourceAlpha" type="matrix" values="0 0 0 0 0 0 0 0 0 0 0 0 0 0 0 0 0 0 127 0"/>
<feOffset dy="3.32206"/>
<feColorMatrix type="matrix" values="0 0 0 0 0.0352941 0 0 0 0 0.117647 0 0 0 0 0.258824 0 0 0 0.25098 0"/>
<feBlend mode="normal" in2="BackgroundImageFix" result="effect1_dropShadow"/>
<feBlend mode="normal" in="SourceGraphic" in2="effect1_dropShadow" result="shape"/>
</filter>
<filter id="filter4_d" x="252.17" y="205.126" width="597.334" height="110.128" filterUnits="userSpaceOnUse" color-interpolation-filters="sRGB">
<feFlood flood-opacity="0" result="BackgroundImageFix"/>
<feColorMatrix in="SourceAlpha" type="matrix" values="0 0 0 0 0 0 0 0 0 0 0 0 0 0 0 0 0 0 127 0"/>
<feOffset dy="4.79327"/>
<feGaussianBlur stdDeviation="7.41816"/>
<feColorMatrix type="matrix" values="0 0 0 0 0.701961 0 0 0 0 0.831373 0 0 0 0 1 0 0 0 1 0"/>
<feBlend mode="normal" in2="BackgroundImageFix" result="effect1_dropShadow"/>
<feBlend mode="normal" in="SourceGraphic" in2="effect1_dropShadow" result="shape"/>
</filter>
<filter id="filter5_d" x="267.006" y="215.169" width="567.66" height="62.5904" filterUnits="userSpaceOnUse" color-interpolation-filters="sRGB">
<feFlood flood-opacity="0" result="BackgroundImageFix"/>
<feColorMatrix in="SourceAlpha" type="matrix" values="0 0 0 0 0 0 0 0 0 0 0 0 0 0 0 0 0 0 127 0"/>
<feOffset dy="1.19091"/>
<feColorMatrix type="matrix" values="0 0 0 0 0.0352941 0 0 0 0 0.117647 0 0 0 0 0.258824 0 0 0 0.25098 0"/>
<feBlend mode="normal" in2="BackgroundImageFix" result="effect1_dropShadow"/>
<feBlend mode="normal" in="SourceGraphic" in2="effect1_dropShadow" result="shape"/>
</filter>
<filter id="filter6_d" x="71.2786" y="128.049" width="380.198" height="89.0096" filterUnits="userSpaceOnUse" color-interpolation-filters="sRGB">
<feFlood flood-opacity="0" result="BackgroundImageFix"/>
<feColorMatrix in="SourceAlpha" type="matrix" values="0 0 0 0 0 0 0 0 0 0 0 0 0 0 0 0 0 0 127 0"/>
<feOffset dy="4.52393"/>
<feGaussianBlur stdDeviation="7.00132"/>
<feColorMatrix type="matrix" values="0 0 0 0 0.701961 0 0 0 0 0.831373 0 0 0 0 1 0 0 0 1 0"/>
<feBlend mode="normal" in2="BackgroundImageFix" result="effect1_dropShadow"/>
<feBlend mode="normal" in="SourceGraphic" in2="effect1_dropShadow" result="shape"/>
</filter>
<filter id="filter7_d" x="85.2812" y="137.528" width="352.192" height="62.1283" filterUnits="userSpaceOnUse" color-interpolation-filters="sRGB">
<feFlood flood-opacity="0" result="BackgroundImageFix"/>
<feColorMatrix in="SourceAlpha" type="matrix" values="0 0 0 0 0 0 0 0 0 0 0 0 0 0 0 0 0 0 127 0"/>
<feOffset dy="1.12399"/>
<feColorMatrix type="matrix" values="0 0 0 0 0.0352941 0 0 0 0 0.117647 0 0 0 0 0.258824 0 0 0 0.4 0"/>
<feBlend mode="normal" in2="BackgroundImageFix" result="effect1_dropShadow"/>
<feBlend mode="normal" in="SourceGraphic" in2="effect1_dropShadow" result="shape"/>
</filter>
<linearGradient id="paint0_linear" x1="466.09" y1="47.6096" x2="466.09" y2="493.214" gradientUnits="userSpaceOnUse">
<stop stop-color="#E6FCFF"/>
<stop offset="1" stop-color="white" stop-opacity="0"/>
</linearGradient>
<linearGradient id="paint1_linear" x1="261.101" y1="47.6096" x2="261.101" y2="494.335" gradientUnits="userSpaceOnUse">
<stop stop-color="#4C9AFF"/>
<stop offset="1" stop-color="white" stop-opacity="0"/>
</linearGradient>
<linearGradient id="paint2_linear" x1="141.074" y1="215.169" x2="130.663" y2="296" gradientUnits="userSpaceOnUse">
<stop stop-color="white"/>
<stop offset="1" stop-color="#EAE6FF"/>
</linearGradient>
<linearGradient id="paint3_linear" x1="178.071" y1="234.937" x2="158.495" y2="268.982" gradientUnits="userSpaceOnUse">
<stop stop-color="#FFE380"/>
<stop offset="1" stop-color="#ED50B4"/>
</linearGradient>
<linearGradient id="paint4_linear" x1="178.071" y1="234.937" x2="158.495" y2="268.982" gradientUnits="userSpaceOnUse">
<stop stop-color="#FFE380"/>
<stop offset="1" stop-color="#ED50B4"/>
</linearGradient>
<linearGradient id="paint5_linear" x1="-241.02" y1="983.202" x2="-113.986" y2="983.202" gradientUnits="userSpaceOnUse">
<stop offset="0.38" stop-color="#0065FF"/>
<stop offset="1" stop-color="#2684FF"/>
</linearGradient>
<linearGradient id="paint6_linear" x1="-296.353" y1="5570.37" x2="-2852.61" y2="4291.93" gradientUnits="userSpaceOnUse">
<stop offset="0.08" stop-color="#FFC400"/>
<stop offset="0.13" stop-color="#FFC000"/>
<stop offset="0.7" stop-color="#FF9A00"/>
<stop offset="1" stop-color="#FF8B00"/>
</linearGradient>
<linearGradient id="paint7_linear" x1="-4227.86" y1="6802.24" x2="2002.77" y2="4350.33" gradientUnits="userSpaceOnUse">
<stop offset="0.08" stop-color="#FFC400"/>
<stop offset="0.13" stop-color="#FFC000"/>
<stop offset="0.7" stop-color="#FF9A00"/>
<stop offset="1" stop-color="#FF8B00"/>
</linearGradient>
<linearGradient id="paint8_linear" x1="-148.412" y1="1967.67" x2="-1068.65" y2="1967.67" gradientUnits="userSpaceOnUse">
<stop offset="0.08" stop-color="#FFC400"/>
<stop offset="0.16" stop-color="#FFC70D"/>
<stop offset="0.56" stop-color="#FFD64B"/>
<stop offset="0.85" stop-color="#FFDF71"/>
<stop offset="1" stop-color="#FFE380"/>
</linearGradient>
<linearGradient id="paint9_linear" x1="27.2211" y1="59.3247" x2="208.71" y2="59.3247" gradientUnits="userSpaceOnUse">
<stop stop-color="white"/>
<stop offset="0.732313" stop-color="white" stop-opacity="0"/>
</linearGradient>
<linearGradient id="paint10_linear" x1="-24.7102" y1="47.6433" x2="589.385" y2="47.6433" gradientUnits="userSpaceOnUse">
<stop stop-color="white" stop-opacity="0"/>
<stop offset="0.244792" stop-color="#BDC3CC" stop-opacity="0.991525"/>
<stop offset="0.729167" stop-color="#BEC4CD" stop-opacity="0.974878"/>
<stop offset="1" stop-color="white" stop-opacity="0"/>
</linearGradient>
<linearGradient id="paint11_linear" x1="561.47" y1="62.1377" x2="551.131" y2="142.407" gradientUnits="userSpaceOnUse">
<stop stop-color="#FFFAE6"/>
<stop offset="1" stop-color="#F99CDB"/>
</linearGradient>
<linearGradient id="paint12_linear" x1="834.667" y1="245.869" x2="267.006" y2="245.869" gradientUnits="userSpaceOnUse">
<stop stop-color="white"/>
<stop offset="1" stop-color="#E6FCFF"/>
</linearGradient>
<linearGradient id="paint13_linear" x1="0.888961" y1="252.583" x2="165.735" y2="252.583" gradientUnits="userSpaceOnUse">
<stop offset="0.09375" stop-color="white"/>
<stop offset="0.848958" stop-color="white" stop-opacity="0"/>
</linearGradient>
<linearGradient id="paint14_linear" x1="437.474" y1="168.03" x2="76.4765" y2="168.03" gradientUnits="userSpaceOnUse">
<stop stop-color="#00B8D9"/>
<stop offset="1" stop-color="#0065FF"/>
</linearGradient>
<linearGradient id="paint15_linear" x1="373.576" y1="193.103" x2="373.576" y2="159.972" gradientUnits="userSpaceOnUse">
<stop stop-color="#C0B6F2"/>
<stop offset="1" stop-color="#DEEBFF"/>
</linearGradient>
<linearGradient id="paint16_linear" x1="373.576" y1="193.103" x2="373.576" y2="159.972" gradientUnits="userSpaceOnUse">
<stop stop-color="#C0B6F2"/>
<stop offset="1" stop-color="#DEEBFF"/>
</linearGradient>
<linearGradient id="paint17_linear" x1="373.576" y1="193.103" x2="373.576" y2="159.972" gradientUnits="userSpaceOnUse">
<stop stop-color="#C0B6F2"/>
<stop offset="1" stop-color="#DEEBFF"/>
</linearGradient>
<linearGradient id="paint18_linear" x1="373.576" y1="193.103" x2="373.576" y2="159.972" gradientUnits="userSpaceOnUse">
<stop stop-color="#C0B6F2"/>
<stop offset="1" stop-color="#DEEBFF"/>
</linearGradient>
<linearGradient id="paint19_linear" x1="458.427" y1="180.862" x2="315.568" y2="197.972" gradientUnits="userSpaceOnUse">
<stop offset="0.35" stop-color="#FFC400"/>
<stop offset="0.9" stop-color="#FFF0B2"/>
</linearGradient>
<linearGradient id="paint20_linear" x1="458.427" y1="180.862" x2="315.568" y2="197.972" gradientUnits="userSpaceOnUse">
<stop offset="0.35" stop-color="#FFC400"/>
<stop offset="0.9" stop-color="#FFF0B2"/>
</linearGradient>
<linearGradient id="paint21_linear" x1="-2661.8" y1="-652.65" x2="5073.66" y2="4011.24" gradientUnits="userSpaceOnUse">
<stop offset="0.35" stop-color="#FFC400"/>
<stop offset="0.9" stop-color="#FFF0B2"/>
</linearGradient>
<radialGradient id="paint22_radial" cx="0" cy="0" r="1" gradientUnits="userSpaceOnUse" gradientTransform="translate(372.541 174.5) rotate(90) scale(2.1041)">
<stop stop-color="#FF7452"/>
<stop offset="1" stop-color="#FF7452" stop-opacity="0"/>
</radialGradient>
<linearGradient id="paint23_linear" x1="429.819" y1="176.825" x2="396.688" y2="176.825" gradientUnits="userSpaceOnUse">
<stop stop-color="white"/>
<stop offset="1" stop-color="#DFE1E6"/>
</linearGradient>
<linearGradient id="paint24_linear" x1="429.819" y1="176.825" x2="396.688" y2="176.825" gradientUnits="userSpaceOnUse">
<stop stop-color="white"/>
<stop offset="1" stop-color="#DFE1E6"/>
</linearGradient>
<linearGradient id="paint25_linear" x1="429.819" y1="176.825" x2="396.688" y2="176.825" gradientUnits="userSpaceOnUse">
<stop stop-color="white"/>
<stop offset="1" stop-color="#DFE1E6"/>
</linearGradient>
<linearGradient id="paint26_linear" x1="446.751" y1="205.152" x2="393.741" y2="196.93" gradientUnits="userSpaceOnUse">
<stop stop-color="#5243AA"/>
<stop offset="0.14" stop-color="#6044AB"/>
<stop offset="0.4" stop-color="#8547AD"/>
<stop offset="0.76" stop-color="#C04CB1"/>
<stop offset="1" stop-color="#ED50B4"/>
</linearGradient>
<linearGradient id="paint27_linear" x1="911.243" y1="1029.78" x2="56.4042" y2="703.183" gradientUnits="userSpaceOnUse">
<stop stop-color="#5243AA"/>
<stop offset="0.14" stop-color="#6044AB"/>
<stop offset="0.4" stop-color="#8547AD"/>
<stop offset="0.76" stop-color="#C04CB1"/>
<stop offset="1" stop-color="#ED50B4"/>
</linearGradient>
<linearGradient id="paint28_linear" x1="709.431" y1="991.982" x2="160.488" y2="868.359" gradientUnits="userSpaceOnUse">
<stop stop-color="#5243AA"/>
<stop offset="0.14" stop-color="#6044AB"/>
<stop offset="0.4" stop-color="#8547AD"/>
<stop offset="0.76" stop-color="#C04CB1"/>
<stop offset="1" stop-color="#ED50B4"/>
</linearGradient>
<linearGradient id="paint29_linear" x1="981.708" y1="879.512" x2="126.87" y2="552.95" gradientUnits="userSpaceOnUse">
<stop stop-color="#5243AA"/>
<stop offset="0.14" stop-color="#6044AB"/>
<stop offset="0.4" stop-color="#8547AD"/>
<stop offset="0.76" stop-color="#C04CB1"/>
<stop offset="1" stop-color="#ED50B4"/>
</linearGradient>
<linearGradient id="paint30_linear" x1="943.642" y1="944.485" x2="88.7714" y2="617.923" gradientUnits="userSpaceOnUse">
<stop stop-color="#5243AA"/>
<stop offset="0.14" stop-color="#6044AB"/>
<stop offset="0.4" stop-color="#8547AD"/>
<stop offset="0.76" stop-color="#C04CB1"/>
<stop offset="1" stop-color="#ED50B4"/>
</linearGradient>
<linearGradient id="paint31_linear" x1="996.626" y1="829.762" x2="141.756" y2="503.2" gradientUnits="userSpaceOnUse">
<stop stop-color="#5243AA"/>
<stop offset="0.14" stop-color="#6044AB"/>
<stop offset="0.4" stop-color="#8547AD"/>
<stop offset="0.76" stop-color="#C04CB1"/>
<stop offset="1" stop-color="#ED50B4"/>
</linearGradient>
<linearGradient id="paint32_linear" x1="807.779" y1="938.734" x2="156.9" y2="761.258" gradientUnits="userSpaceOnUse">
<stop stop-color="#5243AA"/>
<stop offset="0.14" stop-color="#6044AB"/>
<stop offset="0.4" stop-color="#8547AD"/>
<stop offset="0.76" stop-color="#C04CB1"/>
<stop offset="1" stop-color="#ED50B4"/>
</linearGradient>
<linearGradient id="paint33_linear" x1="956.322" y1="933.879" x2="101.484" y2="607.316" gradientUnits="userSpaceOnUse">
<stop stop-color="#5243AA"/>
<stop offset="0.14" stop-color="#6044AB"/>
<stop offset="0.4" stop-color="#8547AD"/>
<stop offset="0.76" stop-color="#C04CB1"/>
<stop offset="1" stop-color="#ED50B4"/>
</linearGradient>
<linearGradient id="paint34_linear" x1="972.899" y1="882.351" x2="117.585" y2="555.39" gradientUnits="userSpaceOnUse">
<stop stop-color="#5243AA"/>
<stop offset="0.14" stop-color="#6044AB"/>
<stop offset="0.4" stop-color="#8547AD"/>
<stop offset="0.76" stop-color="#C04CB1"/>
<stop offset="1" stop-color="#ED50B4"/>
</linearGradient>
<linearGradient id="paint35_linear" x1="934.507" y1="980.806" x2="79.637" y2="654.244" gradientUnits="userSpaceOnUse">
<stop stop-color="#5243AA"/>
<stop offset="0.14" stop-color="#6044AB"/>
<stop offset="0.4" stop-color="#8547AD"/>
<stop offset="0.76" stop-color="#C04CB1"/>
<stop offset="1" stop-color="#ED50B4"/>
</linearGradient>
<linearGradient id="paint36_linear" x1="1249.28" y1="849.431" x2="92.2538" y2="34.4928" gradientUnits="userSpaceOnUse">
<stop stop-color="#5243AA"/>
<stop offset="0.14" stop-color="#6044AB"/>
<stop offset="0.4" stop-color="#8547AD"/>
<stop offset="0.76" stop-color="#C04CB1"/>
<stop offset="1" stop-color="#ED50B4"/>
</linearGradient>
<linearGradient id="paint37_linear" x1="551.69" y1="556.396" x2="716.536" y2="556.396" gradientUnits="userSpaceOnUse">
<stop offset="0.09375" stop-color="white"/>
<stop offset="0.848958" stop-color="white" stop-opacity="0"/>
</linearGradient>
<clipPath id="clip0">
<rect width="540.111" height="303.812" fill="white" transform="translate(0.888916 0.25)"/>
</clipPath>
<clipPath id="clip1">
<rect width="540.111" height="303.812" fill="white" transform="translate(0.888916 0.25)"/>
</clipPath>
</defs>
</svg>
