<svg width="541" height="304" viewBox="0 0 541 304" fill="none" xmlns="http://www.w3.org/2000/svg">
<g clip-path="url(#clip0)">
<rect width="540.444" height="304" fill="white"/>
<rect opacity="0.5" x="281.481" y="18.5778" width="234.193" height="253.333" rx="3.44541" fill="#EAE6FF"/>
<rect x="291.722" y="55.616" width="213.616" height="65.4629" rx="3.44541" fill="#DFE1E6"/>
<rect x="291.723" y="54.7546" width="213.616" height="65.4629" rx="3.37778" fill="white"/>
<mask id="mask0" mask-type="alpha" maskUnits="userSpaceOnUse" x="474" y="90" width="23" height="23">
<ellipse cx="485.527" cy="101.268" rx="11.1976" ry="11.1976" fill="url(#paint0_linear)"/>
</mask>
<g mask="url(#mask0)">
</g>
<mask id="mask1" mask-type="alpha" maskUnits="userSpaceOnUse" x="474" y="90" width="23" height="23">
<ellipse cx="485.527" cy="101.268" rx="11.1976" ry="11.1976" fill="url(#paint1_linear)"/>
</mask>
<g mask="url(#mask1)">
<mask id="mask2" mask-type="alpha" maskUnits="userSpaceOnUse" x="474" y="90" width="23" height="23">
<ellipse cx="485.527" cy="101.268" rx="11.1976" ry="11.1976" fill="url(#paint2_linear)"/>
</mask>
<g mask="url(#mask2)">
<ellipse cx="485.527" cy="101.268" rx="11.1976" ry="11.1976" fill="url(#paint3_linear)"/>
<path d="M483.321 103.149C483.321 103.149 480.14 103.954 478.923 105.437C477.706 106.92 477.446 112.101 477.446 112.101L478.501 118.037C478.501 118.037 482.538 120.385 490.242 118.459L493.8 110.131C493.8 110.131 494.855 104.857 487.947 102.815L483.321 103.149Z" fill="url(#paint4_linear)"/>
<mask id="mask3" mask-type="alpha" maskUnits="userSpaceOnUse" x="477" y="102" width="17" height="18">
<path d="M483.321 103.149C483.321 103.149 480.14 103.954 478.923 105.437C477.706 106.92 477.446 112.101 477.446 112.101L478.501 118.037C478.501 118.037 482.538 120.385 490.242 118.459L493.8 110.131C493.8 110.131 494.855 104.857 487.947 102.815L483.321 103.149Z" fill="url(#paint5_linear)"/>
</mask>
<g mask="url(#mask3)">
<path d="M488.303 105.279C486.28 105.279 486.285 102.14 488.303 102.14C490.322 102.14 490.324 105.279 488.303 105.279ZM483.722 103.948C483.698 103.864 483.653 103.787 483.591 103.725L483.496 103.644C483.418 103.6 483.33 103.577 483.241 103.577C483.173 103.573 483.105 103.587 483.045 103.619C482.983 103.641 482.927 103.677 482.882 103.725C482.791 103.822 482.738 103.949 482.735 104.083C482.735 104.127 482.735 104.172 482.751 104.218C482.776 104.302 482.821 104.379 482.882 104.442L482.986 104.52C483.063 104.566 483.151 104.59 483.241 104.589C483.309 104.592 483.377 104.577 483.437 104.545C483.499 104.525 483.555 104.489 483.599 104.442C483.648 104.396 483.684 104.34 483.705 104.277C483.736 104.217 483.75 104.15 483.747 104.083C483.732 104.039 483.728 103.992 483.722 103.948ZM482.119 108.433C482.096 108.348 482.051 108.271 481.988 108.209L481.887 108.129C481.808 108.084 481.72 108.06 481.629 108.059C481.562 108.057 481.495 108.072 481.435 108.104C481.372 108.123 481.316 108.16 481.273 108.209C481.224 108.253 481.188 108.309 481.167 108.372C481.136 108.432 481.121 108.5 481.123 108.568L481.142 108.701C481.165 108.786 481.21 108.864 481.273 108.926L481.374 109.004C481.451 109.05 481.539 109.074 481.629 109.074C481.697 109.076 481.765 109.061 481.825 109.03C481.887 109.009 481.943 108.974 481.988 108.926C482.078 108.828 482.131 108.701 482.138 108.568L482.119 108.433ZM489.213 106.193C489.189 106.108 489.144 106.031 489.082 105.969L488.981 105.891C488.903 105.845 488.814 105.821 488.723 105.821C488.656 105.818 488.588 105.833 488.529 105.866C488.467 105.887 488.411 105.923 488.365 105.969C488.318 106.015 488.283 106.072 488.261 106.133C488.23 106.193 488.214 106.26 488.217 106.328L488.236 106.463C488.259 106.547 488.303 106.624 488.365 106.686C488.4 106.711 488.434 106.739 488.468 106.766C488.546 106.811 488.634 106.834 488.723 106.834C488.791 106.838 488.859 106.823 488.919 106.792C488.981 106.77 489.037 106.734 489.082 106.686C489.13 106.642 489.166 106.586 489.187 106.524C489.219 106.463 489.234 106.396 489.232 106.328L489.213 106.193ZM490.32 109.901C490.297 109.814 490.252 109.735 490.189 109.671L490.086 109.591C490.006 109.547 489.916 109.525 489.824 109.528C489.756 109.525 489.689 109.54 489.628 109.572C489.566 109.593 489.51 109.629 489.466 109.677C489.418 109.722 489.381 109.778 489.36 109.84C489.328 109.9 489.314 109.968 489.318 110.036C489.318 110.08 489.329 110.125 489.335 110.169C489.358 110.254 489.403 110.331 489.466 110.392C489.499 110.42 489.533 110.447 489.569 110.473C489.646 110.519 489.735 110.543 489.824 110.542C489.958 110.535 490.084 110.483 490.183 110.392C490.232 110.349 490.267 110.293 490.286 110.23C490.318 110.17 490.333 110.103 490.331 110.036C490.331 109.99 490.324 109.945 490.32 109.901ZM490.843 108.424C490.82 108.34 490.774 108.263 490.712 108.201L490.609 108.121C490.531 108.076 490.443 108.052 490.354 108.051C490.22 108.058 490.094 108.111 489.995 108.201C489.947 108.245 489.911 108.301 489.892 108.363C489.86 108.424 489.845 108.491 489.848 108.559C489.848 108.604 489.86 108.648 489.864 108.692C489.888 108.777 489.933 108.855 489.995 108.918L490.099 108.996C490.176 109.042 490.264 109.066 490.354 109.066C490.422 109.068 490.49 109.053 490.55 109.021C490.611 108.999 490.667 108.963 490.713 108.917C490.76 108.871 490.795 108.815 490.818 108.753C490.85 108.694 490.865 108.627 490.86 108.559C490.854 108.521 490.85 108.477 490.843 108.433V108.424ZM481.513 104.608L481.387 104.44C481.28 104.339 481.151 104.266 481.009 104.229L480.777 104.186C480.629 104.188 480.483 104.228 480.355 104.302L480.182 104.435C480.081 104.541 480.008 104.671 479.971 104.813C479.935 104.923 479.93 105.04 479.956 105.153C479.96 105.265 479.995 105.375 480.058 105.469C480.131 105.596 480.237 105.701 480.364 105.775H480.387L480.581 105.857C480.719 105.894 480.865 105.894 481.003 105.857L481.195 105.777H481.205C481.277 105.747 481.34 105.7 481.389 105.64C481.54 105.474 481.628 105.261 481.638 105.037C481.635 104.885 481.592 104.737 481.513 104.608ZM480.642 107.528C480.641 107.405 480.607 107.285 480.543 107.18C480.511 107.064 480.45 106.959 480.366 106.874C480.305 106.773 480.221 106.687 480.121 106.625C480.036 106.541 479.93 106.48 479.815 106.448C479.65 106.361 479.464 106.319 479.277 106.328L478.91 106.378L478.579 106.517L478.298 106.728L478.087 107.007C478.041 107.119 477.993 107.218 477.946 107.338C477.889 107.517 477.881 107.708 477.923 107.891C477.92 108.015 477.95 108.139 478.012 108.247C478.066 108.418 478.164 108.571 478.296 108.692L478.324 108.72C478.441 108.848 478.59 108.944 478.756 108.998C478.916 109.082 479.095 109.122 479.275 109.114L479.634 109.066C479.859 109.004 480.064 108.884 480.229 108.72L480.254 108.692C480.326 108.597 480.399 108.504 480.465 108.412L480.604 108.08C480.665 107.903 480.678 107.712 480.642 107.528ZM483.707 105.075C481.686 105.075 481.684 108.215 483.707 108.215C485.73 108.215 485.736 105.075 483.707 105.075ZM487.443 106.996C485.424 106.996 485.42 110.137 487.443 110.137C489.466 110.137 489.474 106.996 487.449 106.996H487.443ZM480.661 114.885C478.64 114.885 478.638 118.024 480.661 118.024C482.684 118.024 482.69 114.885 480.667 114.885H480.661ZM479.71 109.346C477.689 109.346 477.685 112.485 479.71 112.485C481.735 112.485 481.733 109.346 479.71 109.346ZM483.296 108.973C481.277 108.973 481.273 112.112 483.296 112.112C485.319 112.112 485.31 108.973 483.285 108.973H483.296ZM486.445 115.687C484.424 115.687 484.42 118.828 486.445 118.828C488.47 118.828 488.457 115.687 486.434 115.687H486.445ZM484.576 112.734L484.555 112.694C484.516 112.63 484.463 112.576 484.399 112.538C484.335 112.5 484.262 112.48 484.188 112.479C484.114 112.48 484.041 112.501 483.977 112.538C483.913 112.576 483.859 112.63 483.821 112.694L483.8 112.734C483.76 112.805 483.739 112.885 483.739 112.966C483.734 113.028 483.743 113.091 483.764 113.15C483.785 113.209 483.818 113.264 483.861 113.309C483.904 113.355 483.955 113.392 484.013 113.417C484.071 113.442 484.133 113.455 484.195 113.455C484.258 113.455 484.32 113.442 484.378 113.417C484.435 113.392 484.487 113.355 484.53 113.309C484.573 113.264 484.606 113.209 484.627 113.15C484.648 113.091 484.656 113.028 484.652 112.966C484.643 112.884 484.614 112.807 484.566 112.74L484.576 112.734ZM484.108 117.13L484.087 117.09C484.049 117.025 483.996 116.971 483.931 116.934C483.866 116.896 483.794 116.876 483.72 116.875C483.645 116.876 483.573 116.897 483.509 116.934C483.445 116.971 483.391 117.025 483.355 117.09L483.334 117.13C483.292 117.2 483.27 117.28 483.27 117.362C483.27 117.443 483.292 117.522 483.334 117.592C483.372 117.658 483.426 117.713 483.492 117.752C483.557 117.792 483.631 117.814 483.707 117.818C483.828 117.818 483.944 117.77 484.03 117.684C484.116 117.599 484.164 117.483 484.165 117.362C484.166 117.281 484.146 117.201 484.108 117.13ZM482.897 117.807L482.876 117.767C482.838 117.703 482.784 117.649 482.72 117.611C482.656 117.574 482.583 117.553 482.509 117.552C482.435 117.554 482.362 117.574 482.298 117.611C482.235 117.65 482.182 117.703 482.144 117.767L482.123 117.807C482.081 117.877 482.059 117.957 482.06 118.039C482.059 118.12 482.081 118.2 482.123 118.269C482.163 118.338 482.221 118.395 482.29 118.434C482.359 118.474 482.438 118.495 482.517 118.495C482.597 118.495 482.675 118.474 482.744 118.434C482.814 118.395 482.871 118.338 482.912 118.269C482.953 118.2 482.975 118.12 482.975 118.039C482.971 117.956 482.944 117.876 482.897 117.807ZM488.837 111.962C488.555 111.957 488.277 112.03 488.033 112.173C488.177 111.304 487.681 110.31 486.542 110.31C484.521 110.31 484.519 113.449 486.542 113.449C486.824 113.454 487.102 113.381 487.346 113.238C487.202 114.107 487.698 115.101 488.837 115.101C490.858 115.101 490.862 111.962 488.837 111.962ZM491.347 103.581C489.327 103.581 489.324 106.72 491.347 106.72C493.37 106.72 493.37 103.581 491.347 103.581ZM492.864 106.895C490.843 106.895 490.839 110.036 492.864 110.036C494.889 110.036 494.887 106.895 492.864 106.895Z" fill="url(#paint6_linear)"/>
</g>
<path d="M481.047 96.2783C481.047 96.2783 480.083 93.1838 483.987 92.2725C484.894 92.051 485.849 92.1618 486.681 92.5847C488.109 93.3314 489.824 95.2088 488.757 99.9086C488.757 99.9086 488.31 101.056 487.124 101.008L487.227 99.1092C487.227 99.1092 483.707 95.0612 481.047 96.2783Z" fill="#253858"/>
<path d="M487.227 99.1239C487.227 99.1239 486.976 101.953 487.94 102.813C487.94 102.813 487.438 104.984 484.553 104.771C484.361 104.757 484.174 104.702 484.005 104.611C483.836 104.519 483.688 104.393 483.572 104.24C483.455 104.087 483.373 103.911 483.329 103.723C483.286 103.536 483.638 103.398 483.676 103.21C483.879 102.803 483.743 102.329 483.513 101.746C483.576 100.527 487.227 99.1239 487.227 99.1239Z" fill="#D99476"/>
<path d="M481.284 98.0826C480.059 96.2009 481.706 94.8193 481.706 94.8193C483.767 94.6357 487.248 97.6269 487.248 97.6269C487.248 97.6269 488.197 96.1145 488.288 97.7366C488.33 98.1733 488.218 98.6111 487.972 98.974C487.725 99.3369 487.359 99.6021 486.938 99.7237C485.242 103.289 483.134 102.803 482.727 102.397C482.321 101.99 481.872 101.183 481.479 100.476C481.061 99.7237 481.136 98.8835 481.284 98.0826Z" fill="#DD9C80"/>
<path d="M483.767 100.991C483.757 101.039 483.041 100.996 482.931 100.958C482.821 100.919 482.681 100.888 482.56 100.986C482.414 100.933 482.306 100.951 482.306 100.951C482.185 100.995 482.079 101.122 482.079 101.122C482.079 101.122 482.275 101.31 482.336 101.337C482.439 101.382 482.515 101.496 482.785 101.475C483.055 101.454 483.764 101.03 483.767 100.991Z" fill="#E28963"/>
<path d="M481.626 98.8503C481.561 98.8472 481.51 98.7201 481.512 98.5664C481.514 98.4127 481.569 98.2907 481.634 98.2938C481.7 98.2969 481.751 98.424 481.748 98.5777C481.746 98.7313 481.692 98.8534 481.626 98.8503Z" fill="#091E42"/>
<path d="M483.785 97.4428C484.128 97.421 484.467 97.5097 484.755 97.6958" stroke="#091E42" stroke-width="0.227568" stroke-linecap="round" stroke-linejoin="round"/>
<path d="M481.105 97.8659C481.268 97.7581 481.456 97.7023 481.641 97.7067" stroke="#091E42" stroke-width="0.227568" stroke-linecap="round" stroke-linejoin="round"/>
<circle opacity="0.5" cx="484.827" cy="99.8908" r="1.4223" fill="url(#paint7_radial)"/>
<path d="M481.213 94.1836C480.713 95.1988 480.527 96.34 480.678 97.4616L482.262 97.2507C482.262 97.2507 481.794 96.3057 482.002 95.4197L482.741 97.1621C482.741 97.1621 485.221 96.9997 487.171 97.5608L484.612 95.0632L482.262 94.7088L481.213 94.1836Z" fill="#253858"/>
<path d="M482.519 98.3878C482.519 98.3878 482.112 98.2717 482.002 98.4152" stroke="white" stroke-width="0.135457" stroke-miterlimit="10" stroke-linecap="round"/>
<path d="M484.517 98.3624L487.168 97.5587" stroke="white" stroke-width="0.135457" stroke-miterlimit="10" stroke-linecap="round"/>
<path d="M483.538 99.4824C484.068 99.4824 484.498 99.0527 484.498 98.5227C484.498 97.9926 484.068 97.5629 483.538 97.5629C483.008 97.5629 482.578 97.9926 482.578 98.5227C482.578 99.0527 483.008 99.4824 483.538 99.4824Z" stroke="white" stroke-width="0.135457" stroke-miterlimit="10" stroke-linecap="round"/>
<path d="M481.413 99.6277C481.808 99.5666 482.069 99.1354 481.996 98.6645C481.924 98.1936 481.545 97.8614 481.15 97.9225C480.755 97.9835 480.494 98.4148 480.566 98.8856C480.639 99.3565 481.018 99.6888 481.413 99.6277Z" stroke="white" stroke-width="0.135457" stroke-miterlimit="10" stroke-linecap="round"/>
<path d="M483.884 98.6242C483.818 98.6211 483.767 98.494 483.77 98.3403C483.772 98.1867 483.826 98.0646 483.892 98.0677C483.957 98.0708 484.008 98.1979 484.006 98.3516C484.004 98.5053 483.949 98.6273 483.884 98.6242Z" fill="#091E42"/>
</g>
</g>
<path d="M329.622 59.9227H302.058C300.156 59.9227 298.613 61.4653 298.613 63.3681C298.613 65.271 300.156 66.8136 302.058 66.8136H329.622C331.525 66.8136 333.067 65.271 333.067 63.3681C333.067 61.4653 331.525 59.9227 329.622 59.9227Z" fill="#FF8F73"/>
<path fill-rule="evenodd" clip-rule="evenodd" d="M308.948 104.714C306.343 104.714 304.355 102.268 304.355 101.269C304.355 100.119 306.341 97.8231 308.948 97.8231C311.462 97.8231 313.541 100.105 313.541 101.269C313.541 102.268 311.553 104.714 308.948 104.714ZM308.948 96.675C305.779 96.675 303.206 99.4545 303.206 101.269C303.206 103.041 305.834 105.863 308.948 105.863C312.063 105.863 314.69 103.041 314.69 101.269C314.69 99.4545 312.118 96.675 308.948 96.675ZM308.936 102.408C308.302 102.408 307.787 101.893 307.787 101.26C307.787 100.627 308.302 100.112 308.936 100.112C309.569 100.112 310.084 100.627 310.084 101.26C310.084 101.893 309.569 102.408 308.936 102.408ZM308.936 98.9627C307.669 98.9627 306.638 99.9929 306.638 101.26C306.638 102.527 307.669 103.557 308.936 103.557C310.202 103.557 311.232 102.527 311.232 101.26C311.232 99.9929 310.202 98.9627 308.936 98.9627Z" fill="#7A869A"/>
<rect x="298.37" y="73.7482" width="141.867" height="9.57037" rx="1.12593" fill="#EBECF0"/>
<path fill-rule="evenodd" clip-rule="evenodd" d="M324.708 96.7274C324.092 96.7274 323.593 97.2266 323.593 97.8426V104.53C323.593 105.145 324.092 105.645 324.708 105.645H331.396C332.012 105.645 332.51 105.145 332.51 104.53V101.743C332.51 101.436 332.261 101.187 331.954 101.187C331.645 101.187 331.396 101.436 331.396 101.743V104.53H324.708V97.8426H330.281C330.59 97.8426 330.838 97.5923 330.838 97.285C330.838 96.9777 330.59 96.7274 330.281 96.7274H324.708ZM326.232 100.251C326.023 100.024 325.671 100.01 325.445 100.219C325.218 100.428 325.204 100.781 325.413 101.006L327.426 103.19C327.725 103.484 328.171 103.484 328.448 103.207L328.651 103.008C328.815 102.846 328.999 102.666 329.195 102.472C329.758 101.918 330.321 101.363 330.847 100.843L330.869 100.821C331.802 99.8977 332.511 99.1928 332.907 98.7909C333.123 98.5712 333.12 98.2194 332.902 98.0025C332.682 97.787 332.33 97.7884 332.114 98.0081C331.721 98.4057 331.015 99.1093 330.085 100.028L330.063 100.051C329.538 100.569 328.975 101.124 328.413 101.678L327.959 102.125L326.232 100.251Z" fill="#7A869A"/>
<path d="M340.651 105.377H341.539V103.868H342.574V103.055H341.539V98.0941H340.222C339.203 99.6132 338.087 101.39 337.103 103.04V103.868H340.651V105.377ZM338.032 103C338.824 101.662 339.778 100.158 340.596 98.9369H340.656V103.06H338.032V103ZM343.942 106.926L346.566 97.7761H345.829L343.205 106.926H343.942ZM349.907 105.548C351.452 105.548 352.532 104.675 352.532 103.429C352.532 102.48 351.931 101.743 351.018 101.571V101.491C351.77 101.284 352.234 100.663 352.234 99.8656C352.234 98.73 351.27 97.9225 349.907 97.9225C348.545 97.9225 347.581 98.73 347.581 99.8656C347.581 100.658 348.055 101.289 348.797 101.491V101.571C347.884 101.743 347.283 102.48 347.283 103.429C347.283 104.675 348.363 105.548 349.907 105.548ZM349.907 101.188C349.049 101.188 348.474 100.693 348.474 99.9514C348.474 99.1994 349.044 98.6997 349.907 98.6997C350.77 98.6997 351.341 99.1994 351.341 99.9514C351.341 100.693 350.765 101.188 349.907 101.188ZM349.907 104.771C348.898 104.771 348.202 104.196 348.202 103.363C348.202 102.53 348.898 101.955 349.907 101.955C350.917 101.955 351.613 102.53 351.613 103.363C351.613 104.196 350.917 104.771 349.907 104.771Z" fill="#7A869A"/>
<rect opacity="0.2" x="291.615" y="132.296" width="213.926" height="115.97" rx="3.37778" fill="#C0B6F2"/>
<rect opacity="0.8" x="298.613" y="33.2208" width="43.0677" height="9.47489" rx="2.25185" fill="#C0B6F2"/>
<g opacity="0.8">
<circle cx="502.754" cy="37.5275" r="2.58406" fill="#C0B6F2"/>
<circle cx="495.002" cy="37.5275" r="2.58406" fill="#C0B6F2"/>
<circle cx="487.249" cy="37.5275" r="2.58406" fill="#C0B6F2"/>
</g>
<rect opacity="0.5" x="28.1482" y="18.5778" width="234.288" height="447.904" rx="3.44541" fill="#EAE6FF"/>
<path d="M76.384 135.246H48.8207C46.9178 135.246 45.3752 136.789 45.3752 138.692C45.3752 140.595 46.9178 142.137 48.8207 142.137H76.384C78.2868 142.137 79.8294 140.595 79.8294 138.692C79.8294 136.789 78.2868 135.246 76.384 135.246Z" fill="#8777D9"/>
<rect x="38.4844" y="129.217" width="213.616" height="23.2565" rx="1.72271" fill="#DFE1E6"/>
<rect x="38.4844" y="128.356" width="213.616" height="23.2565" rx="1.72271" fill="white"/>
<rect x="45.3752" y="135.246" width="124.896" height="9.47489" rx="1.12593" fill="#EBECF0"/>
<rect opacity="0.8" x="45.3752" y="33.2208" width="59.4334" height="9.47489" rx="2.25185" fill="#C0B6F2"/>
<g opacity="0.8">
<circle cx="249.516" cy="37.5275" r="2.58406" fill="#C0B6F2"/>
<circle cx="241.764" cy="37.5275" r="2.58406" fill="#C0B6F2"/>
<circle cx="234.012" cy="37.5275" r="2.58406" fill="#C0B6F2"/>
</g>
<rect x="38.4844" y="300.24" width="213.616" height="65.4629" rx="3.44541" fill="#DFE1E6"/>
<path opacity="0.2" d="M38.4844 237.361C38.4844 235.459 40.0269 233.916 41.9298 233.916H248.655C250.557 233.916 252.1 235.459 252.1 237.361V311.438H38.4844V237.361Z" fill="#C0B6F2"/>
<path d="M38.4844 299.379H252.1V361.396C252.1 363.299 250.557 364.842 248.655 364.842H41.9298C40.0269 364.842 38.4844 363.299 38.4844 361.396V299.379Z" fill="white"/>
<rect x="38.4844" y="160.743" width="213.616" height="65.4629" rx="3.44541" fill="#DFE1E6"/>
<rect x="38.4844" y="159.881" width="213.616" height="65.4629" rx="3.44541" fill="white"/>
<path fill-rule="evenodd" clip-rule="evenodd" d="M51.2189 202.765C50.603 202.765 50.1038 203.265 50.1038 203.881V210.567C50.1038 211.183 50.603 211.683 51.2189 211.683H57.9073C58.5232 211.683 59.021 211.183 59.021 210.567V207.781C59.021 207.474 58.7721 207.225 58.4648 207.225C58.1562 207.225 57.9073 207.474 57.9073 207.781V210.567H51.2189V203.881H56.7921C57.1008 203.881 57.3497 203.63 57.3497 203.323C57.3497 203.016 57.1008 202.765 56.7921 202.765H51.2189ZM52.7429 206.289C52.5343 206.062 52.1826 206.048 51.9559 206.257C51.7293 206.465 51.7154 206.819 51.9239 207.044L53.9374 209.228C54.2363 209.522 54.6827 209.522 54.9594 209.245L55.1624 209.046C55.3265 208.884 55.51 208.704 55.7061 208.51C56.2692 207.956 56.8324 207.401 57.358 206.881L57.3803 206.859C58.3133 205.936 59.0224 205.231 59.4187 204.829C59.6342 204.609 59.6315 204.257 59.4132 204.04C59.1935 203.825 58.8417 203.826 58.6247 204.046C58.2326 204.444 57.5263 205.147 56.596 206.066L56.5738 206.089C56.0495 206.607 55.4864 207.162 54.9246 207.716L54.4699 208.163L52.7429 206.289Z" fill="#97A0AF"/>
<path d="M63.7911 206.186H64.6692C64.6692 205.323 65.2496 204.753 66.1228 204.753C66.9808 204.753 67.5006 205.328 67.5006 206.1C67.5006 206.741 67.2281 207.12 66.2994 208.124L63.8365 210.789V211.415H68.5504V210.597H65.0982V210.516L66.7537 208.806C68.0659 207.448 68.4293 206.842 68.4293 206.004C68.4293 204.823 67.4552 203.96 66.1833 203.96C64.7904 203.96 63.7911 204.889 63.7911 206.186ZM70.0493 212.964L72.6738 203.814H71.9369L69.3125 212.964H70.0493ZM76.0149 211.586C77.5593 211.586 78.6393 210.713 78.6393 209.467C78.6393 208.518 78.0387 207.781 77.1252 207.609V207.529C77.8772 207.322 78.3415 206.701 78.3415 205.904C78.3415 204.768 77.3776 203.96 76.0149 203.96C74.6522 203.96 73.6882 204.768 73.6882 205.904C73.6882 206.696 74.1626 207.327 74.9045 207.529V207.609C73.991 207.781 73.3904 208.518 73.3904 209.467C73.3904 210.713 74.4705 211.586 76.0149 211.586ZM76.0149 207.226C75.1569 207.226 74.5815 206.731 74.5815 205.989C74.5815 205.237 75.1518 204.738 76.0149 204.738C76.8779 204.738 77.4482 205.237 77.4482 205.989C77.4482 206.731 76.8729 207.226 76.0149 207.226ZM76.0149 210.809C75.0055 210.809 74.309 210.234 74.309 209.401C74.309 208.568 75.0055 207.993 76.0149 207.993C77.0243 207.993 77.7208 208.568 77.7208 209.401C77.7208 210.234 77.0243 210.809 76.0149 210.809Z" fill="#97A0AF"/>
<mask id="mask4" mask-type="alpha" maskUnits="userSpaceOnUse" x="221" y="195" width="23" height="23">
<path d="M232.318 217.651C238.519 217.651 243.546 212.625 243.546 206.424C243.546 200.224 238.519 195.197 232.318 195.197C226.118 195.197 221.091 200.224 221.091 206.424C221.091 212.625 226.118 217.651 232.318 217.651Z" fill="url(#paint8_linear)"/>
</mask>
<g mask="url(#mask4)">
<path d="M232.318 217.651C238.519 217.651 243.546 212.625 243.546 206.424C243.546 200.224 238.519 195.197 232.318 195.197C226.118 195.197 221.091 200.224 221.091 206.424C221.091 212.625 226.118 217.651 232.318 217.651Z" fill="url(#paint9_linear)"/>
<path d="M230.683 209.096C230.683 209.096 227.899 210.182 226.609 212.084C226.609 212.084 225.775 213.455 225.726 214.189C224.849 227.499 224.064 235.074 224.82 235.43C225.256 235.634 231.793 236.604 236.612 233.157C236.612 233.157 236.898 229.558 236.72 226.538C236.542 223.519 240.884 216.033 238.404 211.676C237.363 209.835 236.265 208.904 234.168 208.688L230.683 209.096Z" fill="url(#paint10_linear)"/>
<path d="M227.253 216.307C228.71 216.307 228.713 218.573 227.253 218.573C225.793 218.573 225.793 216.307 227.253 216.307Z" fill="url(#paint11_linear)"/>
<path d="M225.764 216.42C225.699 216.419 225.632 216.413 225.567 216.404C225.619 215.673 225.669 214.924 225.718 214.158H225.764C227.22 214.155 227.22 216.42 225.764 216.42Z" fill="url(#paint12_linear)"/>
<path d="M237.227 215.66C235.77 215.66 235.767 213.394 237.227 213.394C238.687 213.394 238.687 215.66 237.227 215.66Z" fill="url(#paint13_linear)"/>
<path d="M228.392 215.248C226.935 215.248 226.932 212.983 228.392 212.983C229.852 212.983 229.852 215.248 228.392 215.248Z" fill="url(#paint14_linear)"/>
<path d="M235.517 212.842C234.06 212.842 234.057 210.576 235.517 210.576C236.977 210.576 236.977 212.842 235.517 212.842Z" fill="url(#paint15_linear)"/>
<path d="M239.057 216.591C238.958 217.322 238.82 218.047 238.643 218.764H238.589C237.132 218.764 237.129 216.499 238.589 216.499C238.75 216.496 238.909 216.528 239.057 216.591Z" fill="url(#paint16_linear)"/>
<path d="M233.681 216.737C232.223 216.737 232.221 214.471 233.681 214.471C235.141 214.471 235.141 216.737 233.681 216.737Z" fill="url(#paint17_linear)"/>
<path d="M232.351 211.717C233.808 211.717 233.811 213.982 232.351 213.982C230.891 213.982 230.887 211.717 232.351 211.717Z" fill="url(#paint18_linear)"/>
<path d="M230.672 217.687C229.215 217.687 229.212 215.422 230.672 215.422C232.132 215.422 232.132 217.687 230.672 217.687Z" fill="url(#paint19_linear)"/>
<path d="M235.462 208.96C235.462 208.96 234.709 207.382 234.437 206.851C234.165 206.32 234.338 205.177 235.472 203.727C236.606 202.276 236.514 199.202 234.146 198.042C231.779 196.882 228.388 198.721 228.297 200.993C228.297 200.993 228.521 201.77 228.206 202.448C227.891 203.125 227.515 203.534 227.699 203.757C227.884 203.98 228.107 203.974 228.086 204.164C228.066 204.354 227.838 204.539 228.009 204.718L228.145 204.842C228.145 204.842 227.847 205.043 227.994 205.249C227.994 205.249 228.232 205.301 228.209 205.479C228.185 205.657 227.99 206.108 228.297 206.439C228.604 206.771 229.135 206.659 229.473 206.667C229.811 206.675 230.126 206.787 230.174 207.173C230.153 207.319 230.168 207.47 230.22 207.61C230.272 207.75 230.356 207.876 230.467 207.975C230.856 208.336 230.919 210.359 230.919 210.359C230.919 210.359 234.126 208.945 235.462 208.96Z" fill="#F0D0B4"/>
<path d="M229.189 198.658C229.529 198.115 230.451 197.748 230.908 197.584C234.011 196.39 237.214 199.162 236.568 202.426C236.49 202.873 236.3 203.294 236.014 203.648C235.428 204.341 234.737 205.236 234.601 205.736C234.601 205.736 233.341 204.942 233.474 203.155C233.607 201.368 232.131 201.311 231.353 202.908L230.648 202.934C230.648 202.934 231.077 201.06 230.648 200.716C230.219 200.372 228.596 199.609 229.189 198.658Z" fill="#172B4D"/>
<path opacity="0.46" d="M227.97 204.452C227.945 204.494 227.936 204.545 227.941 204.593C227.948 204.642 227.971 204.689 228.005 204.724L228.141 204.847C228.141 204.847 227.843 205.048 227.99 205.255C228.012 205.26 228.032 205.267 228.053 205.275C228.306 205.104 228.571 204.885 228.571 204.885C228.387 204.72 228.186 204.574 227.97 204.452Z" fill="#FF8F73"/>
<path d="M228.551 201.749C228.551 201.749 228.998 202.021 229.204 202.119" stroke="#091E42" stroke-width="0.0607496" stroke-linecap="round" stroke-linejoin="round"/>
<path d="M228.704 202.317C228.659 202.317 228.624 202.203 228.628 202.066C228.632 201.927 228.671 201.817 228.718 201.819C228.764 201.819 228.798 201.931 228.794 202.07C228.79 202.208 228.75 202.318 228.704 202.317Z" fill="#091E42"/>
<path d="M228.457 201.151C228.792 201.229 229.091 201.414 229.313 201.677" stroke="#091E42" stroke-width="0.121499" stroke-linecap="round" stroke-linejoin="round"/>
<path d="M235.476 208.472C234.778 208.288 233.907 208.763 233.211 208.98C232.948 209.062 232.677 209.153 232.405 209.252C231.905 209.449 231.422 209.684 230.956 209.954L230.767 208.899C230.767 208.899 229.894 211.25 230.403 211.405C230.467 211.413 230.532 211.407 230.592 211.386C230.653 211.365 230.707 211.33 230.751 211.284C232.189 210.084 235.883 209.304 235.947 209.141C235.943 209.139 235.676 208.525 235.476 208.472Z" fill="url(#paint20_linear)"/>
<path d="M228.068 204.071C228.068 204.071 228.794 204.037 229.069 204.614C229.205 204.903 229.341 204.991 229.433 205.021C229.439 205.023 229.442 205.025 229.444 205.029C229.448 205.033 229.45 205.038 229.45 205.043C229.45 205.047 229.448 205.051 229.444 205.055C229.442 205.059 229.439 205.062 229.433 205.065C229.227 205.141 228.722 205.281 228.447 204.945C228.097 204.515 227.971 204.684 227.971 204.684C227.971 204.684 227.627 204.22 228.068 204.071Z" fill="#172B4D"/>
<path d="M235.948 199.317C235.948 199.317 237.804 198.024 238.277 199.822C238.642 201.218 238.169 202.52 236.282 201.656L235.948 199.317Z" fill="#172B4D"/>
</g>
<path d="M76.384 165.05H48.8207C46.9178 165.05 45.3752 166.592 45.3752 168.495C45.3752 170.398 46.9178 171.94 48.8207 171.94H76.384C78.2868 171.94 79.8294 170.398 79.8294 168.495C79.8294 166.592 78.2868 165.05 76.384 165.05Z" fill="#FFC400"/>
<rect x="45.3752" y="178.831" width="148.153" height="9.47489" rx="1.12593" fill="#EBECF0"/>
<rect x="38.4844" y="55.616" width="213.616" height="65.4629" rx="3.44541" fill="#DFE1E6"/>
<rect x="38.4844" y="54.7546" width="213.616" height="65.4629" rx="3.37778" fill="white"/>
<path fill-rule="evenodd" clip-rule="evenodd" d="M55.8464 104.869C53.2409 104.869 51.2528 102.422 51.2528 101.423C51.2528 100.274 53.2391 97.9778 55.8464 97.9778C58.3599 97.9778 60.4392 100.26 60.4392 101.423C60.4392 102.422 58.4512 104.869 55.8464 104.869ZM55.8464 96.8297C52.6767 96.8297 50.1038 99.6092 50.1038 101.423C50.1038 103.196 52.7318 106.018 55.8464 106.018C58.9611 106.018 61.5882 103.196 61.5882 101.423C61.5882 99.6092 59.0162 96.8297 55.8464 96.8297ZM55.8335 102.563C55.1996 102.563 54.6845 102.048 54.6845 101.415C54.6845 100.782 55.1996 100.266 55.8335 100.266C56.4666 100.266 56.9817 100.782 56.9817 101.415C56.9817 102.048 56.4666 102.563 55.8335 102.563ZM55.8335 99.1174C54.5665 99.1174 53.5363 100.148 53.5363 101.415C53.5363 102.682 54.5665 103.712 55.8335 103.712C57.0997 103.712 58.1299 102.682 58.1299 101.415C58.1299 100.148 57.0997 99.1174 55.8335 99.1174Z" fill="#97A0AF"/>
<path d="M76.384 59.9227H48.8207C46.9178 59.9227 45.3752 61.4653 45.3752 63.3681C45.3752 65.271 46.9178 66.8136 48.8207 66.8136H76.384C78.2868 66.8136 79.8294 65.271 79.8294 63.3681C79.8294 61.4653 78.2868 59.9227 76.384 59.9227Z" fill="#8777D9"/>
<path d="M114.283 59.9227H86.7201C84.8172 59.9227 83.2747 61.4653 83.2747 63.3681C83.2747 65.271 84.8172 66.8136 86.7201 66.8136H114.283C116.186 66.8136 117.729 65.271 117.729 63.3681C117.729 61.4653 116.186 59.9227 114.283 59.9227Z" fill="#2684FF"/>
<path d="M83.5808 99.4847H84.4585C84.4585 98.6216 85.0391 98.0514 85.9125 98.0514C86.7704 98.0514 87.2898 98.6268 87.2898 99.3986C87.2898 100.039 87.0176 100.418 86.0891 101.423L83.6256 104.087V104.713H88.3398V103.896H84.8875V103.815L86.543 102.104C87.8557 100.747 88.2184 100.14 88.2184 99.303C88.2184 98.122 87.245 97.259 85.9728 97.259C84.58 97.259 83.5808 98.1875 83.5808 99.4847Z" fill="#97A0AF"/>
<path fill-rule="evenodd" clip-rule="evenodd" d="M73.9946 104.692C73.1161 105.551 71.6888 105.552 70.8119 104.695C69.9359 103.839 69.9376 102.443 70.8128 101.587L74.918 97.5768C75.4331 97.0729 76.2591 97.0712 76.7742 97.5751C77.2867 98.0764 77.2876 98.8852 76.7759 99.3856L72.9265 103.146C72.7827 103.288 72.5501 103.287 72.402 103.142C72.253 102.996 72.253 102.77 72.402 102.624L75.9792 99.1281C76.1988 98.9136 76.1988 98.5665 75.9792 98.352C75.7595 98.1375 75.4038 98.1375 75.1841 98.352L71.6069 101.847C71.0178 102.423 71.0204 103.345 71.6069 103.919C72.1935 104.492 73.1376 104.494 73.7216 103.923L77.571 100.162C78.5219 99.2332 78.5202 97.7275 77.5692 96.7981C76.614 95.8653 75.0765 95.8679 74.123 96.7998L70.0178 100.81C68.7042 102.095 68.7016 104.187 70.0169 105.472C71.333 106.758 73.4718 106.757 74.7896 105.469L78.6287 101.717C78.8484 101.503 78.8484 101.156 78.6287 100.941C78.4091 100.727 78.0533 100.727 77.8337 100.941L73.9946 104.692Z" fill="#97A0AF"/>
<rect x="45.6001" y="73.7482" width="100.207" height="9.57037" rx="1.12593" fill="#EBECF0"/>
<rect x="540.444" y="304" width="540.445" height="92.8888" transform="rotate(-180 540.444 304)" fill="url(#paint21_linear)"/>
<g filter="url(#filter0_d)">
<path d="M178.372 61.3782C178.702 59.5043 180.489 58.253 182.363 58.5835L385.698 94.437C387.572 94.7674 388.824 96.5544 388.493 98.4283L375.894 169.881L165.773 132.831L178.372 61.3782Z" fill="url(#paint22_linear)"/>
<path d="M167.871 120.929L378.242 158.023L367.472 219.098C367.142 220.972 365.355 222.224 363.481 221.893L159.897 185.996C158.023 185.665 156.772 183.878 157.102 182.004L167.871 120.929Z" fill="white"/>
<path fill-rule="evenodd" clip-rule="evenodd" d="M193.891 168.51C193.284 168.403 192.706 168.808 192.599 169.415L191.438 176C191.331 176.607 191.736 177.185 192.342 177.292L198.929 178.453C199.536 178.56 200.113 178.155 200.219 177.548L200.703 174.804C200.757 174.502 200.555 174.213 200.252 174.16C199.948 174.106 199.66 174.308 199.606 174.611L199.123 177.355L192.536 176.194L193.697 169.608L199.186 170.576C199.49 170.63 199.778 170.426 199.831 170.124C199.885 169.821 199.683 169.531 199.379 169.478L193.891 168.51ZM194.78 172.245C194.614 171.985 194.27 171.91 194.01 172.077C193.751 172.243 193.676 172.588 193.842 172.846L195.446 175.347C195.689 175.688 196.129 175.765 196.449 175.541L196.684 175.38C196.873 175.249 197.085 175.104 197.312 174.946C197.963 174.499 198.614 174.05 199.222 173.629L199.248 173.611C200.327 172.864 201.148 172.293 201.608 171.966C201.858 171.787 201.916 171.44 201.739 171.189C201.56 170.938 201.213 170.879 200.962 171.057C200.506 171.381 199.689 171.951 198.613 172.695L198.587 172.713C197.981 173.132 197.33 173.581 196.681 174.029L196.155 174.39L194.78 172.245Z" fill="#7A869A"/>
<path d="M208.09 179.797L208.965 179.951L209.227 178.465L210.246 178.644L210.387 177.844L209.368 177.665L210.23 172.779L208.933 172.55C207.665 173.869 206.258 175.425 205.002 176.879L204.858 177.694L208.352 178.311L208.09 179.797ZM205.924 177.001C206.936 175.821 208.137 174.506 209.154 173.445L209.214 173.455L208.498 177.516L205.913 177.06L205.924 177.001ZM211.062 181.894L215.235 173.339L214.51 173.211L210.336 181.766L211.062 181.894ZM217.832 181.514L218.707 181.669L218.969 180.183L219.988 180.362L220.129 179.562L219.11 179.382L219.972 174.497L218.674 174.268C217.407 175.587 216 177.143 214.744 178.597L214.6 179.412L218.094 180.028L217.832 181.514ZM215.665 178.719C216.678 177.539 217.878 176.224 218.896 175.163L218.955 175.173L218.239 179.234L215.655 178.778L215.665 178.719Z" fill="#7A869A"/>
<mask id="mask5" mask-type="alpha" maskUnits="userSpaceOnUse" x="339" y="189" width="23" height="23">
<ellipse cx="350.655" cy="200.389" rx="11.1976" ry="11.1976" transform="rotate(10 350.655 200.389)" fill="url(#paint23_linear)"/>
</mask>
<g mask="url(#mask5)">
</g>
<mask id="mask6" mask-type="alpha" maskUnits="userSpaceOnUse" x="339" y="189" width="23" height="23">
<ellipse cx="350.655" cy="200.389" rx="11.1976" ry="11.1976" transform="rotate(10 350.655 200.389)" fill="url(#paint24_linear)"/>
</mask>
<g mask="url(#mask6)">
<mask id="mask7" mask-type="alpha" maskUnits="userSpaceOnUse" x="339" y="189" width="23" height="23">
<ellipse cx="350.655" cy="200.389" rx="11.1976" ry="11.1976" transform="rotate(10 350.655 200.389)" fill="url(#paint25_linear)"/>
</mask>
<g mask="url(#mask7)">
<ellipse cx="350.655" cy="200.389" rx="11.1976" ry="11.1976" transform="rotate(10 350.655 200.389)" fill="url(#paint26_linear)"/>
<path d="M348.156 201.859C348.156 201.859 344.883 202.1 343.427 203.349C341.971 204.598 340.816 209.655 340.816 209.655L340.824 215.684C340.824 215.684 344.392 218.697 352.313 218.138L357.264 210.555C357.264 210.555 359.218 205.544 352.769 202.334L348.156 201.859Z" fill="url(#paint27_linear)"/>
<mask id="mask8" mask-type="alpha" maskUnits="userSpaceOnUse" x="340" y="201" width="18" height="18">
<path d="M348.156 201.859C348.156 201.859 344.883 202.1 343.427 203.349C341.971 204.598 340.816 209.655 340.816 209.655L340.824 215.684C340.824 215.684 344.392 218.697 352.313 218.138L357.264 210.555C357.264 210.555 359.218 205.544 352.769 202.334L348.156 201.859Z" fill="url(#paint28_linear)"/>
</mask>
<g mask="url(#mask8)">
<path d="M352.693 204.822C350.7 204.471 351.25 201.38 353.238 201.731C355.226 202.082 354.683 205.173 352.693 204.822ZM348.412 202.716C348.403 202.628 348.372 202.545 348.322 202.473L348.242 202.377C348.173 202.32 348.091 202.282 348.002 202.267C347.936 202.251 347.867 202.253 347.802 202.274C347.737 202.285 347.676 202.311 347.624 202.35C347.517 202.43 347.443 202.546 347.416 202.677C347.408 202.721 347.401 202.764 347.409 202.813C347.418 202.9 347.449 202.984 347.499 203.056L347.587 203.151C347.655 203.21 347.738 203.249 347.827 203.264C347.893 203.278 347.963 203.275 348.028 203.254C348.092 203.245 348.153 203.22 348.205 203.181C348.261 203.144 348.306 203.095 348.338 203.037C348.379 202.983 348.405 202.92 348.413 202.853C348.406 202.807 348.41 202.76 348.412 202.716ZM346.054 206.854C346.046 206.766 346.015 206.682 345.964 206.611L345.878 206.514C345.809 206.456 345.726 206.417 345.637 206.401C345.571 206.387 345.502 206.39 345.438 206.411C345.373 206.42 345.311 206.446 345.26 206.487C345.204 206.522 345.159 206.57 345.128 206.628C345.086 206.682 345.06 206.746 345.05 206.814L345.046 206.948C345.053 207.036 345.084 207.121 345.135 207.193L345.221 207.288C345.29 207.346 345.372 207.385 345.461 207.4C345.527 207.415 345.597 207.411 345.662 207.391C345.726 207.382 345.787 207.356 345.84 207.317C345.945 207.236 346.02 207.12 346.049 206.99L346.054 206.854ZM353.429 205.88C353.421 205.792 353.39 205.708 353.339 205.637L353.253 205.542C353.184 205.483 353.101 205.444 353.012 205.429C352.946 205.414 352.877 205.417 352.813 205.439C352.748 205.449 352.687 205.474 352.633 205.512C352.579 205.55 352.535 205.599 352.503 205.656C352.461 205.709 352.434 205.773 352.425 205.84L352.421 205.976C352.428 206.063 352.459 206.146 352.508 206.218C352.539 206.25 352.568 206.282 352.596 206.315C352.665 206.372 352.748 206.411 352.836 206.426C352.902 206.442 352.972 206.439 353.037 206.419C353.101 206.409 353.163 206.383 353.215 206.343C353.27 206.308 353.316 206.259 353.347 206.201C353.388 206.147 353.415 206.083 353.425 206.016L353.429 205.88ZM353.876 209.724C353.869 209.634 353.838 209.549 353.787 209.475L353.699 209.378C353.628 209.321 353.543 209.283 353.453 209.27C353.386 209.256 353.317 209.259 353.252 209.28C353.187 209.289 353.126 209.315 353.073 209.355C353.018 209.391 352.973 209.44 352.941 209.497C352.9 209.551 352.873 209.615 352.866 209.683C352.858 209.726 352.861 209.772 352.859 209.817C352.867 209.904 352.898 209.988 352.949 210.06C352.978 210.092 353.006 210.125 353.037 210.156C353.105 210.215 353.188 210.254 353.276 210.269C353.409 210.286 353.543 210.256 353.656 210.184C353.711 210.149 353.756 210.1 353.786 210.042C353.827 209.989 353.854 209.926 353.863 209.859C353.871 209.813 353.872 209.768 353.876 209.724ZM354.648 208.361C354.639 208.273 354.608 208.19 354.558 208.118L354.47 208.021C354.401 207.963 354.319 207.924 354.23 207.908C354.098 207.891 353.964 207.921 353.851 207.993C353.796 208.028 353.751 208.077 353.721 208.135C353.68 208.189 353.653 208.253 353.644 208.321C353.636 208.364 353.641 208.41 353.637 208.454C353.646 208.542 353.677 208.627 353.727 208.699L353.815 208.794C353.883 208.853 353.966 208.892 354.054 208.907C354.121 208.921 354.19 208.918 354.255 208.898C354.32 208.886 354.381 208.861 354.434 208.823C354.488 208.785 354.533 208.737 354.566 208.68C354.607 208.627 354.633 208.564 354.641 208.496C354.641 208.458 354.645 208.414 354.646 208.369L354.648 208.361ZM346.122 202.982L346.027 202.794C345.939 202.677 345.824 202.583 345.691 202.521L345.47 202.439C345.324 202.415 345.174 202.429 345.035 202.48L344.841 202.581C344.723 202.667 344.629 202.783 344.568 202.916C344.514 203.018 344.488 203.133 344.494 203.248C344.479 203.36 344.494 203.474 344.539 203.577C344.59 203.715 344.675 203.837 344.787 203.932L344.81 203.936L344.987 204.05C345.117 204.111 345.26 204.136 345.402 204.124L345.605 204.078L345.616 204.08C345.692 204.063 345.762 204.028 345.82 203.977C345.998 203.84 346.122 203.645 346.17 203.426C346.194 203.276 346.177 203.123 346.122 202.982ZM344.757 205.706C344.778 205.585 344.765 205.461 344.72 205.346C344.708 205.227 344.666 205.113 344.598 205.014C344.556 204.904 344.489 204.805 344.401 204.727C344.331 204.629 344.238 204.551 344.13 204.499C343.982 204.385 343.807 204.311 343.621 204.287L343.251 204.273L342.901 204.353L342.588 204.512L342.332 204.75C342.267 204.852 342.202 204.941 342.135 205.051C342.048 205.217 342.007 205.404 342.016 205.591C341.991 205.714 342 205.84 342.042 205.958C342.066 206.135 342.136 206.303 342.245 206.446L342.267 206.477C342.361 206.625 342.491 206.745 342.645 206.827C342.787 206.937 342.957 207.008 343.135 207.031L343.497 207.046C343.729 207.024 343.952 206.942 344.143 206.808L344.173 206.786C344.26 206.705 344.349 206.626 344.429 206.546L344.624 206.244C344.715 206.08 344.761 205.894 344.757 205.706ZM348.201 203.822C346.211 203.472 345.664 206.564 347.656 206.916C349.648 207.267 350.2 204.175 348.201 203.822ZM351.547 206.364C349.559 206.013 349.009 209.106 351.001 209.457C352.994 209.808 353.547 206.716 351.553 206.365L351.547 206.364ZM343.498 212.955C341.508 212.605 340.961 215.695 342.953 216.047C344.945 216.398 345.497 213.308 343.504 212.957L343.498 212.955ZM343.523 207.335C341.533 206.984 340.984 210.075 342.978 210.426C344.972 210.778 345.515 207.686 343.523 207.335ZM347.119 207.59C345.131 207.239 344.582 210.33 346.574 210.681C348.567 211.032 349.103 207.94 347.109 207.588L347.119 207.59ZM349.055 214.749C347.065 214.398 346.515 217.491 348.51 217.842C350.504 218.194 351.037 215.099 349.045 214.747L349.055 214.749ZM347.727 211.516L347.714 211.473C347.687 211.404 347.643 211.341 347.587 211.292C347.53 211.245 347.462 211.212 347.389 211.198C347.316 211.186 347.241 211.194 347.171 211.219C347.102 211.246 347.04 211.289 346.991 211.346L346.963 211.382C346.911 211.444 346.876 211.519 346.862 211.599C346.847 211.66 346.845 211.724 346.855 211.786C346.866 211.847 346.889 211.906 346.923 211.959C346.957 212.012 347.002 212.057 347.054 212.091C347.107 212.126 347.165 212.149 347.227 212.16C347.289 212.171 347.352 212.169 347.413 212.154C347.474 212.14 347.532 212.113 347.582 212.075C347.632 212.037 347.674 211.99 347.705 211.935C347.736 211.881 347.755 211.82 347.762 211.758C347.767 211.676 347.752 211.595 347.716 211.521L347.727 211.516ZM346.503 215.764L346.489 215.721C346.464 215.651 346.42 215.588 346.362 215.54C346.306 215.492 346.238 215.46 346.165 215.446C346.092 215.434 346.017 215.442 345.947 215.467C345.877 215.493 345.815 215.537 345.768 215.594L345.74 215.63C345.687 215.692 345.652 215.767 345.638 215.847C345.624 215.927 345.631 216.009 345.66 216.085C345.687 216.156 345.73 216.22 345.788 216.27C345.845 216.32 345.914 216.355 345.989 216.372C346.108 216.393 346.231 216.366 346.33 216.297C346.429 216.228 346.497 216.122 346.519 216.003C346.534 215.923 346.528 215.841 346.503 215.764ZM345.193 216.221L345.179 216.178C345.153 216.108 345.109 216.046 345.052 215.997C344.996 215.949 344.928 215.916 344.855 215.902C344.782 215.891 344.707 215.898 344.637 215.924C344.568 215.951 344.506 215.994 344.458 216.051L344.43 216.086C344.377 216.148 344.342 216.224 344.328 216.304C344.314 216.384 344.321 216.466 344.35 216.541C344.378 216.616 344.425 216.682 344.486 216.733C344.547 216.784 344.621 216.818 344.699 216.832C344.778 216.846 344.859 216.839 344.934 216.812C345.009 216.785 345.075 216.739 345.127 216.678C345.18 216.617 345.216 216.543 345.229 216.463C345.24 216.38 345.227 216.297 345.193 216.221ZM352.058 211.496C351.781 211.443 351.494 211.466 351.23 211.564C351.522 210.733 351.206 209.669 350.084 209.471C348.094 209.12 347.547 212.211 349.539 212.562C349.816 212.616 350.103 212.592 350.367 212.494C350.075 213.325 350.391 214.389 351.513 214.587C353.503 214.938 354.052 211.848 352.058 211.496ZM355.985 203.678C353.995 203.328 353.448 206.418 355.44 206.77C357.432 207.121 357.977 204.03 355.985 203.678ZM356.903 207.205C354.913 206.854 354.364 209.947 356.358 210.299C358.352 210.65 358.895 207.557 356.903 207.205Z" fill="url(#paint29_linear)"/>
</g>
<path d="M347.109 194.698C347.109 194.698 346.697 191.483 350.701 191.264C351.632 191.203 352.554 191.478 353.299 192.039C354.576 193.022 355.939 195.169 354.072 199.612C354.072 199.612 353.432 200.664 352.273 200.411L352.704 198.559C352.704 198.559 349.94 193.961 347.109 194.698Z" fill="#253858"/>
<path d="M352.702 198.574C352.702 198.574 351.963 201.316 352.763 202.331C352.763 202.331 351.892 204.381 349.087 203.67C348.901 203.623 348.726 203.537 348.576 203.418C348.425 203.298 348.302 203.148 348.213 202.977C348.125 202.806 348.074 202.618 348.064 202.426C348.054 202.234 348.425 202.16 348.494 201.98C348.765 201.615 348.714 201.125 348.588 200.511C348.862 199.321 352.702 198.574 352.702 198.574Z" fill="#D99476"/>
<path d="M347.03 196.516C346.15 194.45 348.012 193.376 348.012 193.376C350.074 193.553 352.982 197.103 352.982 197.103C352.982 197.103 354.179 195.778 353.987 197.391C353.953 197.829 353.767 198.241 353.461 198.555C353.155 198.87 352.749 199.067 352.312 199.114C350.023 202.33 348.032 201.486 347.702 201.015C347.372 200.545 347.07 199.671 346.806 198.907C346.525 198.093 346.745 197.279 347.03 196.516Z" fill="#DD9C80"/>
<path d="M348.969 199.811C348.951 199.857 348.254 199.69 348.152 199.633C348.051 199.576 347.918 199.521 347.782 199.597C347.647 199.519 347.538 199.518 347.538 199.518C347.412 199.54 347.284 199.647 347.284 199.647C347.284 199.647 347.444 199.867 347.5 199.904C347.593 199.966 347.649 200.091 347.919 200.117C348.189 200.143 348.96 199.849 348.969 199.811Z" fill="#E28963"/>
<path d="M347.233 197.332C347.17 197.317 347.141 197.183 347.17 197.032C347.199 196.881 347.274 196.771 347.338 196.785C347.401 196.799 347.43 196.933 347.401 197.084C347.372 197.235 347.297 197.346 347.233 197.332Z" fill="#091E42"/>
<path d="M349.604 196.32C349.945 196.358 350.264 196.505 350.515 196.738" stroke="#091E42" stroke-width="0.227568" stroke-linecap="round" stroke-linejoin="round"/>
<path d="M346.891 196.272C347.07 196.194 347.265 196.171 347.446 196.208" stroke="#091E42" stroke-width="0.227568" stroke-linecap="round" stroke-linejoin="round"/>
<circle opacity="0.5" cx="350.205" cy="198.912" r="1.4223" transform="rotate(10 350.205 198.912)" fill="url(#paint30_radial)"/>
<path d="M347.637 192.664C346.968 193.577 346.586 194.668 346.54 195.799L348.137 195.867C348.137 195.867 347.84 194.855 348.199 194.018L348.624 195.862C348.624 195.862 351.095 196.133 352.917 197.024L350.831 194.12L348.578 193.363L347.637 192.664Z" fill="#253858"/>
<path d="M348.193 197.031C348.193 197.031 347.812 196.846 347.679 196.968" stroke="white" stroke-width="0.135457" stroke-miterlimit="10" stroke-linecap="round"/>
<path d="M350.165 197.353L352.915 197.022" stroke="white" stroke-width="0.135457" stroke-miterlimit="10" stroke-linecap="round"/>
<path d="M349.006 198.286C349.528 198.378 350.026 198.03 350.118 197.507C350.21 196.985 349.862 196.488 349.339 196.396C348.817 196.304 348.32 196.652 348.228 197.174C348.136 197.696 348.484 198.194 349.006 198.286Z" stroke="white" stroke-width="0.135457" stroke-miterlimit="10" stroke-linecap="round"/>
<path d="M346.889 198.06C347.288 198.069 347.62 197.689 347.63 197.213C347.64 196.737 347.325 196.343 346.925 196.335C346.526 196.327 346.194 196.706 346.183 197.182C346.173 197.659 346.489 198.052 346.889 198.06Z" stroke="white" stroke-width="0.135457" stroke-miterlimit="10" stroke-linecap="round"/>
<path d="M349.496 197.501C349.432 197.486 349.404 197.352 349.432 197.201C349.461 197.051 349.536 196.94 349.6 196.954C349.664 196.969 349.692 197.103 349.663 197.254C349.634 197.405 349.559 197.515 349.496 197.501Z" fill="#091E42"/>
</g>
</g>
<mask id="mask9" mask-type="alpha" maskUnits="userSpaceOnUse" x="310" y="184" width="24" height="23">
<path d="M319.888 206.395C325.994 207.472 331.818 203.394 332.894 197.288C333.971 191.181 329.894 185.358 323.787 184.282C317.681 183.205 311.858 187.282 310.781 193.389C309.704 199.495 313.782 205.318 319.888 206.395Z" fill="url(#paint31_linear)"/>
</mask>
<g mask="url(#mask9)">
<g filter="url(#filter1_dd)">
<path d="M319.888 206.395C325.994 207.472 331.818 203.394 332.894 197.288C333.971 191.181 329.894 185.358 323.787 184.282C317.681 183.205 311.858 187.282 310.781 193.389C309.704 199.495 313.782 205.318 319.888 206.395Z" fill="url(#paint32_linear)"/>
</g>
<path d="M319.065 188.625C319.065 188.625 317.948 189.576 317.887 190.86C317.851 191.63 317.151 192.089 316.889 192.532C316.742 192.778 316.866 193.077 317.377 193.244C317.254 193.402 317.1 193.533 316.924 193.627C316.924 193.627 316.664 194.066 317.09 194.148C317.09 194.148 316.8 194.185 316.751 194.411C316.751 194.411 316.653 194.71 317.021 194.794C317.391 194.878 316.716 195.449 317.265 196.118C317.665 196.602 318.703 196.529 319.094 196.365C319.303 197.24 319.441 198.129 319.508 199.026C319.508 199.026 322.517 200.308 323.61 198.456C323.61 198.456 322.95 197.438 323.37 195.755C323.37 195.755 325.405 193.697 325.745 192.34C326.086 190.983 325.391 188.61 323.509 188.063C321.627 187.515 319.476 188.006 319.065 188.625Z" fill="#543E36"/>
<path d="M318.447 191.407C318.447 191.407 318.82 191.774 318.999 191.915" stroke="#091E42" stroke-width="0.0607496" stroke-linecap="round" stroke-linejoin="round"/>
<path d="M318.553 192.111C318.508 192.102 318.494 191.985 318.521 191.851C318.549 191.715 318.608 191.612 318.652 191.621C318.697 191.631 318.711 191.748 318.683 191.883C318.657 192.018 318.597 192.121 318.553 192.111Z" fill="#091E42"/>
<path d="M318.542 190.791C318.885 190.809 319.214 190.936 319.479 191.153" stroke="#091E42" stroke-width="0.121499" stroke-linecap="round" stroke-linejoin="round"/>
<path d="M318.993 188.682C318.993 188.682 319.823 187.861 321.678 187.79C321.678 187.79 321.55 187.359 322.617 187.142C322.617 187.142 323.118 185.517 325.257 186.152C327.396 186.789 329.875 193.039 325.406 193.529C325.406 193.529 325.511 195.007 323.802 195.486C323.521 195.566 323.334 195.932 323.273 196.256C323.273 196.256 321.623 195.318 322.356 193.969C323.088 192.62 322.24 191.533 321.213 192.984C321.211 192.992 321.426 190.127 318.993 188.682Z" fill="#172B4D"/>
<path d="M311.81 207.323C311.81 207.323 312.42 203.86 313.405 203.068C315.458 200.81 317.299 199.755 319.106 198.411C318.629 197.96 317.228 197.07 317.627 196.557C318.026 196.045 320.636 195.794 322.716 195.642C324.796 195.492 324.299 195.783 324.011 196.794C323.722 197.804 326.337 200.657 326.718 201.017C328.411 202.563 333.337 210.352 333.051 211.734C332.764 213.116 331.564 215.153 323.811 215.421L322.954 213.76C322.511 214.022 322.144 214.21 321.98 214.464C321.385 215.391 321.123 220.268 321.123 220.268C315.383 222.23 309.653 219.241 308.569 218.054C307.483 216.866 311.81 207.323 311.81 207.323ZM325.657 209.548C325.579 210.138 325.427 210.717 325.208 211.271C325.656 211.008 326.138 210.729 326.647 210.445C326.295 210.172 325.962 209.874 325.648 209.557L325.657 209.548Z" fill="url(#paint33_linear)"/>
<mask id="mask10" mask-type="alpha" maskUnits="userSpaceOnUse" x="308" y="195" width="26" height="26">
<path d="M311.81 207.323C311.81 207.323 312.482 204.659 313.574 202.891C315.447 200.877 317.311 199.688 319.106 198.411C318.629 197.96 317.228 197.07 317.627 196.557C318.026 196.045 320.636 195.793 322.716 195.642C324.796 195.492 324.299 195.783 324.011 196.794C323.722 197.804 326.337 200.657 326.718 201.016C328.411 202.563 333.337 210.352 333.051 211.734C332.764 213.116 331.564 215.153 323.811 215.421L322.954 213.76C322.511 214.022 322.144 214.21 321.98 214.464C321.385 215.391 321.123 220.268 321.123 220.268C315.383 222.23 309.653 219.241 308.569 218.054C307.483 216.866 311.81 207.323 311.81 207.323ZM325.657 209.548C325.579 210.138 325.427 210.717 325.208 211.271C325.656 211.008 326.138 210.729 326.647 210.445C326.296 210.171 325.962 209.874 325.648 209.557L325.657 209.548Z" fill="url(#paint34_linear)"/>
</mask>
<g mask="url(#mask10)">
<path d="M326.365 214.131C326.561 214.756 326.797 215.367 327.071 215.962C327.432 216.747 328.647 216.324 328.346 215.49C328.012 214.568 327.501 213.675 327.326 212.708C327.23 212.254 327.258 211.781 327.407 211.342C327.744 210.498 328.298 210.718 328.845 211.163C330.221 212.269 331.185 213.805 331.759 215.446C332.074 216.335 333.416 215.83 333.127 214.939C332.833 214.057 332.425 213.215 331.913 212.438C331.034 210.624 329.489 208.775 327.553 209.321C326.278 209.675 325.898 210.732 325.938 211.942C325.939 212.692 326.084 213.436 326.365 214.131ZM328.375 212.445C328.409 212.379 328.461 212.325 328.524 212.287C328.587 212.252 328.661 212.233 328.733 212.236C328.807 212.241 328.878 212.264 328.938 212.306C328.998 212.35 329.044 212.408 329.072 212.476C329.193 212.742 329.299 213.009 329.39 213.274C329.518 213.567 329.655 213.852 329.814 214.148C330.107 214.692 330.439 215.365 330.022 215.911C329.968 215.973 329.9 216.023 329.824 216.055C329.749 216.089 329.667 216.103 329.583 216.1C329.501 216.096 329.421 216.074 329.348 216.033C329.275 215.993 329.213 215.938 329.166 215.87C328.962 215.618 328.983 215.318 328.9 215.014C328.805 214.715 328.692 214.421 328.561 214.136C328.34 213.615 328.116 213.003 328.367 212.443L328.375 212.445ZM321.806 211.778C321.932 211.494 322.161 211.27 322.446 211.149C323.307 210.832 324.27 211.817 324.701 212.468C325.305 213.379 325.435 214.425 325.333 215.47C325.35 215.999 325.304 216.527 325.196 217.045C325.03 217.84 323.834 217.63 323.952 216.825C324.096 215.927 324.028 215.006 323.756 214.137C323.649 213.822 323.472 213.3 323.251 213.058C322.948 212.722 322.682 212.729 322.488 212.897C322.482 212.935 322.474 212.975 322.467 213.016C322.387 213.946 322.508 214.881 322.82 215.761C323.003 216.33 323.288 216.887 323.41 217.472C323.629 217.903 323.837 218.323 323.996 218.722C324.313 219.522 323.121 219.931 322.764 219.179C321.966 217.511 319.737 213.364 321.796 211.777L321.806 211.778ZM325.301 203.639C327.38 203.854 329.345 204.695 330.935 206.053C331.277 206.343 330.901 206.991 330.491 206.737C328.997 205.814 327.371 205.089 325.608 204.901C325.258 204.864 324.397 204.701 324.172 205.024C323.683 205.73 324.823 205.881 325.13 205.96C326.076 206.203 327.027 206.427 327.97 206.677C330.476 207.311 334.405 208.382 334.897 211.442C335.015 212.182 334 212.457 333.597 211.92C332.932 211.028 332.45 210.212 331.476 209.617C330.436 208.985 329.247 208.65 328.081 208.341C326.914 208.032 325.72 207.778 324.577 207.41C323.85 207.177 323.125 206.82 322.789 206.092C321.992 204.378 323.912 203.507 325.301 203.639ZM311.974 197.237C313.383 197.126 314.561 197.631 315.759 198.32C316.959 199.007 318.263 199.946 319.735 199.531C321.13 199.141 322.281 198.143 323.654 197.696C325.215 197.214 326.865 197.087 328.481 197.323C329.308 197.433 329.139 198.55 328.425 198.693C326.714 199.038 324.926 199.051 323.316 199.796C322.115 200.355 321.027 201.164 319.692 201.38C318.405 201.584 317.189 201.153 316.078 200.526C315.225 200.053 314.338 199.378 313.383 199.087C314.714 201.682 317.588 203.168 320.586 202.162C322.092 201.658 323.161 200.496 324.85 200.585C325.488 200.623 326.111 200.804 326.671 201.118C327.229 201.432 327.711 201.868 328.076 202.393C328.435 202.888 327.683 203.404 327.304 202.936C326.99 202.541 326.589 202.226 326.131 202.016C325.673 201.805 325.173 201.706 324.669 201.724C323.641 201.759 322.907 202.417 322.061 202.913C320.739 203.695 319.209 204.056 317.676 203.945C314.479 203.721 311.872 201.259 311.19 198.187C311.089 197.731 311.55 197.271 311.974 197.237ZM315.069 194.468C316.572 195.142 317.714 196.252 319.387 196.62C320.904 196.954 322.523 196.669 323.728 195.659C324.019 195.418 324.385 195.884 324.149 196.15C321.638 198.989 316.583 198.03 314.378 195.241C314.012 194.786 314.621 194.266 315.069 194.468ZM306.139 212.293C307.048 213.515 308.078 214.641 309.215 215.655C309.718 216.104 310.242 216.53 310.787 216.928C311.003 217.088 311.522 217.516 311.608 217.421C311.668 217.357 311.468 216.722 311.435 216.601C311.004 215.036 308.52 212.12 310.948 210.885C313.015 209.833 315.157 212.873 316.134 214.255C317.852 216.689 319.613 218.935 321.957 220.804C322.347 221.121 321.856 221.681 321.457 221.396C319.222 219.8 317.251 217.863 315.618 215.654C314.791 214.537 313.971 213.357 312.822 212.543C312.472 212.294 311.756 211.765 311.402 212.471C311.279 212.716 311.54 213.165 311.648 213.366C311.944 213.909 312.328 214.402 312.592 214.96C313.043 215.884 313.536 217.21 313.195 218.236C312.827 219.344 311.674 219.447 310.765 218.95C308.388 217.644 306.325 215.437 304.694 213.311C304.001 212.404 305.459 211.381 306.139 212.293ZM314.667 217.454C314.757 217.45 314.846 217.459 314.934 217.479C315.102 217.486 315.266 217.525 315.421 217.592C316.191 217.91 316.749 219.133 317.26 219.749C318.069 220.729 319.007 221.591 319.78 222.595C320.251 223.202 319.406 223.813 318.853 223.438C317.649 222.625 316.712 221.44 315.845 220.289C315.626 219.998 315.413 219.701 315.21 219.403L315.18 219.358C315.372 220.005 315.268 221.115 315.297 221.793C315.346 222.736 313.904 222.879 313.834 221.933C313.764 220.882 312.687 217.51 314.667 217.454ZM306.284 206.482C308.622 206.347 311.117 206.664 313.297 207.554C314.327 207.986 315.273 208.591 316.098 209.343C316.958 210.11 318.787 211.936 319.821 210.416C320.855 208.897 318.687 208.059 317.622 207.636C316.342 207.13 315.04 206.669 313.805 206.039C311.892 205.055 310.243 203.614 309.48 201.566C309.295 201.068 310.063 200.622 310.331 201.118C311.847 203.903 314.89 205.04 317.69 206.1C318.883 206.555 320.334 206.945 321.059 208.089C321.355 208.555 321.508 209.096 321.501 209.648C321.495 210.198 321.329 210.737 321.023 211.195C320.711 211.649 320.273 212.002 319.762 212.208C319.251 212.416 318.691 212.468 318.152 212.359C316.794 212.108 315.864 211.092 314.855 210.255C312.368 208.193 309.229 208.362 306.225 207.889C305.445 207.76 305.485 206.524 306.285 206.477L306.284 206.482Z" fill="url(#paint35_linear)"/>
</g>
</g>
<path d="M204.298 132.6L177.153 127.814C175.279 127.483 173.492 128.735 173.162 130.608C172.831 132.482 174.083 134.269 175.956 134.6L203.101 139.386C204.975 139.717 206.762 138.465 207.092 136.591C207.423 134.717 206.172 132.93 204.298 132.6Z" fill="#00C7E6"/>
<path d="M241.621 139.181L214.477 134.395C212.603 134.064 210.816 135.316 210.485 137.19C210.155 139.064 211.406 140.851 213.28 141.181L240.425 145.967C242.299 146.298 244.086 145.046 244.416 143.173C244.747 141.299 243.495 139.512 241.621 139.181Z" fill="#FFB0E1"/>
<path fill-rule="evenodd" clip-rule="evenodd" d="M176.161 173.121C173.595 172.668 172.062 169.914 172.235 168.93C172.435 167.798 174.789 165.882 177.357 166.335C179.832 166.771 181.484 169.379 181.282 170.525C181.108 171.509 178.726 173.573 176.161 173.121ZM177.557 165.204C174.435 164.654 171.418 166.944 171.103 168.731C170.796 170.476 172.894 173.712 175.961 174.252C179.028 174.793 182.106 172.471 182.413 170.725C182.728 168.938 180.678 165.754 177.557 165.204ZM176.548 170.848C175.924 170.738 175.506 170.141 175.616 169.518C175.726 168.894 176.323 168.476 176.947 168.586C177.571 168.696 177.988 169.293 177.878 169.916C177.768 170.54 177.172 170.958 176.548 170.848ZM177.147 167.455C175.899 167.235 174.705 168.07 174.485 169.318C174.265 170.566 175.101 171.759 176.349 171.979C177.596 172.199 178.789 171.364 179.009 170.116C179.229 168.868 178.394 167.675 177.147 167.455Z" fill="#7A869A"/>
<rect x="171.367" y="140.788" width="133.09" height="9.47489" rx="1.12593" transform="rotate(10 171.367 140.788)" fill="#EBECF0"/>
</g>
<g style="mix-blend-mode:multiply">
<path d="M259.236 88.5978L222.688 107.108L192.533 124.055L336.825 149.522L305.976 112.058L285.76 119.953L259.236 88.5978Z" fill="#EAE6FF"/>
<circle cx="341.827" cy="107.634" r="10.2973" transform="rotate(10.0094 341.827 107.634)" fill="#EAE6FF"/>
</g>
</g>
<defs>
<filter id="filter0_d" x="135.515" y="40.4421" width="274.564" height="206.483" filterUnits="userSpaceOnUse" color-interpolation-filters="sRGB">
<feFlood flood-opacity="0" result="BackgroundImageFix"/>
<feColorMatrix in="SourceAlpha" type="matrix" values="0 0 0 0 0 0 0 0 0 0 0 0 0 0 0 0 0 0 127 0"/>
<feOffset dy="3.44541"/>
<feGaussianBlur stdDeviation="10.7669"/>
<feColorMatrix type="matrix" values="0 0 0 0 0 0 0 0 0 0 0 0 0 0 0 0 0 0 0.15 0"/>
<feBlend mode="normal" in2="BackgroundImageFix" result="effect1_dropShadow"/>
<feBlend mode="normal" in="SourceGraphic" in2="effect1_dropShadow" result="shape"/>
</filter>
<filter id="filter1_dd" x="308.317" y="183.291" width="27.0416" height="27.0416" filterUnits="userSpaceOnUse" color-interpolation-filters="sRGB">
<feFlood flood-opacity="0" result="BackgroundImageFix"/>
<feColorMatrix in="SourceAlpha" type="matrix" values="0 0 0 0 0 0 0 0 0 0 0 0 0 0 0 0 0 0 127 0"/>
<feOffset/>
<feGaussianBlur stdDeviation="0.0409227"/>
<feColorMatrix type="matrix" values="0 0 0 0 0.0352941 0 0 0 0 0.117647 0 0 0 0 0.258824 0 0 0 0.31 0"/>
<feBlend mode="normal" in2="BackgroundImageFix" result="effect1_dropShadow"/>
<feColorMatrix in="SourceAlpha" type="matrix" values="0 0 0 0 0 0 0 0 0 0 0 0 0 0 0 0 0 0 127 0"/>
<feOffset dy="1.47322"/>
<feGaussianBlur stdDeviation="1.14584"/>
<feColorMatrix type="matrix" values="0 0 0 0 0.0352941 0 0 0 0 0.117647 0 0 0 0 0.258824 0 0 0 0.15 0"/>
<feBlend mode="normal" in2="effect1_dropShadow" result="effect2_dropShadow"/>
<feBlend mode="normal" in="SourceGraphic" in2="effect2_dropShadow" result="shape"/>
</filter>
<linearGradient id="paint0_linear" x1="485.527" y1="112.465" x2="485.527" y2="90.0701" gradientUnits="userSpaceOnUse">
<stop stop-color="#C0B6F2"/>
<stop offset="1" stop-color="#DEEBFF"/>
</linearGradient>
<linearGradient id="paint1_linear" x1="485.527" y1="112.465" x2="485.527" y2="90.0701" gradientUnits="userSpaceOnUse">
<stop stop-color="#C0B6F2"/>
<stop offset="1" stop-color="#DEEBFF"/>
</linearGradient>
<linearGradient id="paint2_linear" x1="485.527" y1="112.465" x2="485.527" y2="90.0701" gradientUnits="userSpaceOnUse">
<stop stop-color="#C0B6F2"/>
<stop offset="1" stop-color="#DEEBFF"/>
</linearGradient>
<linearGradient id="paint3_linear" x1="485.527" y1="112.465" x2="485.527" y2="90.0701" gradientUnits="userSpaceOnUse">
<stop stop-color="#C0B6F2"/>
<stop offset="1" stop-color="#DEEBFF"/>
</linearGradient>
<linearGradient id="paint4_linear" x1="542.883" y1="104.191" x2="446.315" y2="115.757" gradientUnits="userSpaceOnUse">
<stop offset="0.35" stop-color="#FFC400"/>
<stop offset="0.9" stop-color="#FFF0B2"/>
</linearGradient>
<linearGradient id="paint5_linear" x1="542.883" y1="104.191" x2="446.315" y2="115.757" gradientUnits="userSpaceOnUse">
<stop offset="0.35" stop-color="#FFC400"/>
<stop offset="0.9" stop-color="#FFF0B2"/>
</linearGradient>
<linearGradient id="paint6_linear" x1="-1566.28" y1="-459.234" x2="3662.62" y2="2693.39" gradientUnits="userSpaceOnUse">
<stop offset="0.35" stop-color="#FFC400"/>
<stop offset="0.9" stop-color="#FFF0B2"/>
</linearGradient>
<radialGradient id="paint7_radial" cx="0" cy="0" r="1" gradientUnits="userSpaceOnUse" gradientTransform="translate(484.827 99.8908) rotate(90) scale(1.4223)">
<stop stop-color="#FF7452"/>
<stop offset="1" stop-color="#FF7452" stop-opacity="0"/>
</radialGradient>
<linearGradient id="paint8_linear" x1="243.545" y1="206.424" x2="221.091" y2="206.424" gradientUnits="userSpaceOnUse">
<stop stop-color="white"/>
<stop offset="1" stop-color="#DFE1E6"/>
</linearGradient>
<linearGradient id="paint9_linear" x1="243.545" y1="206.424" x2="221.091" y2="206.424" gradientUnits="userSpaceOnUse">
<stop stop-color="white"/>
<stop offset="1" stop-color="#DFE1E6"/>
</linearGradient>
<linearGradient id="paint10_linear" x1="255.02" y1="225.622" x2="219.093" y2="220.049" gradientUnits="userSpaceOnUse">
<stop stop-color="#5243AA"/>
<stop offset="0.14" stop-color="#6044AB"/>
<stop offset="0.4" stop-color="#8547AD"/>
<stop offset="0.76" stop-color="#C04CB1"/>
<stop offset="1" stop-color="#ED50B4"/>
</linearGradient>
<linearGradient id="paint11_linear" x1="569.832" y1="784.516" x2="-9.53768" y2="563.166" gradientUnits="userSpaceOnUse">
<stop stop-color="#5243AA"/>
<stop offset="0.14" stop-color="#6044AB"/>
<stop offset="0.4" stop-color="#8547AD"/>
<stop offset="0.76" stop-color="#C04CB1"/>
<stop offset="1" stop-color="#ED50B4"/>
</linearGradient>
<linearGradient id="paint12_linear" x1="433.056" y1="758.899" x2="61.0024" y2="675.11" gradientUnits="userSpaceOnUse">
<stop stop-color="#5243AA"/>
<stop offset="0.14" stop-color="#6044AB"/>
<stop offset="0.4" stop-color="#8547AD"/>
<stop offset="0.76" stop-color="#C04CB1"/>
<stop offset="1" stop-color="#ED50B4"/>
</linearGradient>
<linearGradient id="paint13_linear" x1="617.588" y1="682.673" x2="38.2202" y2="461.345" gradientUnits="userSpaceOnUse">
<stop stop-color="#5243AA"/>
<stop offset="0.14" stop-color="#6044AB"/>
<stop offset="0.4" stop-color="#8547AD"/>
<stop offset="0.76" stop-color="#C04CB1"/>
<stop offset="1" stop-color="#ED50B4"/>
</linearGradient>
<linearGradient id="paint14_linear" x1="591.789" y1="726.709" x2="12.3988" y2="505.38" gradientUnits="userSpaceOnUse">
<stop stop-color="#5243AA"/>
<stop offset="0.14" stop-color="#6044AB"/>
<stop offset="0.4" stop-color="#8547AD"/>
<stop offset="0.76" stop-color="#C04CB1"/>
<stop offset="1" stop-color="#ED50B4"/>
</linearGradient>
<linearGradient id="paint15_linear" x1="627.7" y1="648.954" x2="48.3085" y2="427.627" gradientUnits="userSpaceOnUse">
<stop stop-color="#5243AA"/>
<stop offset="0.14" stop-color="#6044AB"/>
<stop offset="0.4" stop-color="#8547AD"/>
<stop offset="0.76" stop-color="#C04CB1"/>
<stop offset="1" stop-color="#ED50B4"/>
</linearGradient>
<linearGradient id="paint16_linear" x1="499.712" y1="722.812" x2="58.5716" y2="602.524" gradientUnits="userSpaceOnUse">
<stop stop-color="#5243AA"/>
<stop offset="0.14" stop-color="#6044AB"/>
<stop offset="0.4" stop-color="#8547AD"/>
<stop offset="0.76" stop-color="#C04CB1"/>
<stop offset="1" stop-color="#ED50B4"/>
</linearGradient>
<linearGradient id="paint17_linear" x1="600.383" y1="719.516" x2="21.0162" y2="498.187" gradientUnits="userSpaceOnUse">
<stop stop-color="#5243AA"/>
<stop offset="0.14" stop-color="#6044AB"/>
<stop offset="0.4" stop-color="#8547AD"/>
<stop offset="0.76" stop-color="#C04CB1"/>
<stop offset="1" stop-color="#ED50B4"/>
</linearGradient>
<linearGradient id="paint18_linear" x1="611.619" y1="684.594" x2="31.9275" y2="462.994" gradientUnits="userSpaceOnUse">
<stop stop-color="#5243AA"/>
<stop offset="0.14" stop-color="#6044AB"/>
<stop offset="0.4" stop-color="#8547AD"/>
<stop offset="0.76" stop-color="#C04CB1"/>
<stop offset="1" stop-color="#ED50B4"/>
</linearGradient>
<linearGradient id="paint19_linear" x1="585.598" y1="751.321" x2="6.20778" y2="529.993" gradientUnits="userSpaceOnUse">
<stop stop-color="#5243AA"/>
<stop offset="0.14" stop-color="#6044AB"/>
<stop offset="0.4" stop-color="#8547AD"/>
<stop offset="0.76" stop-color="#C04CB1"/>
<stop offset="1" stop-color="#ED50B4"/>
</linearGradient>
<linearGradient id="paint20_linear" x1="798.948" y1="662.283" x2="14.7627" y2="109.951" gradientUnits="userSpaceOnUse">
<stop stop-color="#5243AA"/>
<stop offset="0.14" stop-color="#6044AB"/>
<stop offset="0.4" stop-color="#8547AD"/>
<stop offset="0.76" stop-color="#C04CB1"/>
<stop offset="1" stop-color="#ED50B4"/>
</linearGradient>
<linearGradient id="paint21_linear" x1="810.667" y1="304" x2="810.667" y2="396.889" gradientUnits="userSpaceOnUse">
<stop offset="0.234375" stop-color="white"/>
<stop offset="1" stop-color="white" stop-opacity="0"/>
</linearGradient>
<linearGradient id="paint22_linear" x1="172.371" y1="95.4079" x2="382.493" y2="132.458" gradientUnits="userSpaceOnUse">
<stop stop-color="#6554C0"/>
<stop offset="1" stop-color="#F99CDB"/>
</linearGradient>
<linearGradient id="paint23_linear" x1="350.655" y1="211.587" x2="350.655" y2="189.192" gradientUnits="userSpaceOnUse">
<stop stop-color="#C0B6F2"/>
<stop offset="1" stop-color="#DEEBFF"/>
</linearGradient>
<linearGradient id="paint24_linear" x1="350.655" y1="211.587" x2="350.655" y2="189.192" gradientUnits="userSpaceOnUse">
<stop stop-color="#C0B6F2"/>
<stop offset="1" stop-color="#DEEBFF"/>
</linearGradient>
<linearGradient id="paint25_linear" x1="350.655" y1="211.587" x2="350.655" y2="189.192" gradientUnits="userSpaceOnUse">
<stop stop-color="#C0B6F2"/>
<stop offset="1" stop-color="#DEEBFF"/>
</linearGradient>
<linearGradient id="paint26_linear" x1="350.655" y1="211.587" x2="350.655" y2="189.192" gradientUnits="userSpaceOnUse">
<stop stop-color="#C0B6F2"/>
<stop offset="1" stop-color="#DEEBFF"/>
</linearGradient>
<linearGradient id="paint27_linear" x1="406.632" y1="213.228" x2="309.523" y2="207.849" gradientUnits="userSpaceOnUse">
<stop offset="0.35" stop-color="#FFC400"/>
<stop offset="0.9" stop-color="#FFF0B2"/>
</linearGradient>
<linearGradient id="paint28_linear" x1="406.632" y1="213.228" x2="309.523" y2="207.849" gradientUnits="userSpaceOnUse">
<stop offset="0.35" stop-color="#FFC400"/>
<stop offset="0.9" stop-color="#FFF0B2"/>
</linearGradient>
<linearGradient id="paint29_linear" x1="-1572.65" y1="-707.889" x2="3029.36" y2="3304.83" gradientUnits="userSpaceOnUse">
<stop offset="0.35" stop-color="#FFC400"/>
<stop offset="0.9" stop-color="#FFF0B2"/>
</linearGradient>
<radialGradient id="paint30_radial" cx="0" cy="0" r="1" gradientUnits="userSpaceOnUse" gradientTransform="translate(350.205 198.912) rotate(90) scale(1.4223)">
<stop stop-color="#FF7452"/>
<stop offset="1" stop-color="#FF7452" stop-opacity="0"/>
</radialGradient>
<linearGradient id="paint31_linear" x1="330.789" y1="185.517" x2="314.174" y2="205.388" gradientUnits="userSpaceOnUse">
<stop stop-color="#ED50B4"/>
<stop offset="1" stop-color="#5243AA"/>
</linearGradient>
<linearGradient id="paint32_linear" x1="319.888" y1="206.396" x2="323.787" y2="184.282" gradientUnits="userSpaceOnUse">
<stop stop-color="#C0B6F2"/>
<stop offset="1" stop-color="#FCC6EB"/>
</linearGradient>
<linearGradient id="paint33_linear" x1="250.508" y1="178.262" x2="342.846" y2="218.705" gradientUnits="userSpaceOnUse">
<stop stop-color="#36B37E"/>
<stop offset="0.42" stop-color="#1CB5AA"/>
<stop offset="0.79" stop-color="#08B7CC"/>
<stop offset="1" stop-color="#00B8D9"/>
</linearGradient>
<linearGradient id="paint34_linear" x1="250.508" y1="178.262" x2="342.846" y2="218.705" gradientUnits="userSpaceOnUse">
<stop stop-color="#36B37E"/>
<stop offset="0.42" stop-color="#1CB5AA"/>
<stop offset="0.79" stop-color="#08B7CC"/>
<stop offset="1" stop-color="#00B8D9"/>
</linearGradient>
<linearGradient id="paint35_linear" x1="377.594" y1="198.696" x2="270.157" y2="216.96" gradientUnits="userSpaceOnUse">
<stop stop-color="#008DA6"/>
<stop offset="1" stop-color="#79F2C0" stop-opacity="0.6"/>
</linearGradient>
<clipPath id="clip0">
<rect width="540.444" height="304" fill="white"/>
</clipPath>
</defs>
</svg>
